<svg width="217" height="58" viewBox="0 0 217 58" fill="none" xmlns="http://www.w3.org/2000/svg">
<rect x="0.176514" width="216.824" height="57.0588" rx="8" fill="black"/>
<path d="M69.9215 28.5472C69.8806 24.0041 73.6413 21.7939 73.8133 21.691C71.6834 18.5858 68.3822 18.1615 67.2222 18.1276C64.4496 17.8359 61.7601 19.7867 60.3477 19.7867C58.9071 19.7867 56.7322 18.1558 54.3881 18.2038C51.3716 18.2503 48.5496 19.9967 47.0019 22.7087C43.8079 28.2385 46.19 36.3646 49.2502 40.8344C50.781 43.0234 52.5697 45.4676 54.911 45.3816C57.2016 45.2872 58.0572 43.9213 60.8213 43.9213C63.5601 43.9213 64.3636 45.3816 66.7514 45.3266C69.2097 45.2872 70.7574 43.1277 72.2346 40.9189C74.0036 38.4099 74.714 35.9389 74.7422 35.8121C74.6844 35.7923 69.968 33.9923 69.9215 28.5472Z" fill="white"/>
<path d="M65.411 15.1873C66.6429 13.6466 67.4858 11.5506 67.2519 9.42358C65.4688 9.50252 63.2388 10.657 61.9547 12.1638C60.8186 13.4916 59.8037 15.668 60.0659 17.7147C62.0689 17.8641 64.1254 16.704 65.411 15.1873Z" fill="white"/>
<path fill-rule="evenodd" clip-rule="evenodd" d="M135.447 37.9801C136.236 37.2691 136.629 36.3481 136.629 35.2161C136.629 34.2961 136.36 33.5251 135.821 32.9091C135.28 32.2911 134.439 31.7521 133.294 31.2911C132.358 30.9221 131.713 30.5801 131.358 30.2641C130.95 29.9221 130.747 29.4871 130.747 28.9611C130.747 28.4861 130.925 28.0851 131.28 27.7561C131.7 27.3881 132.286 27.2031 133.036 27.2031C133.985 27.2031 134.833 27.4071 135.583 27.8151L136.116 26.0771C135.313 25.6561 134.307 25.4451 133.096 25.4451C131.738 25.4451 130.652 25.7941 129.838 26.4931C129.021 27.1911 128.613 28.0881 128.613 29.1821C128.613 30.8561 129.777 32.1291 132.107 32.9981C132.963 33.3151 133.576 33.6581 133.943 34.0271C134.312 34.3961 134.496 34.8511 134.496 35.3911C134.496 35.9971 134.273 36.4831 133.826 36.8451C133.377 37.2071 132.752 37.3891 131.949 37.3891C130.83 37.3891 129.803 37.1051 128.867 36.5391L128.373 38.3161C129.242 38.8691 130.39 39.1451 131.822 39.1451C133.373 39.1451 134.58 38.7571 135.447 37.9801ZM102.235 38.9481H99.964L98.72 35.0391H94.396L93.211 38.9481H91L95.284 25.6401H97.93L102.235 38.9481ZM98.345 33.3991L97.22 29.9241C97.101 29.5691 96.878 28.7331 96.549 27.4171H96.509C96.378 27.9831 96.167 28.8191 95.877 29.9241L94.772 33.3991H98.345ZM111.929 37.9011C112.811 36.9541 113.252 35.6641 113.252 34.0321C113.252 32.5711 112.874 31.3931 112.116 30.4971C111.36 29.6021 110.415 29.1551 109.283 29.1551C107.835 29.1551 106.756 29.7271 106.045 30.8731H106.005L105.886 29.3521H104.011C104.063 30.4321 104.09 31.4851 104.09 32.5111V42.8581H106.222V37.8031H106.262C106.815 38.7111 107.723 39.1651 108.987 39.1651C110.158 39.1651 111.139 38.7441 111.929 37.9011ZM111.08 34.1101C111.08 33.1761 110.87 32.4061 110.448 31.8001C109.987 31.1681 109.368 30.8521 108.592 30.8521C108.066 30.8521 107.588 31.0281 107.161 31.3751C106.733 31.7251 106.453 32.1821 106.322 32.7481C106.256 33.0121 106.223 33.2281 106.223 33.3981V34.9981C106.223 35.6961 106.437 36.2851 106.865 36.7661C107.293 37.2471 107.849 37.4871 108.533 37.4871C109.336 37.4871 109.961 37.1771 110.408 36.5591C110.856 35.9401 111.08 35.1241 111.08 34.1101ZM122.965 37.9011C123.848 36.9541 124.289 35.6641 124.289 34.0321C124.289 32.5711 123.91 31.3931 123.155 30.4971C122.397 29.6021 121.452 29.1551 120.321 29.1551C118.872 29.1551 117.793 29.7271 117.083 30.8731H117.043L116.924 29.3521H115.049C115.101 30.4321 115.128 31.4851 115.128 32.5111V42.8581H117.26V37.8031H117.3C117.852 38.7111 118.76 39.1651 120.024 39.1651C121.195 39.1651 122.176 38.7441 122.965 37.9011ZM122.117 34.1101C122.117 33.1761 121.906 32.4061 121.484 31.8001C121.023 31.1681 120.406 30.8521 119.629 30.8521C119.102 30.8521 118.625 31.0281 118.197 31.3751C117.769 31.7251 117.49 32.1821 117.359 32.7481C117.294 33.0121 117.26 33.2281 117.26 33.3981V34.9981C117.26 35.6961 117.474 36.2851 117.9 36.7661C118.328 37.2461 118.884 37.4871 119.57 37.4871C120.373 37.4871 120.998 37.1771 121.445 36.5591C121.893 35.9401 122.117 35.1241 122.117 34.1101ZM143.678 30.9521H141.328V35.6111C141.328 36.7961 141.742 37.3881 142.572 37.3881C142.953 37.3881 143.269 37.3551 143.519 37.2891L143.578 38.9081C143.158 39.0651 142.605 39.1441 141.92 39.1441C141.078 39.1441 140.42 38.8871 139.945 38.3741C139.472 37.8601 139.234 36.9981 139.234 35.7871V30.9501H137.834V29.3501H139.234V27.5931L141.328 26.9611V29.3501H143.678V30.9521ZM153.017 37.7041C153.859 36.7571 154.281 35.5461 154.281 34.0711C154.281 32.6361 153.873 31.4651 153.055 30.5581C152.2 29.6231 151.067 29.1561 149.659 29.1561C148.198 29.1561 147.036 29.6301 146.175 30.5781C145.312 31.5251 144.882 32.7431 144.882 34.2301C144.882 35.6511 145.3 36.8301 146.136 37.7641C146.972 38.6981 148.093 39.1651 149.501 39.1651C150.962 39.1651 152.134 38.6791 153.017 37.7041ZM152.069 34.1401C152.069 33.2551 151.88 32.4961 151.497 31.8631C151.05 31.0971 150.411 30.7151 149.583 30.7151C148.726 30.7151 148.075 31.0981 147.628 31.8631C147.245 32.4971 147.056 33.2681 147.056 34.1801C147.056 35.0651 147.245 35.8241 147.628 36.4561C148.089 37.2221 148.733 37.6041 149.564 37.6041C150.378 37.6041 151.017 37.2141 151.478 36.4361C151.871 35.7911 152.069 35.0241 152.069 34.1401ZM160.539 31.1681C160.775 31.1681 161 31.1881 161.211 31.2271V29.1941C161.053 29.1691 160.875 29.1551 160.678 29.1551C160.125 29.1551 159.612 29.3261 159.137 29.6691C158.651 30.0501 158.296 30.5581 158.071 31.1891H158.012L157.934 29.3531H156.077C156.13 30.2611 156.157 31.2681 156.157 32.3741L156.137 38.9481H158.268V33.9131C158.268 33.1501 158.446 32.5181 158.801 32.0181C159.209 31.4511 159.789 31.1681 160.539 31.1681ZM170.746 33.6961C170.746 34.0781 170.721 34.4001 170.668 34.6631H164.272C164.297 35.6111 164.606 36.3361 165.2 36.8361C165.739 37.2831 166.436 37.5071 167.292 37.5071C168.239 37.5071 169.103 37.3561 169.88 37.0531L170.214 38.5331C169.306 38.9291 168.234 39.1261 166.997 39.1261C165.509 39.1261 164.341 38.6881 163.491 37.8131C162.643 36.9381 162.218 35.7631 162.218 34.2891C162.218 32.8421 162.613 31.6371 163.404 30.6761C164.232 29.6501 165.351 29.1371 166.759 29.1371C168.142 29.1371 169.189 29.6501 169.9 30.6761C170.463 31.4911 170.746 32.4991 170.746 33.6961ZM168.299 31.5041C168.588 31.9651 168.727 32.5111 168.713 33.1431V33.1421H164.272C164.337 32.4981 164.548 31.9451 164.903 31.4841C165.336 30.9041 165.903 30.6151 166.6 30.6151C167.363 30.6151 167.93 30.9111 168.299 31.5041Z" fill="white"/>
<path fill-rule="evenodd" clip-rule="evenodd" d="M119.678 20.877H118.631V14H119.678V20.877ZM96.5821 20.111C97.2871 19.516 97.6401 18.63 97.6401 17.453C97.6401 16.405 97.3131 15.6 96.6611 15.037C96.0791 14.539 95.2161 14.29 94.0711 14.29C93.4231 14.29 92.8231 14.336 92.2661 14.426V20.857C92.6931 20.909 93.2031 20.935 93.7991 20.935C95.0011 20.935 95.9291 20.66 96.5821 20.111ZM95.9291 15.726C96.3331 16.134 96.5351 16.719 96.5351 17.482C96.5351 18.336 96.3151 18.986 95.8791 19.432C95.4431 19.878 94.8241 20.101 94.0221 20.101C93.6791 20.101 93.4431 20.092 93.3141 20.072V15.183C93.5471 15.137 93.8281 15.115 94.1581 15.115C94.9351 15.115 95.5251 15.319 95.9291 15.726ZM103.499 18.481C103.499 19.206 103.292 19.8 102.878 20.266C102.444 20.745 101.869 20.984 101.151 20.984C100.459 20.984 99.9081 20.755 99.4971 20.295C99.0871 19.836 98.8821 19.257 98.8821 18.559C98.8821 17.829 99.0931 17.23 99.5171 16.765C99.9411 16.3 100.511 16.067 101.229 16.067C101.921 16.067 102.477 16.296 102.898 16.755C103.298 17.201 103.499 17.777 103.499 18.481ZM102.131 17.396C102.318 17.707 102.412 18.08 102.412 18.515C102.412 18.95 102.315 19.326 102.121 19.643C101.895 20.026 101.581 20.217 101.181 20.217C100.773 20.217 100.457 20.029 100.23 19.653C100.043 19.342 99.9491 18.969 99.9491 18.534C99.9491 18.086 100.042 17.707 100.23 17.396C100.45 17.02 100.77 16.832 101.191 16.832C101.598 16.832 101.911 17.02 102.131 17.396ZM111.355 16.163L111.355 16.164H110.326L109.754 18.366C109.612 18.916 109.505 19.433 109.434 19.918H109.405C109.308 19.42 109.182 18.903 109.027 18.366L108.386 16.164H107.532L106.863 18.414C106.681 19.021 106.552 19.523 106.474 19.917H106.455C106.37 19.439 106.264 18.934 106.135 18.404L105.602 16.163H104.525L105.912 20.877H106.883L107.532 18.83C107.694 18.332 107.82 17.825 107.911 17.307H107.93C108.028 17.811 108.154 18.319 108.309 18.83L108.92 20.877H109.88L111.355 16.164H111.355V16.163ZM115.74 20.877H116.788V18.053C116.788 17.361 116.607 16.84 116.245 16.491C115.954 16.206 115.588 16.064 115.148 16.064C114.8 16.064 114.482 16.153 114.198 16.329C113.959 16.48 113.777 16.669 113.655 16.898H113.626L113.577 16.161H112.656C112.681 16.647 112.694 17.096 112.694 17.51V20.876H113.742V18.08C113.742 17.771 113.84 17.501 114.033 17.272C114.228 17.043 114.479 16.929 114.79 16.929C115.424 16.929 115.74 17.345 115.74 18.177V20.877ZM125.227 20.266C125.641 19.8 125.848 19.206 125.848 18.481C125.848 17.777 125.647 17.201 125.247 16.755C124.825 16.296 124.27 16.067 123.577 16.067C122.86 16.067 122.29 16.3 121.866 16.765C121.442 17.23 121.231 17.829 121.231 18.559C121.231 19.257 121.436 19.836 121.846 20.295C122.256 20.755 122.807 20.984 123.5 20.984C124.217 20.984 124.793 20.745 125.227 20.266ZM124.76 18.515C124.76 18.08 124.666 17.707 124.479 17.396C124.26 17.02 123.946 16.832 123.54 16.832C123.118 16.832 122.798 17.02 122.579 17.396C122.391 17.707 122.298 18.086 122.298 18.534C122.298 18.969 122.392 19.342 122.579 19.653C122.806 20.029 123.122 20.217 123.53 20.217C123.93 20.217 124.243 20.026 124.469 19.643C124.664 19.326 124.76 18.95 124.76 18.515ZM129.979 20.877H130.92C130.875 20.599 130.852 20.224 130.852 19.753V18.017C130.852 16.717 130.234 16.067 129.002 16.067C128.364 16.067 127.823 16.203 127.385 16.474L127.598 17.162C127.952 16.93 128.362 16.813 128.827 16.813C129.48 16.813 129.806 17.123 129.806 17.744V17.832C128.933 17.825 128.255 17.974 127.773 18.278C127.29 18.582 127.05 19.021 127.05 19.597C127.05 19.978 127.173 20.299 127.419 20.557C127.69 20.841 128.05 20.984 128.495 20.984C129.091 20.984 129.55 20.767 129.872 20.334H129.901L129.979 20.877ZM129.832 19.257V18.53C128.676 18.51 128.098 18.827 128.098 19.48C128.098 19.726 128.164 19.91 128.299 20.033C128.434 20.156 128.606 20.217 128.811 20.217C129.041 20.217 129.256 20.144 129.452 19.999C129.649 19.853 129.77 19.668 129.815 19.441C129.826 19.39 129.832 19.328 129.832 19.257ZM135.945 20.877H136.875C136.85 20.489 136.838 20.066 136.838 19.607V14H135.789V16.706H135.769C135.517 16.279 135.074 16.066 134.441 16.066C133.865 16.066 133.381 16.286 132.986 16.726C132.578 17.198 132.375 17.816 132.375 18.579C132.375 19.29 132.562 19.869 132.937 20.315C133.312 20.761 133.785 20.984 134.353 20.984C135.064 20.984 135.57 20.696 135.867 20.12H135.896L135.945 20.877ZM135.789 18.889V18.103C135.789 17.967 135.779 17.857 135.76 17.773C135.701 17.521 135.574 17.309 135.381 17.138C135.186 16.967 134.951 16.881 134.68 16.881C134.289 16.881 133.983 17.036 133.758 17.347C133.535 17.658 133.422 18.055 133.422 18.54C133.422 19.006 133.529 19.384 133.744 19.675C133.971 19.985 134.277 20.14 134.66 20.14C135.004 20.14 135.279 20.011 135.488 19.752C135.69 19.513 135.789 19.225 135.789 18.889ZM145.217 20.266C145.631 19.8 145.838 19.206 145.838 18.481C145.838 17.777 145.637 17.201 145.237 16.755C144.817 16.296 144.26 16.067 143.569 16.067C142.85 16.067 142.28 16.3 141.856 16.765C141.432 17.23 141.221 17.829 141.221 18.559C141.221 19.257 141.426 19.836 141.836 20.295C142.248 20.755 142.799 20.984 143.49 20.984C144.209 20.984 144.783 20.745 145.217 20.266ZM144.752 18.515C144.752 18.08 144.658 17.707 144.471 17.396C144.25 17.02 143.938 16.832 143.53 16.832C143.11 16.832 142.79 17.02 142.569 17.396C142.381 17.707 142.288 18.086 142.288 18.534C142.288 18.969 142.382 19.342 142.569 19.653C142.796 20.029 143.112 20.217 143.52 20.217C143.92 20.217 144.235 20.026 144.461 19.643C144.654 19.326 144.752 18.95 144.752 18.515ZM150.426 20.877H151.473V18.053C151.473 17.361 151.293 16.84 150.93 16.491C150.639 16.206 150.273 16.064 149.834 16.064C149.485 16.064 149.168 16.153 148.883 16.329C148.645 16.48 148.463 16.669 148.34 16.898H148.311L148.262 16.161H147.342C147.367 16.647 147.379 17.096 147.379 17.51V20.876H148.428V18.08C148.428 17.771 148.525 17.501 148.719 17.272C148.913 17.043 149.164 16.929 149.475 16.929C150.11 16.929 150.426 17.345 150.426 18.177V20.877ZM158.525 16.948H157.372V19.238C157.372 19.82 157.577 20.111 157.983 20.111C158.171 20.111 158.327 20.095 158.45 20.062L158.477 20.857C158.27 20.935 157.998 20.974 157.663 20.974C157.249 20.974 156.927 20.848 156.694 20.596C156.46 20.344 156.344 19.92 156.344 19.325V16.948H155.655V16.163H156.344V15.299L157.371 14.989V16.162H158.525V16.948ZM163.025 20.877H164.074V18.074C164.074 17.376 163.896 16.848 163.541 16.493C163.256 16.208 162.897 16.066 162.463 16.066C161.85 16.066 161.377 16.324 161.047 16.841H161.027V14H159.98V20.876H161.027V18.041C161.027 17.893 161.045 17.767 161.076 17.664C161.258 17.174 161.59 16.929 162.076 16.929C162.709 16.929 163.025 17.352 163.025 18.197V20.877ZM169.797 18.297C169.797 18.485 169.783 18.643 169.758 18.772H166.615C166.629 19.238 166.779 19.593 167.07 19.839C167.336 20.059 167.679 20.169 168.099 20.169C168.564 20.169 168.988 20.095 169.37 19.946L169.534 20.674C169.087 20.868 168.561 20.965 167.952 20.965C167.222 20.965 166.647 20.75 166.231 20.32C165.813 19.89 165.606 19.313 165.606 18.589C165.606 17.878 165.799 17.286 166.188 16.814C166.594 16.31 167.143 16.058 167.836 16.058C168.514 16.058 169.029 16.31 169.377 16.814C169.658 17.214 169.797 17.709 169.797 18.297ZM168.594 17.221C168.736 17.447 168.805 17.715 168.797 18.026H166.615C166.649 17.709 166.752 17.438 166.926 17.211C167.139 16.926 167.418 16.784 167.76 16.784C168.135 16.784 168.412 16.93 168.594 17.221Z" fill="white"/>
</svg>
