<svg width="20" height="21" viewBox="0 0 20 21" fill="none" xmlns="http://www.w3.org/2000/svg">
<path d="M9.9996 7.74973C8.56601 7.74973 7.39609 8.91965 7.39609 10.3532C7.39609 11.7868 8.56601 12.9568 9.9996 12.9568C11.4332 12.9568 12.6031 11.7868 12.6031 10.3532C12.6031 8.91965 11.4332 7.74973 9.9996 7.74973ZM17.8082 10.3532C17.8082 9.27512 17.818 8.20676 17.7574 7.13059C17.6969 5.88059 17.4117 4.77121 16.4977 3.85715C15.5816 2.94113 14.4742 2.65793 13.2242 2.59738C12.1461 2.53684 11.0777 2.5466 10.0016 2.5466C8.92343 2.5466 7.85507 2.53684 6.7789 2.59738C5.5289 2.65793 4.41953 2.94309 3.50546 3.85715C2.58945 4.77316 2.30624 5.88059 2.2457 7.13059C2.18515 8.20871 2.19492 9.27707 2.19492 10.3532C2.19492 11.4294 2.18515 12.4997 2.2457 13.5759C2.30624 14.8259 2.5914 15.9353 3.50546 16.8493C4.42148 17.7653 5.5289 18.0486 6.7789 18.1091C7.85703 18.1696 8.92538 18.1599 10.0016 18.1599C11.0797 18.1599 12.148 18.1696 13.2242 18.1091C14.4742 18.0486 15.5836 17.7634 16.4977 16.8493C17.4137 15.9333 17.6969 14.8259 17.7574 13.5759C17.8199 12.4997 17.8082 11.4314 17.8082 10.3532ZM9.9996 14.3591C7.78281 14.3591 5.99374 12.57 5.99374 10.3532C5.99374 8.13644 7.78281 6.34738 9.9996 6.34738C12.2164 6.34738 14.0055 8.13644 14.0055 10.3532C14.0055 12.57 12.2164 14.3591 9.9996 14.3591ZM14.1695 7.11887C13.6519 7.11887 13.234 6.7009 13.234 6.18332C13.234 5.66574 13.6519 5.24777 14.1695 5.24777C14.6871 5.24777 15.1051 5.66574 15.1051 6.18332C15.1052 6.30622 15.0811 6.42794 15.0342 6.54152C14.9872 6.6551 14.9183 6.75829 14.8314 6.8452C14.7445 6.9321 14.6413 7.00101 14.5277 7.04797C14.4142 7.09493 14.2924 7.11902 14.1695 7.11887Z" fill="white"/>
</svg>
