<svg width="24" height="25" viewBox="0 0 24 25" fill="none" xmlns="http://www.w3.org/2000/svg">
<path d="M5.98975 5.37152C6.1302 5.51215 6.20909 5.70277 6.20909 5.90152C6.20909 6.10027 6.1302 6.2909 5.98975 6.43152C5.20042 7.22082 4.5743 8.15787 4.14711 9.18915C3.71993 10.2204 3.50007 11.3258 3.50007 12.442C3.50007 13.5583 3.71993 14.6636 4.14711 15.6949C4.5743 16.7262 5.20042 17.6632 5.98975 18.4525C6.1263 18.594 6.20181 18.7835 6.20001 18.9802C6.19821 19.1768 6.11924 19.3649 5.98012 19.5039C5.841 19.6429 5.65285 19.7217 5.4562 19.7233C5.25955 19.7249 5.07014 19.6492 4.92875 19.5125C1.02375 15.6075 1.02375 9.27652 4.92875 5.37152C5.06938 5.23107 5.26 5.15218 5.45875 5.15218C5.6575 5.15218 5.84812 5.23107 5.98875 5.37152H5.98975ZM19.0707 5.37152C22.9757 9.27652 22.9757 15.6075 19.0707 19.5135C18.9286 19.646 18.7405 19.7181 18.5462 19.7147C18.3519 19.7113 18.1665 19.6326 18.0291 19.4951C17.8917 19.3577 17.813 19.1723 17.8096 18.978C17.8061 18.7837 17.8783 18.5957 18.0107 18.4535C18.8002 17.6642 19.4265 16.7271 19.8538 15.6957C20.281 14.6643 20.5009 13.5589 20.5009 12.4425C20.5009 11.3261 20.281 10.2207 19.8538 9.18933C19.4265 8.15795 18.8002 7.22084 18.0107 6.43152C17.9371 6.36286 17.878 6.28006 17.837 6.18806C17.796 6.09606 17.7739 5.99675 17.7722 5.89604C17.7704 5.79534 17.7889 5.69531 17.8266 5.60192C17.8643 5.50854 17.9205 5.4237 17.9917 5.35248C18.0629 5.28126 18.1478 5.22512 18.2412 5.1874C18.3345 5.14968 18.4346 5.13115 18.5353 5.13293C18.636 5.13471 18.7353 5.15675 18.8273 5.19774C18.9193 5.23873 19.0021 5.29783 19.0707 5.37152ZM8.81775 8.19952C8.9582 8.34015 9.03709 8.53077 9.03709 8.72952C9.03709 8.92827 8.9582 9.1189 8.81775 9.25952C8.39973 9.6774 8.06813 10.1735 7.84189 10.7196C7.61566 11.2657 7.49921 11.851 7.49921 12.442C7.49921 13.0331 7.61566 13.6184 7.84189 14.1644C8.06813 14.7105 8.39973 15.2066 8.81775 15.6245C8.95023 15.7667 9.02235 15.9547 9.01892 16.149C9.0155 16.3433 8.93678 16.5287 8.79937 16.6661C8.66196 16.8036 8.47657 16.8823 8.28227 16.8857C8.08797 16.8891 7.89993 16.817 7.75775 16.6845C6.63262 15.5593 6.00053 14.0333 6.00053 12.442C6.00053 10.8508 6.63262 9.32473 7.75775 8.19952C7.89838 8.05907 8.089 7.98018 8.28775 7.98018C8.4865 7.98018 8.67712 8.05907 8.81775 8.19952ZM16.2428 8.19952C17.3679 9.32473 18 10.8508 18 12.442C18 14.0333 17.3679 15.5593 16.2428 16.6845C16.1736 16.7562 16.0909 16.8134 15.9994 16.8527C15.9079 16.8921 15.8095 16.9128 15.7099 16.9137C15.6103 16.9146 15.5116 16.8957 15.4194 16.858C15.3272 16.8204 15.2434 16.7647 15.173 16.6943C15.1025 16.6239 15.0468 16.5402 15.009 16.4481C14.9713 16.3559 14.9522 16.2572 14.9531 16.1576C14.9539 16.058 14.9745 15.9596 15.0138 15.868C15.0531 15.7765 15.1102 15.6937 15.1818 15.6245C15.5996 15.2067 15.9311 14.7106 16.1572 14.1646C16.3834 13.6186 16.4998 13.0335 16.4998 12.4425C16.4998 11.8516 16.3834 11.2664 16.1572 10.7204C15.9311 10.1745 15.5996 9.67839 15.1818 9.26052C15.0493 9.11835 14.9771 8.9303 14.9806 8.736C14.984 8.5417 15.0627 8.35631 15.2001 8.2189C15.3375 8.08149 15.5229 8.00277 15.7172 7.99935C15.9115 7.99592 16.0996 8.06804 16.2418 8.20052L16.2428 8.19952ZM11.9998 10.9425C12.3976 10.9425 12.7791 11.1006 13.0604 11.3819C13.3417 11.6632 13.4998 12.0447 13.4998 12.4425C13.4998 12.8403 13.3417 13.2219 13.0604 13.5032C12.7791 13.7845 12.3976 13.9425 11.9998 13.9425C11.6019 13.9425 11.2204 13.7845 10.9391 13.5032C10.6578 13.2219 10.4998 12.8403 10.4998 12.4425C10.4998 12.0447 10.6578 11.6632 10.9391 11.3819C11.2204 11.1006 11.6019 10.9425 11.9998 10.9425Z" fill="#FAFAFA"/>
</svg>
