<svg width="20" height="21" viewBox="0 0 20 21" fill="none" xmlns="http://www.w3.org/2000/svg">
<path fill-rule="evenodd" clip-rule="evenodd" d="M1.76465 3.37001C1.76465 2.99203 1.90962 2.62953 2.16768 2.36225C2.42574 2.09498 2.77574 1.94483 3.14069 1.94483H16.8577C17.0386 1.94452 17.2177 1.98116 17.3849 2.05266C17.552 2.12415 17.7039 2.2291 17.8319 2.36148C17.9598 2.49386 18.0613 2.65108 18.1305 2.82414C18.1998 2.9972 18.2353 3.1827 18.2352 3.37001V17.5769C18.2354 17.7643 18.2 17.9498 18.1308 18.123C18.0617 18.2961 17.9603 18.4534 17.8325 18.5859C17.7046 18.7185 17.5527 18.8236 17.3856 18.8952C17.2185 18.9669 17.0393 19.0038 16.8584 19.0036H3.14069C2.95992 19.0036 2.78093 18.9668 2.61393 18.8951C2.44693 18.8234 2.2952 18.7184 2.16742 18.5859C2.03963 18.4535 1.93829 18.2963 1.86918 18.1233C1.80007 17.9503 1.76455 17.7649 1.76465 17.5777V3.37001ZM8.28401 8.44889H10.5143V9.60889C10.8362 8.94205 11.6597 8.34189 12.8973 8.34189C15.2698 8.34189 15.832 9.67015 15.832 12.1072V16.6216H13.4311V12.6624C13.4311 11.2745 13.1091 10.4913 12.2916 10.4913C11.1574 10.4913 10.6857 11.3357 10.6857 12.6624V16.6216H8.28401V8.44889ZM4.16636 16.5154H6.56807V8.34189H4.16636V16.5146V16.5154ZM6.91171 5.67606C6.91624 5.88904 6.87964 6.10081 6.80408 6.29895C6.72851 6.49708 6.6155 6.67759 6.47167 6.82988C6.32783 6.98216 6.15608 7.10316 5.96649 7.18577C5.77689 7.26837 5.57328 7.31092 5.36759 7.31092C5.1619 7.31092 4.95829 7.26837 4.76869 7.18577C4.5791 7.10316 4.40735 6.98216 4.26351 6.82988C4.11968 6.67759 4.00666 6.49708 3.9311 6.29895C3.85554 6.10081 3.81894 5.88904 3.82347 5.67606C3.83236 5.258 3.99895 4.86017 4.28756 4.56776C4.57617 4.27536 4.96385 4.11162 5.36759 4.11162C5.77133 4.11162 6.15901 4.27536 6.44762 4.56776C6.73623 4.86017 6.90282 5.258 6.91171 5.67606V5.67606Z" fill="white"/>
</svg>
