<svg width="20" height="21" viewBox="0 0 20 21" fill="none" xmlns="http://www.w3.org/2000/svg">
<path d="M19.2746 5.11548C18.6026 5.41327 17.8807 5.61448 17.1217 5.70543C17.9048 5.23684 18.4907 4.49935 18.77 3.63055C18.0343 4.06757 17.229 4.37519 16.3893 4.54002C15.8246 3.93709 15.0767 3.53745 14.2616 3.40317C13.4465 3.26888 12.6099 3.40745 11.8816 3.79736C11.1533 4.18727 10.5742 4.80671 10.234 5.55951C9.89389 6.31231 9.8118 7.15635 10.0005 7.96058C8.50969 7.88573 7.05128 7.49824 5.71991 6.82327C4.38855 6.1483 3.21398 5.20092 2.27245 4.04263C1.95051 4.59797 1.7654 5.24184 1.7654 5.92756C1.76504 6.54487 1.91706 7.15272 2.20796 7.69718C2.49887 8.24165 2.91967 8.70589 3.43302 9.04872C2.83767 9.02978 2.25544 8.86891 1.73482 8.5795V8.62779C1.73476 9.49359 2.03424 10.3327 2.58246 11.0029C3.13067 11.673 3.89385 12.1328 4.7425 12.3043C4.1902 12.4538 3.61117 12.4758 3.04912 12.3687C3.28855 13.1136 3.75496 13.7651 4.38303 14.2318C5.0111 14.6985 5.7694 14.9572 6.55177 14.9715C5.22366 16.0141 3.58344 16.5797 1.89498 16.5772C1.59589 16.5773 1.29705 16.5598 1 16.5249C2.71388 17.6268 4.70897 18.2117 6.74654 18.2094C13.644 18.2094 17.4147 12.4966 17.4147 7.54207C17.4147 7.3811 17.4106 7.21852 17.4034 7.05755C18.1368 6.52714 18.7699 5.87033 19.273 5.11789L19.2746 5.11548V5.11548Z" fill="white"/>
</svg>
