<svg width="34" height="32" viewBox="0 0 34 32" fill="none" xmlns="http://www.w3.org/2000/svg">
<ellipse opacity="0.16" cx="16.8185" cy="16" rx="16.6947" ry="16" fill="black"/>
<path d="M10.555 18.1431L10.043 16.7442H7.40074L6.88874 18.1431H5.47159L7.94016 11.7431H9.49445L11.9722 18.1431H10.555ZM7.81216 15.6014H9.63159L8.72645 13.0962L7.81216 15.6014ZM18.3027 11.7431H19.8935V18.1431H18.5678V13.6814L16.8581 16.5979H15.8341L14.1244 13.6814V18.1431H12.7987V11.7431H14.3895L16.3461 15.1076L18.3027 11.7431ZM25.7961 18.1431L25.2841 16.7442H22.6418L22.1298 18.1431H20.7127L23.1812 11.7431H24.7355L27.2132 18.1431H25.7961ZM23.0532 15.6014H24.8727L23.9675 13.0962L23.0532 15.6014Z" fill="#666666"/>
</svg>
