<svg width="32" height="32" viewBox="0 0 32 32" fill="none" xmlns="http://www.w3.org/2000/svg">
<g clip-path="url(#clip0_662_3112)">
<path fill-rule="evenodd" clip-rule="evenodd" d="M15.5742 2.43945C8.32 2.43945 2.43933 8.32012 2.43933 15.5743C2.43933 22.8284 8.32 28.7091 15.5742 28.7091C22.8283 28.7091 28.709 22.8284 28.709 15.5743C28.709 8.32012 22.8283 2.43945 15.5742 2.43945Z" fill="#888888" fill-opacity="0.16"/>
<path fill-rule="evenodd" clip-rule="evenodd" d="M12.3472 10.9345C11.9567 10.544 11.3236 10.544 10.933 10.9345C10.5425 11.325 10.5425 11.9582 10.933 12.3487L14.1598 15.5755L10.9332 18.8022C10.5427 19.1927 10.5427 19.8258 10.9332 20.2164C11.3237 20.6069 11.9569 20.6069 12.3474 20.2164L15.5741 16.9897L18.8007 20.2164C19.1912 20.6069 19.8244 20.6069 20.2149 20.2164C20.6054 19.8258 20.6054 19.1927 20.2149 18.8022L16.9883 15.5755L20.2151 12.3487C20.6056 11.9582 20.6056 11.325 20.2151 10.9345C19.8246 10.544 19.1914 10.544 18.8009 10.9345L15.5741 14.1613L12.3472 10.9345Z" fill="#ABB5BA"/>
<path fill-rule="evenodd" clip-rule="evenodd" d="M12.3472 10.9345C11.9567 10.544 11.3236 10.544 10.933 10.9345C10.5425 11.325 10.5425 11.9582 10.933 12.3487L14.1598 15.5755L10.9332 18.8022C10.5427 19.1927 10.5427 19.8258 10.9332 20.2164C11.3237 20.6069 11.9569 20.6069 12.3474 20.2164L15.5741 16.9897L18.8007 20.2164C19.1912 20.6069 19.8244 20.6069 20.2149 20.2164C20.6054 19.8258 20.6054 19.1927 20.2149 18.8022L16.9883 15.5755L20.2151 12.3487C20.6056 11.9582 20.6056 11.325 20.2151 10.9345C19.8246 10.544 19.1914 10.544 18.8009 10.9345L15.5741 14.1613L12.3472 10.9345Z" fill="#9098A1"/>
</g>
<defs>
<clipPath id="clip0_662_3112">
<rect width="32" height="32" fill="white"/>
</clipPath>
</defs>
</svg>
