<svg width="21" height="16" viewBox="0 0 21 16" fill="none" xmlns="http://www.w3.org/2000/svg">
<path d="M12.5897 15.0331C12.323 14.7664 12.195 14.4442 12.2057 14.0664C12.2173 13.6886 12.3564 13.3664 12.623 13.0997L16.3897 9.33307H1.52303C1.14525 9.33307 0.828364 9.20507 0.572364 8.94907C0.317253 8.69396 0.189697 8.37752 0.189697 7.99974C0.189697 7.62196 0.317253 7.30507 0.572364 7.04907C0.828364 6.79396 1.14525 6.66641 1.52303 6.66641H16.3897L12.5897 2.86641C12.323 2.59974 12.1897 2.28285 12.1897 1.91574C12.1897 1.54952 12.323 1.23307 12.5897 0.966406C12.8564 0.699739 13.1733 0.566406 13.5404 0.566406C13.9066 0.566406 14.223 0.699739 14.4897 0.966406L20.5897 7.06641C20.723 7.19974 20.8177 7.34418 20.8737 7.49974C20.9288 7.65529 20.9564 7.82196 20.9564 7.99974C20.9564 8.17752 20.9288 8.34418 20.8737 8.49974C20.8177 8.6553 20.723 8.79974 20.5897 8.93307L14.4564 15.0664C14.2119 15.3109 13.9066 15.4331 13.5404 15.4331C13.1733 15.4331 12.8564 15.2997 12.5897 15.0331Z" fill="#FAFAFA"/>
</svg>
