<svg width="35" height="32" viewBox="0 0 35 32" fill="none" xmlns="http://www.w3.org/2000/svg">
<ellipse opacity="0.16" cx="17.4684" cy="16" rx="16.6947" ry="16" fill="black"/>
<path d="M13.8763 13.3208C14.4094 13.3208 14.7877 13.3911 15.2197 13.5899C15.2859 13.6204 15.3452 13.663 15.3942 13.7154C15.4431 13.7678 15.4809 13.829 15.5052 13.8954C15.5296 13.9617 15.54 14.0321 15.536 14.1023C15.532 14.1726 15.5135 14.2414 15.4818 14.3048C15.45 14.3682 15.4055 14.425 15.3508 14.472C15.2961 14.5189 15.2323 14.5551 15.1631 14.5784C15.0938 14.6017 15.0204 14.6118 14.9471 14.6079C14.8738 14.604 14.802 14.5864 14.7358 14.5559C14.4675 14.4325 14.2529 14.3931 13.8763 14.3931C13.1009 14.3931 12.5312 15.0754 12.5312 15.9977C12.5312 16.9208 13.1018 17.6057 13.8763 17.6057C14.2591 17.6057 14.5838 17.4514 14.7528 17.1762L14.7573 17.1634V16.5342H14.421C14.2872 16.5342 14.1578 16.4882 14.0564 16.4045C13.9549 16.3208 13.8882 16.2051 13.8683 16.0782L13.8629 15.9994C13.8629 15.7302 14.0695 15.5074 14.3396 15.4688L14.4219 15.4637H15.3181C15.5989 15.4637 15.8306 15.6608 15.8708 15.9197L15.8771 15.9994L15.8753 17.3254L15.8699 17.3734L15.8511 17.4505L15.8333 17.4977C15.4961 18.2605 14.7233 18.6771 13.8763 18.6771C12.4221 18.6771 11.4132 17.4659 11.4132 15.9977C11.4132 14.5294 12.4212 13.3208 13.8763 13.3208ZM18.003 13.4254C18.2839 13.4254 18.5164 13.6242 18.5558 13.8822L18.562 13.9611V18.0437C18.5617 18.1787 18.5082 18.3087 18.4122 18.4075C18.3162 18.5064 18.1848 18.5669 18.0443 18.5768C17.9038 18.5868 17.7645 18.5455 17.6544 18.4613C17.5442 18.377 17.4713 18.2561 17.4503 18.1225L17.444 18.0437V13.9611C17.444 13.6654 17.6945 13.4254 18.003 13.4254ZM20.6826 13.4254L22.4687 13.4314C22.6104 13.431 22.7469 13.4822 22.8507 13.5747C22.9545 13.6671 23.0178 13.7938 23.0277 13.9293C23.0377 14.0647 22.9937 14.1987 22.9045 14.3043C22.8154 14.4098 22.6877 14.4789 22.5474 14.4977L22.4651 14.5028L21.2389 14.4985V16.0019H22.2433C22.5242 16.0019 22.7567 16.2008 22.796 16.4597L22.8023 16.5385C22.8023 16.6669 22.7541 16.791 22.6666 16.8882C22.5791 16.9855 22.4581 17.0493 22.3256 17.0682L22.2433 17.0742L21.2389 17.0734V18.0291C21.2391 18.1575 21.1912 18.2817 21.1039 18.3791C21.0165 18.4765 20.8956 18.5406 20.7631 18.5597L20.6808 18.5648C20.5468 18.565 20.4172 18.5191 20.3156 18.4354C20.214 18.3517 20.1471 18.2358 20.1272 18.1088L20.1218 18.0291V13.9594C20.1223 13.8312 20.1708 13.7074 20.2584 13.6105C20.3461 13.5136 20.4671 13.45 20.5994 13.4314L20.6826 13.4254Z" fill="#666666"/>
<path d="M13.8763 13.3208C14.4094 13.3208 14.7877 13.3911 15.2197 13.5899C15.2859 13.6204 15.3452 13.663 15.3942 13.7154C15.4431 13.7678 15.4809 13.829 15.5052 13.8954C15.5296 13.9617 15.54 14.0321 15.536 14.1023C15.532 14.1726 15.5135 14.2414 15.4818 14.3048C15.45 14.3682 15.4055 14.425 15.3508 14.472C15.2961 14.5189 15.2323 14.5551 15.1631 14.5784C15.0938 14.6017 15.0204 14.6118 14.9471 14.6079C14.8738 14.604 14.802 14.5864 14.7358 14.5559C14.4675 14.4325 14.2529 14.3931 13.8763 14.3931C13.1009 14.3931 12.5312 15.0754 12.5312 15.9977C12.5312 16.9208 13.1018 17.6057 13.8763 17.6057C14.2591 17.6057 14.5838 17.4514 14.7528 17.1762L14.7573 17.1634V16.5342H14.421C14.2872 16.5342 14.1578 16.4882 14.0564 16.4045C13.9549 16.3208 13.8882 16.2051 13.8683 16.0782L13.8629 15.9994C13.8629 15.7302 14.0695 15.5074 14.3396 15.4688L14.4219 15.4637H15.3181C15.5989 15.4637 15.8306 15.6608 15.8708 15.9197L15.8771 15.9994L15.8753 17.3254L15.8699 17.3734L15.8511 17.4505L15.8333 17.4977C15.4961 18.2605 14.7233 18.6771 13.8763 18.6771C12.4221 18.6771 11.4132 17.4659 11.4132 15.9977C11.4132 14.5294 12.4212 13.3208 13.8763 13.3208ZM18.003 13.4254C18.2839 13.4254 18.5164 13.6242 18.5558 13.8822L18.562 13.9611V18.0437C18.5617 18.1787 18.5082 18.3087 18.4122 18.4075C18.3162 18.5064 18.1848 18.5669 18.0443 18.5768C17.9038 18.5868 17.7645 18.5455 17.6544 18.4613C17.5442 18.377 17.4713 18.2561 17.4503 18.1225L17.444 18.0437V13.9611C17.444 13.6654 17.6945 13.4254 18.003 13.4254ZM20.6826 13.4254L22.4687 13.4314C22.6104 13.431 22.7469 13.4822 22.8507 13.5747C22.9545 13.6671 23.0178 13.7938 23.0277 13.9293C23.0377 14.0647 22.9937 14.1987 22.9045 14.3043C22.8154 14.4098 22.6877 14.4789 22.5474 14.4977L22.4651 14.5028L21.2389 14.4985V16.0019H22.2433C22.5242 16.0019 22.7567 16.2008 22.796 16.4597L22.8023 16.5385C22.8023 16.6669 22.7541 16.791 22.6666 16.8882C22.5791 16.9855 22.4581 17.0493 22.3256 17.0682L22.2433 17.0742L21.2389 17.0734V18.0291C21.2391 18.1575 21.1912 18.2817 21.1039 18.3791C21.0165 18.4765 20.8956 18.5406 20.7631 18.5597L20.6808 18.5648C20.5468 18.565 20.4172 18.5191 20.3156 18.4354C20.214 18.3517 20.1471 18.2358 20.1272 18.1088L20.1218 18.0291V13.9594C20.1223 13.8312 20.1708 13.7074 20.2584 13.6105C20.3461 13.5136 20.4671 13.45 20.5994 13.4314L20.6826 13.4254Z" fill="#666666"/>
<path d="M23.2579 9.34112C23.6396 9.34112 24.0176 9.40696 24.3703 9.53489C24.723 9.66283 25.0434 9.85034 25.3133 10.0867C25.5832 10.3231 25.7973 10.6038 25.9434 10.9126C26.0895 11.2215 26.1647 11.5525 26.1647 11.8868V20.1137C26.1647 20.448 26.0895 20.779 25.9434 21.0879C25.7973 21.3968 25.5832 21.6774 25.3133 21.9138C25.0434 22.1502 24.723 22.3377 24.3703 22.4656C24.0176 22.5936 23.6396 22.6594 23.2579 22.6594H11.1837C10.4128 22.6594 9.67347 22.3912 9.12835 21.9138C8.58322 21.4364 8.27698 20.7889 8.27698 20.1137V11.886C8.27698 11.2109 8.58322 10.5634 9.12835 10.0859C9.67347 9.60854 10.4128 9.34033 11.1837 9.34033L23.2579 9.34112ZM23.2579 10.5161H11.1837C10.7686 10.5161 10.3705 10.6605 10.077 10.9175C9.78346 11.1746 9.61856 11.5233 9.61856 11.8868V20.1137C9.61856 20.8704 10.3198 21.4845 11.1837 21.4845H23.2579C23.673 21.4845 24.0711 21.34 24.3647 21.083C24.6582 20.8259 24.8231 20.4773 24.8231 20.1137V11.886C24.8231 11.5225 24.6582 11.1738 24.3647 10.9168C24.0711 10.6597 23.673 10.5161 23.2579 10.5161Z" fill="#666666"/>
<path d="M23.2579 9.34112C23.6396 9.34112 24.0176 9.40696 24.3703 9.53489C24.723 9.66283 25.0434 9.85034 25.3133 10.0867C25.5832 10.3231 25.7973 10.6038 25.9434 10.9126C26.0895 11.2215 26.1647 11.5525 26.1647 11.8868V20.1137C26.1647 20.448 26.0895 20.779 25.9434 21.0879C25.7973 21.3968 25.5832 21.6774 25.3133 21.9138C25.0434 22.1502 24.723 22.3377 24.3703 22.4656C24.0176 22.5936 23.6396 22.6594 23.2579 22.6594H11.1837C10.4128 22.6594 9.67347 22.3912 9.12835 21.9138C8.58322 21.4364 8.27698 20.7889 8.27698 20.1137V11.886C8.27698 11.2109 8.58322 10.5634 9.12835 10.0859C9.67347 9.60854 10.4128 9.34033 11.1837 9.34033L23.2579 9.34112ZM23.2579 10.5161H11.1837C10.7686 10.5161 10.3705 10.6605 10.077 10.9175C9.78346 11.1746 9.61856 11.5233 9.61856 11.8868V20.1137C9.61856 20.8704 10.3198 21.4845 11.1837 21.4845H23.2579C23.673 21.4845 24.0711 21.34 24.3647 21.083C24.6582 20.8259 24.8231 20.4773 24.8231 20.1137V11.886C24.8231 11.5225 24.6582 11.1738 24.3647 10.9168C24.0711 10.6597 23.673 10.5161 23.2579 10.5161Z" fill="#666666"/>
</svg>
