<svg width="20" height="20" viewBox="0 0 20 20" fill="none" xmlns="http://www.w3.org/2000/svg">
<g clip-path="url(#clip0_662_3343)">
<path d="M8.75 17.5C8.75 17.5 7.5 17.5 7.5 16.25C7.5 15 8.75 11.25 13.75 11.25C18.75 11.25 20 15 20 16.25C20 17.5 18.75 17.5 18.75 17.5H8.75ZM13.75 10C14.7445 10 15.6984 9.60508 16.4016 8.90156C17.1047 8.19844 17.5 7.24453 17.5 6.25C17.5 5.25547 17.1051 4.30156 16.4016 3.59844C15.6984 2.89492 14.7445 2.5 13.75 2.5C12.7555 2.5 11.8016 2.89492 11.0984 3.59844C10.3953 4.30156 10 5.25547 10 6.25C10 7.24453 10.3949 8.19844 11.0984 8.90156C11.8016 9.60469 12.7555 10 13.75 10Z" fill="#FAFAFA"/>
<path fill-rule="evenodd" clip-rule="evenodd" d="M6.51992 17.4996C6.33477 17.1093 6.24219 16.6816 6.25 16.2496C6.25 14.5558 7.1 12.8121 8.66992 11.5996C7.88633 11.3582 7.06992 11.2398 6.25 11.2496C1.25 11.2496 0 14.9996 0 16.2496C0 17.4996 1.25 17.4996 1.25 17.4996H6.51992Z" fill="#FAFAFA"/>
<path d="M5.625 10C6.45391 10 7.24883 9.6707 7.83477 9.08477C8.4207 8.49883 8.75 7.70391 8.75 6.875C8.75 6.04609 8.4207 5.25117 7.83477 4.66523C7.24883 4.0793 6.45391 3.75 5.625 3.75C4.79609 3.75 4.00117 4.0793 3.41523 4.66523C2.8293 5.25117 2.5 6.04609 2.5 6.875C2.5 7.70391 2.8293 8.49883 3.41523 9.08477C4.00117 9.6707 4.79609 10 5.625 10Z" fill="#FAFAFA"/>
</g>
<defs>
<clipPath id="clip0_662_3343">
<rect width="20" height="15" fill="white" transform="translate(0 2.5)"/>
</clipPath>
</defs>
</svg>
