<svg width="20" height="21" viewBox="0 0 20 21" fill="none" xmlns="http://www.w3.org/2000/svg">
<path d="M3.25775 10.038L3.25756 10.0374C2.3126 7.25408 4.00622 5.00388 5.85136 4.43919C7.71898 3.86762 9.00291 4.46442 9.61016 5.19213C9.70515 5.30597 9.84577 5.37178 9.99404 5.37178C10.1423 5.37179 10.2829 5.30598 10.3779 5.19215C10.9852 4.46445 12.2691 3.87006 14.1288 4.43919C16.102 5.04307 17.6781 7.24638 16.7297 10.0373L16.7285 10.041C16.1127 11.9012 14.583 13.5908 13.0684 14.8323C12.3173 15.448 11.5858 15.9405 11.0021 16.2765C10.7098 16.4447 10.4605 16.5703 10.2689 16.6521C10.1729 16.693 10.0974 16.7204 10.0422 16.7367C10.0193 16.7435 10.0034 16.7474 9.99363 16.7495C9.98387 16.7474 9.96796 16.7436 9.94499 16.7369C9.89005 16.7208 9.81499 16.6938 9.71959 16.6534C9.5292 16.5728 9.28162 16.4489 8.99113 16.2825C8.41112 15.9503 7.68391 15.4623 6.93565 14.8496C5.42774 13.615 3.89573 11.9243 3.25775 10.038Z" stroke="#9098a1" stroke-linecap="round" stroke-linejoin="round"/>
</svg>
