<svg width="685" height="152" viewBox="0 0 685 152" fill="none" xmlns="http://www.w3.org/2000/svg">
<path d="M42.8891 0.306152V57.2752H101.374V0.306152H144.264V151.935H101.374V92.7996H42.8891V151.935H-0.00012207V0.306152H42.8891Z" fill="url(#paint0_linear_679_19317)"/>
<path d="M42.8891 0.306152V57.2752H101.374V0.306152H144.264V151.935H101.374V92.7996H42.8891V151.935H-0.00012207V0.306152H42.8891Z" fill="url(#paint1_linear_679_19317)"/>
<path fill-rule="evenodd" clip-rule="evenodd" d="M267.337 2.25855C299.358 5.7499 326.502 29.0932 331.438 60.9232C332.268 66.2707 332.77 71.734 332.77 77.1214C332.77 108.374 312.725 135.869 283.076 146.487C283.076 146.487 272.243 151.804 252.94 151.935C210.023 149.201 193.851 126.041 193.851 126.041C167.064 100.895 166.041 49.6687 166.041 49.6687V36.7874C165.982 31.7509 165.096 15.6472 155.148 0.444311C155.148 0.444311 194.954 -0.0342283 243.092 0.789913C251.334 0.914261 259.391 1.39213 267.337 2.25855ZM251.174 111.63C264.633 113.5 287.976 102.786 287.976 76.2066C287.976 56.4332 271.499 40.4037 251.174 40.4037H210.042C210.042 40.4037 211.277 52.675 212.219 68.1449C213.655 91.7436 231.197 108.855 251.174 111.63Z" fill="url(#paint2_linear_679_19317)"/>
<path fill-rule="evenodd" clip-rule="evenodd" d="M267.337 2.25855C299.358 5.7499 326.502 29.0932 331.438 60.9232C332.268 66.2707 332.77 71.734 332.77 77.1214C332.77 108.374 312.725 135.869 283.076 146.487C283.076 146.487 272.243 151.804 252.94 151.935C210.023 149.201 193.851 126.041 193.851 126.041C167.064 100.895 166.041 49.6687 166.041 49.6687V36.7874C165.982 31.7509 165.096 15.6472 155.148 0.444311C155.148 0.444311 194.954 -0.0342283 243.092 0.789913C251.334 0.914261 259.391 1.39213 267.337 2.25855ZM251.174 111.63C264.633 113.5 287.976 102.786 287.976 76.2066C287.976 56.4332 271.499 40.4037 251.174 40.4037H210.042C210.042 40.4037 211.277 52.675 212.219 68.1449C213.655 91.7436 231.197 108.855 251.174 111.63Z" fill="url(#paint3_linear_679_19317)"/>
<path fill-rule="evenodd" clip-rule="evenodd" d="M404.581 2.25855C372.56 5.7499 345.416 29.0932 340.48 60.9232C339.65 66.2707 339.147 71.734 339.147 77.1214C339.147 108.374 359.193 135.869 388.842 146.487C388.842 146.487 399.675 151.804 418.978 151.935C461.895 149.201 478.067 126.041 478.067 126.041C504.854 100.895 505.877 49.6687 505.877 49.6687V36.7874C505.936 31.7509 506.822 15.6472 516.77 0.444311C516.77 0.444311 476.964 -0.0342283 428.826 0.789913C420.584 0.914261 412.527 1.39213 404.581 2.25855ZM420.744 111.63C407.285 113.5 383.942 102.786 383.942 76.2066C383.942 56.4332 400.419 40.4037 420.744 40.4037H461.876C461.876 40.4037 460.641 52.675 459.699 68.1449C458.263 91.7436 440.721 108.855 420.744 111.63Z" fill="url(#paint4_linear_679_19317)"/>
<path fill-rule="evenodd" clip-rule="evenodd" d="M404.581 2.25855C372.56 5.7499 345.416 29.0932 340.48 60.9232C339.65 66.2707 339.147 71.734 339.147 77.1214C339.147 108.374 359.193 135.869 388.842 146.487C388.842 146.487 399.675 151.804 418.978 151.935C461.895 149.201 478.067 126.041 478.067 126.041C504.854 100.895 505.877 49.6687 505.877 49.6687V36.7874C505.936 31.7509 506.822 15.6472 516.77 0.444311C516.77 0.444311 476.964 -0.0342283 428.826 0.789913C420.584 0.914261 412.527 1.39213 404.581 2.25855ZM420.744 111.63C407.285 113.5 383.942 102.786 383.942 76.2066C383.942 56.4332 400.419 40.4037 420.744 40.4037H461.876C461.876 40.4037 460.641 52.675 459.699 68.1449C458.263 91.7436 440.721 108.855 420.744 111.63Z" fill="url(#paint5_linear_679_19317)"/>
<path d="M527.652 151.935H599.351C649.605 151.935 684.046 122.692 684.046 76.1204C684.046 29.5488 649.605 0.306152 599.351 0.306152H527.652V151.935ZM570.542 117.71V34.5309H597.618C623.395 34.5309 640.724 49.9104 640.724 76.1204C640.724 102.331 623.395 117.71 597.618 117.71H570.542Z" fill="url(#paint6_linear_679_19317)"/>
<path d="M527.652 151.935H599.351C649.605 151.935 684.046 122.692 684.046 76.1204C684.046 29.5488 649.605 0.306152 599.351 0.306152H527.652V151.935ZM570.542 117.71V34.5309H597.618C623.395 34.5309 640.724 49.9104 640.724 76.1204C640.724 102.331 623.395 117.71 597.618 117.71H570.542Z" fill="url(#paint7_linear_679_19317)"/>
<defs>
<linearGradient id="paint0_linear_679_19317" x1="239.302" y1="-90.9079" x2="-41.2188" y2="-62.5808" gradientUnits="userSpaceOnUse">
<stop stop-color="#F8955D"/>
<stop offset="1" stop-color="#A8351B"/>
</linearGradient>
<linearGradient id="paint1_linear_679_19317" x1="123.863" y1="20.9828" x2="12.229" y2="35.223" gradientUnits="userSpaceOnUse">
<stop stop-color="#D3683F"/>
<stop offset="1" stop-color="#B64527"/>
</linearGradient>
<linearGradient id="paint2_linear_679_19317" x1="38.1339" y1="-90.9079" x2="381.731" y2="-48.1885" gradientUnits="userSpaceOnUse">
<stop stop-color="#F8955D"/>
<stop offset="1" stop-color="#A8351B"/>
</linearGradient>
<linearGradient id="paint3_linear_679_19317" x1="180.267" y1="20.9828" x2="316.588" y2="42.3931" gradientUnits="userSpaceOnUse">
<stop stop-color="#D3683F"/>
<stop offset="1" stop-color="#B64527"/>
</linearGradient>
<linearGradient id="paint4_linear_679_19317" x1="633.784" y1="-90.9079" x2="290.187" y2="-48.1885" gradientUnits="userSpaceOnUse">
<stop stop-color="#F8955D"/>
<stop offset="1" stop-color="#A8351B"/>
</linearGradient>
<linearGradient id="paint5_linear_679_19317" x1="491.651" y1="20.9828" x2="355.33" y2="42.3931" gradientUnits="userSpaceOnUse">
<stop stop-color="#D3683F"/>
<stop offset="1" stop-color="#B64527"/>
</linearGradient>
<linearGradient id="paint6_linear_679_19317" x1="424.622" y1="-90.9079" x2="728.194" y2="-57.6756" gradientUnits="userSpaceOnUse">
<stop stop-color="#F8955D"/>
<stop offset="1" stop-color="#A8351B"/>
</linearGradient>
<linearGradient id="paint7_linear_679_19317" x1="549.769" y1="20.9828" x2="670.45" y2="37.6717" gradientUnits="userSpaceOnUse">
<stop stop-color="#D3683F"/>
<stop offset="1" stop-color="#B64527"/>
</linearGradient>
</defs>
</svg>
