<svg width="33" height="32" viewBox="0 0 33 32" fill="none" xmlns="http://www.w3.org/2000/svg">
<ellipse opacity="0.16" cx="16.4874" cy="16.0005" rx="16" ry="16" fill="black"/>
<path d="M8.77466 20.2852V11.7138C8.77466 10.767 9.54218 9.99951 10.489 9.99951H14.7748H22.4893C23.4361 9.99951 24.2036 10.767 24.2036 11.7138V20.2852C24.2036 21.232 23.4361 21.9995 22.4893 21.9995H10.489C9.54218 21.9995 8.77466 21.232 8.77466 20.2852Z" stroke="#666666" stroke-width="1.28573" stroke-linecap="round" stroke-linejoin="round"/>
<path d="M8.77466 20.2852V11.7138C8.77466 10.767 9.54218 9.99951 10.489 9.99951H14.7748H22.4893C23.4361 9.99951 24.2036 10.767 24.2036 11.7138V20.2852C24.2036 21.232 23.4361 21.9995 22.4893 21.9995H10.489C9.54218 21.9995 8.77466 21.232 8.77466 20.2852Z" stroke="#666666" stroke-width="1.28573" stroke-linecap="round" stroke-linejoin="round"/>
<rect x="20.424" y="12.623" width="0.00777778" height="0.00777778" stroke="#666666" stroke-width="1.88574" stroke-linejoin="round"/>
<rect x="20.424" y="12.623" width="0.00777778" height="0.00777778" stroke="#666666" stroke-width="1.88574" stroke-linejoin="round"/>
<path d="M8.79944 18.1828L12.3509 14.7643C12.6566 14.4701 13.1315 14.4437 13.4678 14.7024L17.9201 18.1257M22.6838 21.999L17.9201 18.1257M24.1194 18.8109L20.8059 16.4444C20.4797 16.2114 20.0356 16.2357 19.7367 16.5027L17.9201 18.1257" stroke="#666666" stroke-width="1.28573"/>
</svg>
