<svg width="24" height="18" viewBox="0 0 24 18" fill="none" xmlns="http://www.w3.org/2000/svg">
<g clip-path="url(#clip0_16000_86792)">
<path d="M1.31055 0.652344H22.6895C23.4121 0.65625 24 1.24805 24 1.9707V16.0293C24 16.7539 23.4062 17.3477 22.6816 17.3477H1.31055C0.589844 17.3438 0 16.752 0 16.0293V1.9707C0 1.24805 0.587891 0.65625 1.31055 0.652344Z" fill="#FF9933"/>
<path d="M0 6.2168H24V11.7832H0V6.2168Z" fill="white"/>
<path d="M0 11.7832H24V16.0293C24 16.7539 23.4062 17.3477 22.6816 17.3477H1.31055C0.589844 17.3438 0 16.752 0 16.0293V11.7832Z" fill="#128807"/>
<path d="M14.2266 9C14.2266 7.76953 13.2305 6.77344 12 6.77344C10.7695 6.77344 9.77344 7.76953 9.77344 9C9.77344 10.2285 10.7695 11.2266 12 11.2266C13.2305 11.2266 14.2266 10.2305 14.2266 9Z" fill="#000088"/>
<path d="M13.9473 9C13.9473 7.92383 13.0762 7.05273 12 7.05273C10.9238 7.05273 10.0527 7.92383 10.0527 9C10.0527 10.0762 10.9238 10.9473 12 10.9473C13.0762 10.9473 13.9473 10.0762 13.9473 9Z" fill="white"/>
<path d="M12.3887 9C12.3887 8.78516 12.2148 8.60938 12 8.60938C11.7852 8.60938 11.6113 8.7832 11.6113 9C11.6113 9.21484 11.7852 9.38867 12 9.38867C12.2148 9.38867 12.3887 9.21484 12.3887 9Z" fill="#000088"/>
<path d="M14.0273 9.26758C14.0352 9.21485 13.9961 9.16602 13.9434 9.15821C13.8906 9.1504 13.8418 9.18946 13.834 9.24219C13.8262 9.29493 13.8652 9.34376 13.918 9.35157C13.9727 9.35743 14.0215 9.32032 14.0273 9.26758Z" fill="#000088"/>
<path d="M12 10.9473L12.0664 9.7793L12 9.22266L11.9336 9.7793L12 10.9473Z" fill="#000088"/>
<path d="M13.8887 9.78321C13.9102 9.73438 13.8848 9.67579 13.8359 9.65625C13.7871 9.63477 13.7285 9.66016 13.709 9.70899C13.6875 9.75782 13.7129 9.81641 13.7617 9.83594C13.8125 9.85547 13.8691 9.83204 13.8887 9.78321Z" fill="#000088"/>
<path d="M11.4961 10.8809L11.8633 9.76953L11.9434 9.21484L11.7344 9.73633L11.4961 10.8809Z" fill="#000088"/>
<path d="M13.623 10.2461C13.6562 10.2031 13.6484 10.1426 13.6055 10.1094C13.5625 10.0762 13.5019 10.084 13.4687 10.1269C13.4355 10.1699 13.4434 10.2305 13.4863 10.2637C13.5293 10.2969 13.5898 10.2871 13.623 10.2461Z" fill="#000088"/>
<path d="M11.0254 10.6875L11.668 9.70898L11.8887 9.19336L11.5527 9.64063L11.0254 10.6875Z" fill="#000088"/>
<path d="M13.2441 10.623C13.2871 10.5898 13.2949 10.5293 13.2617 10.4863C13.2285 10.4434 13.168 10.4355 13.125 10.4687C13.082 10.5019 13.0742 10.5625 13.1074 10.6055C13.1406 10.6465 13.2031 10.6562 13.2441 10.623Z" fill="#000088"/>
<path d="M10.623 10.377L11.4961 9.59766L11.8418 9.1582L11.4023 9.50391L10.623 10.377Z" fill="#000088"/>
<path d="M12.7832 10.8906C12.832 10.8691 12.8574 10.8125 12.8359 10.7637C12.8145 10.7148 12.7578 10.6895 12.709 10.7109C12.6602 10.7305 12.6348 10.7891 12.6563 10.8379C12.6758 10.8867 12.7324 10.9102 12.7832 10.8906Z" fill="#000088"/>
<path d="M10.3125 9.97461L11.3594 9.44727L11.8066 9.11133L11.291 9.33203L10.3125 9.97461Z" fill="#000088"/>
<path d="M12.2676 11.0273C12.3203 11.0195 12.3574 10.9707 12.3516 10.918C12.3437 10.8652 12.2949 10.8281 12.2422 10.834C12.1895 10.8418 12.1523 10.8906 12.1582 10.9434C12.1641 10.998 12.2129 11.0352 12.2676 11.0273Z" fill="#000088"/>
<path d="M10.1191 9.50391L11.2656 9.26562L11.7852 9.05859L11.2305 9.13672L10.1191 9.50391Z" fill="#000088"/>
<path d="M11.7324 11.0273C11.7852 11.0352 11.834 10.9961 11.8418 10.9434C11.8496 10.8906 11.8105 10.8418 11.7578 10.834C11.7051 10.8262 11.6562 10.8652 11.6484 10.918C11.6426 10.9727 11.6797 11.0215 11.7324 11.0273Z" fill="#000088"/>
<path d="M10.0527 9L11.2207 9.06641L11.7773 9L11.2207 8.93359L10.0527 9Z" fill="#000088"/>
<path d="M11.2168 10.8906C11.2656 10.9121 11.3242 10.8867 11.3437 10.8379C11.3633 10.7891 11.3398 10.7305 11.291 10.7109C11.2422 10.6895 11.1836 10.7148 11.1641 10.7637C11.1445 10.8125 11.168 10.8691 11.2168 10.8906Z" fill="#000088"/>
<path d="M10.1191 8.49609L11.2305 8.86328L11.7852 8.94336L11.2656 8.73438L10.1191 8.49609Z" fill="#000088"/>
<path d="M10.7539 10.623C10.7969 10.6562 10.8574 10.6484 10.8906 10.6055C10.9238 10.5625 10.916 10.5019 10.8731 10.4687C10.8301 10.4355 10.7695 10.4434 10.7363 10.4863C10.7051 10.5293 10.7129 10.5898 10.7539 10.623Z" fill="#000088"/>
<path d="M10.3125 8.02539L11.291 8.66797L11.8066 8.88867L11.3594 8.55273L10.3125 8.02539Z" fill="#000088"/>
<path d="M10.377 10.2461C10.4102 10.2891 10.4707 10.2969 10.5137 10.2637C10.5566 10.2305 10.5645 10.1699 10.5313 10.1269C10.4981 10.084 10.4375 10.0762 10.3945 10.1094C10.3535 10.1406 10.3438 10.2031 10.377 10.2461Z" fill="#000088"/>
<path d="M10.623 7.62305L11.4023 8.49609L11.8418 8.84375L11.4961 8.40234L10.623 7.62305Z" fill="#000088"/>
<path d="M10.1094 9.78321C10.1309 9.83204 10.1875 9.85743 10.2363 9.83594C10.2852 9.81446 10.3105 9.75782 10.2891 9.70899C10.2676 9.66016 10.2109 9.63477 10.1621 9.65625C10.1133 9.67579 10.0898 9.73243 10.1094 9.78321Z" fill="#000088"/>
<path d="M11.0254 7.3125L11.5527 8.35938L11.8887 8.80664L11.668 8.29297L11.0254 7.3125Z" fill="#000088"/>
<path d="M9.97266 9.26758C9.98047 9.32031 10.0293 9.35742 10.082 9.35156C10.1348 9.34375 10.1719 9.29492 10.166 9.24219C10.1582 9.18945 10.1094 9.15234 10.0566 9.1582C10.002 9.16406 9.96484 9.21289 9.97266 9.26758Z" fill="#000088"/>
<path d="M11.4961 7.11914L11.7344 8.26562L11.9434 8.78516L11.8633 8.23047L11.4961 7.11914Z" fill="#000088"/>
<path d="M9.97266 8.73242C9.96485 8.78515 10.0039 8.83398 10.0566 8.8418C10.1094 8.84961 10.1582 8.81055 10.166 8.75781C10.1738 8.70508 10.1348 8.65625 10.082 8.64844C10.0273 8.64258 9.97852 8.67969 9.97266 8.73242Z" fill="#000088"/>
<path d="M12 7.05273L11.9336 8.2207L12 8.77734L12.0664 8.2207L12 7.05273Z" fill="#000088"/>
<path d="M10.1113 8.2168C10.0898 8.26562 10.1152 8.32422 10.1641 8.34375C10.2129 8.36328 10.2715 8.33984 10.291 8.29101C10.3125 8.24219 10.2871 8.18359 10.2383 8.16406C10.1875 8.14453 10.1309 8.16797 10.1113 8.2168Z" fill="#000088"/>
<path d="M12.5039 7.11914L12.1367 8.23047L12.0566 8.78516L12.2656 8.26562L12.5039 7.11914Z" fill="#000088"/>
<path d="M10.3769 7.75586C10.3437 7.79882 10.3516 7.85937 10.3945 7.89257C10.4375 7.92578 10.498 7.91797 10.5312 7.875C10.5644 7.83203 10.5566 7.77148 10.5137 7.73828C10.4707 7.70507 10.4102 7.71289 10.3769 7.75586Z" fill="#000088"/>
<path d="M12.9746 7.3125L12.332 8.29297L12.1113 8.80664L12.4473 8.35938L12.9746 7.3125Z" fill="#000088"/>
<path d="M10.7559 7.37696C10.7129 7.41016 10.7051 7.47071 10.7383 7.51368C10.7715 7.55665 10.832 7.56446 10.875 7.53126C10.918 7.49805 10.9258 7.43751 10.8926 7.39454C10.8594 7.35157 10.7969 7.34571 10.7559 7.37696Z" fill="#000088"/>
<path d="M13.377 7.62305L12.5039 8.40234L12.1582 8.84375L12.5977 8.49609L13.377 7.62305Z" fill="#000088"/>
<path d="M11.2168 7.11133C11.168 7.13281 11.1445 7.18945 11.1641 7.23828C11.1855 7.28711 11.2422 7.3125 11.291 7.29102C11.3398 7.26953 11.3652 7.21289 11.3437 7.16406C11.3242 7.11328 11.2676 7.08984 11.2168 7.11133Z" fill="#000088"/>
<path d="M13.6875 8.02539L12.6406 8.55273L12.1934 8.88867L12.709 8.66797L13.6875 8.02539Z" fill="#000088"/>
<path d="M11.7324 6.97266C11.6797 6.98047 11.6426 7.0293 11.6484 7.08204C11.6562 7.13477 11.7051 7.17188 11.7578 7.16602C11.8105 7.15821 11.8496 7.10938 11.8418 7.05665C11.8359 7.00391 11.7871 6.96485 11.7324 6.97266Z" fill="#000088"/>
<path d="M13.8809 8.49609L12.7344 8.73438L12.2148 8.94336L12.7695 8.86328L13.8809 8.49609Z" fill="#000088"/>
<path d="M12.2676 6.97266C12.2148 6.96485 12.166 7.00391 12.1582 7.05665C12.1504 7.10938 12.1895 7.15821 12.2422 7.16602C12.2949 7.17383 12.3438 7.13477 12.3516 7.08204C12.3574 7.0293 12.3203 6.97852 12.2676 6.97266Z" fill="#000088"/>
<path d="M13.9473 9L12.7793 8.93359L12.2227 9L12.7793 9.06641L13.9473 9Z" fill="#000088"/>
<path d="M12.7832 7.11133C12.7344 7.08985 12.6758 7.11524 12.6563 7.16407C12.6348 7.2129 12.6602 7.27149 12.709 7.29102C12.7578 7.31055 12.8164 7.28711 12.8359 7.23829C12.8555 7.1875 12.832 7.13086 12.7832 7.11133Z" fill="#000088"/>
<path d="M13.8809 9.50391L12.7695 9.13672L12.2148 9.05859L12.7344 9.26562L13.8809 9.50391Z" fill="#000088"/>
<path d="M13.2441 7.37695C13.2012 7.34375 13.1406 7.35156 13.1074 7.39453C13.0742 7.4375 13.082 7.49804 13.125 7.53125C13.168 7.56445 13.2285 7.55664 13.2617 7.51367C13.2949 7.4707 13.2871 7.41015 13.2441 7.37695Z" fill="#000088"/>
<path d="M13.6875 9.97461L12.709 9.33203L12.1934 9.11133L12.6406 9.44727L13.6875 9.97461Z" fill="#000088"/>
<path d="M13.623 7.75586C13.5898 7.71289 13.5293 7.70507 13.4863 7.73828C13.4434 7.77148 13.4355 7.83203 13.4687 7.875C13.5019 7.91797 13.5625 7.92578 13.6055 7.89257C13.6465 7.85937 13.6562 7.79687 13.623 7.75586Z" fill="#000088"/>
<path d="M13.377 10.377L12.5977 9.50391L12.1582 9.1582L12.5039 9.59766L13.377 10.377Z" fill="#000088"/>
<path d="M13.8906 8.2168C13.8691 8.16797 13.8125 8.14258 13.7637 8.16407C13.7148 8.18555 13.6895 8.24219 13.7109 8.29102C13.7324 8.33985 13.7891 8.36329 13.8379 8.34375C13.8867 8.32422 13.9102 8.26758 13.8906 8.2168Z" fill="#000088"/>
<path d="M12.9746 10.6875L12.4473 9.64063L12.1113 9.19336L12.332 9.70898L12.9746 10.6875Z" fill="#000088"/>
<path d="M14.0273 8.73242C14.0195 8.67969 13.9707 8.64258 13.918 8.64844C13.8652 8.65625 13.8281 8.70508 13.834 8.75781C13.8418 8.81055 13.8906 8.84765 13.9434 8.8418C13.998 8.83594 14.0352 8.78711 14.0273 8.73242Z" fill="#000088"/>
<path d="M12.5039 10.8809L12.2656 9.73633L12.0566 9.21484L12.1367 9.76953L12.5039 10.8809Z" fill="#000088"/>
</g>
<defs>
<clipPath id="clip0_16000_86792">
<rect width="24" height="16.6953" fill="white" transform="translate(0 0.652344)"/>
</clipPath>
</defs>
</svg>
