<?xml version="1.0" encoding="utf-8"?>
<!-- Generator: Adobe Illustrator 28.0.0, SVG Export Plug-In . SVG Version: 6.00 Build 0)  -->
<svg version="1.1" id="Layer_1" xmlns="http://www.w3.org/2000/svg" xmlns:xlink="http://www.w3.org/1999/xlink" x="0px" y="0px"
	 viewBox="0 0 24 25" style="enable-background:new 0 0 24 25;" xml:space="preserve">
<style type="text/css">
	.st0{fill:#FAFAFA;}
</style>
<g>
	<g>
		<path class="st0" d="M6.2,6c0,0.2-0.1,0.4-0.2,0.5L6.2,6z M6.1,6.6L6.1,6.6C6.2,6.4,6.3,6.2,6.3,6c0-0.2-0.1-0.4-0.2-0.6l0,0
			C5.9,5.2,5.7,5.1,5.5,5.1C5.2,5.1,5,5.2,4.9,5.4l0,0c-3.9,3.9-3.9,10.3,0,14.3l0,0c0.2,0.2,0.4,0.2,0.6,0.2c0.2,0,0.4-0.1,0.6-0.2
			c0.2-0.2,0.2-0.4,0.2-0.6c0-0.2-0.1-0.4-0.2-0.6h0l0,0c-0.8-0.8-1.4-1.7-1.8-2.7c-0.4-1-0.6-2.1-0.6-3.2s0.2-2.2,0.6-3.2
			C4.7,8.3,5.3,7.4,6.1,6.6z M19.1,19.7L19.1,19.7L19.1,19.7c3.9-3.9,3.9-10.3,0-14.3c-0.1-0.1-0.2-0.1-0.3-0.2
			c-0.1,0-0.2-0.1-0.3-0.1c-0.1,0-0.2,0-0.3,0.1c-0.1,0-0.2,0.1-0.3,0.2c-0.1,0.1-0.1,0.2-0.2,0.3c0,0.1-0.1,0.2-0.1,0.3
			c0,0.1,0,0.2,0.1,0.3c0,0.1,0.1,0.2,0.2,0.3c0.8,0.8,1.4,1.7,1.8,2.7c0.4,1,0.6,2.1,0.6,3.2c0,1.1-0.2,2.2-0.6,3.2
			c-0.4,1-1,1.9-1.8,2.7l0,0l0,0c-0.2,0.2-0.2,0.4-0.2,0.6c0,0.2,0.1,0.4,0.2,0.6c0.2,0.2,0.4,0.2,0.6,0.2
			C18.8,19.9,19,19.8,19.1,19.7z M8.9,8.2L8.9,8.2C8.7,8,8.5,8,8.3,8C8.1,8,7.8,8,7.7,8.2l0,0c-1.1,1.1-1.8,2.7-1.8,4.3
			c0,1.6,0.6,3.2,1.8,4.3l0,0l0,0c0.2,0.2,0.4,0.2,0.6,0.2c0.2,0,0.4-0.1,0.6-0.2c0.2-0.2,0.2-0.4,0.2-0.6c0-0.2-0.1-0.4-0.2-0.6
			l0,0l0,0c-0.4-0.4-0.7-0.9-1-1.4c-0.2-0.5-0.3-1.1-0.3-1.7c0-0.6,0.1-1.2,0.3-1.7c0.2-0.5,0.5-1,1-1.4l0,0C9,9.2,9.1,9,9.1,8.8
			S9,8.4,8.9,8.2z M16.3,8.2C16.3,8.2,16.3,8.2,16.3,8.2C16.1,8,15.9,8,15.7,8c-0.2,0-0.4,0.1-0.6,0.2c-0.2,0.2-0.2,0.4-0.2,0.6
			c0,0.2,0.1,0.4,0.2,0.6l0,0l0,0c0.4,0.4,0.7,0.9,1,1.4c0.2,0.5,0.3,1.1,0.3,1.7s-0.1,1.1-0.3,1.7c-0.2,0.5-0.5,1-1,1.4
			c-0.1,0.1-0.1,0.2-0.2,0.3c0,0.1-0.1,0.2-0.1,0.3c0,0.1,0,0.2,0.1,0.3c0,0.1,0.1,0.2,0.2,0.3c0.1,0.1,0.2,0.1,0.3,0.2
			c0.1,0,0.2,0.1,0.3,0.1c0.1,0,0.2,0,0.3-0.1c0.1,0,0.2-0.1,0.3-0.2c1.1-1.1,1.8-2.7,1.8-4.3C18.1,10.9,17.6,9.3,16.3,8.2z
			 M13.1,11.4c-0.3-0.3-0.7-0.5-1.1-0.5c-0.4,0-0.8,0.2-1.1,0.5c-0.3,0.3-0.5,0.7-0.5,1.1c0,0.4,0.2,0.8,0.5,1.1
			c0.3,0.3,0.7,0.5,1.1,0.5c0.4,0,0.8-0.2,1.1-0.5c0.3-0.3,0.5-0.7,0.5-1.1C13.6,12.1,13.4,11.7,13.1,11.4z"/>
		<path class="st0" d="M5.4,20c-0.2,0-0.5-0.1-0.7-0.3c-4-4-4-10.4,0-14.4C5,5.1,5.2,5,5.5,5C5.7,5,6,5.1,6.1,5.3
			C6.3,5.5,6.4,5.7,6.4,6c0,0.3-0.1,0.5-0.3,0.7l0,0C5.4,7.4,4.8,8.3,4.3,9.3c-0.4,1-0.6,2.1-0.6,3.2c0,1.1,0.2,2.2,0.6,3.2
			c0.4,1,1,1.9,1.8,2.7c0.2,0.2,0.3,0.4,0.3,0.7c0,0.3-0.1,0.5-0.3,0.7C5.9,19.9,5.7,20,5.4,20C5.5,20,5.5,20,5.4,20z M5.5,5.2
			c-0.2,0-0.4,0.1-0.5,0.2C1,9.3,1,15.7,4.9,19.6c0.1,0.1,0.3,0.2,0.5,0.2c0,0,0,0,0,0c0.2,0,0.4-0.1,0.5-0.2
			c0.1-0.1,0.2-0.3,0.2-0.5c0-0.2-0.1-0.4-0.2-0.5c-0.8-0.8-1.4-1.7-1.8-2.8c-0.4-1-0.6-2.1-0.6-3.3c0-1.1,0.2-2.2,0.6-3.3
			c0.4-1,1-2,1.8-2.7L5.9,6.5l0.2-0.5l0.1,0c0-0.2-0.1-0.4-0.2-0.5C5.9,5.3,5.7,5.2,5.5,5.2z M18.6,20C18.6,20,18.5,20,18.6,20
			c-0.3,0-0.5-0.1-0.7-0.3c-0.2-0.2-0.3-0.4-0.3-0.7c0-0.2,0.1-0.5,0.3-0.7l0,0c0.8-0.8,1.4-1.7,1.8-2.7c0.4-1,0.6-2.1,0.6-3.2
			s-0.2-2.2-0.6-3.2c-0.4-1-1-1.9-1.8-2.7c-0.1-0.1-0.2-0.2-0.2-0.3c-0.1-0.1-0.1-0.2-0.1-0.4c0-0.1,0-0.3,0.1-0.4
			c0-0.1,0.1-0.2,0.2-0.3c0.1-0.1,0.2-0.2,0.3-0.2C18.3,5,18.4,5,18.5,5c0,0,0,0,0,0c0.1,0,0.3,0,0.4,0.1c0.1,0.1,0.2,0.1,0.3,0.2
			c4,4,4,10.4,0,14.4l0,0C19,19.9,18.8,20,18.6,20z M18.5,5.2c-0.1,0-0.2,0-0.3,0.1c-0.1,0-0.2,0.1-0.2,0.2
			c-0.1,0.1-0.1,0.2-0.2,0.2c0,0.1-0.1,0.2-0.1,0.3c0,0.1,0,0.2,0.1,0.3c0,0.1,0.1,0.2,0.2,0.2c0.8,0.8,1.4,1.7,1.8,2.8
			c0.4,1,0.6,2.1,0.6,3.3s-0.2,2.2-0.6,3.3c-0.4,1-1.1,2-1.8,2.8c-0.1,0.1-0.2,0.3-0.2,0.5c0,0.2,0.1,0.4,0.2,0.5
			c0.1,0.1,0.3,0.2,0.5,0.2c0,0,0,0,0,0c0.2,0,0.4-0.1,0.5-0.2l0,0c3.9-3.9,3.9-10.2,0-14.1c-0.1-0.1-0.2-0.1-0.2-0.2
			C18.7,5.2,18.6,5.2,18.5,5.2C18.5,5.2,18.5,5.2,18.5,5.2z M15.7,17.2c-0.1,0-0.2,0-0.4-0.1c-0.1,0-0.2-0.1-0.3-0.2
			c-0.1-0.1-0.2-0.2-0.2-0.3c0-0.1-0.1-0.2-0.1-0.4c0-0.1,0-0.3,0.1-0.4c0.1-0.1,0.1-0.2,0.2-0.3c0.4-0.4,0.7-0.9,0.9-1.4
			c0.2-0.5,0.3-1.1,0.3-1.6c0-0.6-0.1-1.1-0.3-1.6c-0.2-0.5-0.5-1-0.9-1.4c-0.2-0.2-0.3-0.4-0.3-0.7c0-0.2,0.1-0.5,0.3-0.7
			c0.2-0.2,0.4-0.3,0.7-0.3c0.2,0,0.5,0.1,0.7,0.2l0,0c1.2,1.1,1.8,2.6,1.8,4.4c0,1.7-0.6,3.2-1.8,4.4c-0.1,0.1-0.2,0.2-0.3,0.2
			C16,17.2,15.8,17.2,15.7,17.2z M15.7,8.1C15.7,8.1,15.7,8.1,15.7,8.1c-0.2,0-0.4,0.1-0.5,0.2C15.1,8.4,15,8.6,15,8.8
			C15,9,15,9.2,15.2,9.3c0.4,0.4,0.7,0.9,1,1.5c0.2,0.5,0.3,1.1,0.3,1.7c0,0.6-0.1,1.2-0.3,1.7c-0.2,0.6-0.6,1-1,1.5
			c-0.1,0.1-0.1,0.2-0.2,0.2c0,0.1-0.1,0.2-0.1,0.3c0,0.1,0,0.2,0.1,0.3c0,0.1,0.1,0.2,0.2,0.2s0.2,0.1,0.2,0.2
			c0.1,0,0.2,0.1,0.3,0.1c0.1,0,0.2,0,0.3-0.1c0.1,0,0.2-0.1,0.2-0.2c1.1-1.1,1.8-2.6,1.8-4.2c0-1.7-0.6-3.2-1.8-4.2l0,0
			C16.1,8.1,15.9,8.1,15.7,8.1z M8.3,17.2c-0.2,0-0.5-0.1-0.6-0.3c-1.2-1.2-1.8-2.7-1.8-4.4c0-1.7,0.6-3.2,1.8-4.4
			C7.8,8,8,7.9,8.3,7.9S8.8,8,9,8.1l0,0c0.2,0.2,0.3,0.4,0.3,0.7S9.1,9.3,9,9.5C8.6,9.9,8.2,10.3,8,10.9c-0.2,0.5-0.3,1.1-0.3,1.6
			s0.1,1.1,0.3,1.6c0.2,0.5,0.5,1,0.9,1.4c0.2,0.2,0.3,0.4,0.3,0.7s-0.1,0.5-0.3,0.7S8.5,17.2,8.3,17.2C8.3,17.2,8.3,17.2,8.3,17.2z
			 M8.3,8.1c-0.2,0-0.4,0.1-0.5,0.2C6.6,9.4,6,10.9,6,12.5c0,1.6,0.6,3.1,1.8,4.2C7.9,16.9,8.1,17,8.3,17c0,0,0,0,0,0
			c0.2,0,0.4-0.1,0.5-0.2C8.9,16.6,9,16.4,9,16.2S9,15.8,8.8,15.7c-0.4-0.4-0.7-0.9-1-1.5c-0.2-0.5-0.3-1.1-0.3-1.7s0.1-1.2,0.3-1.7
			c0.2-0.5,0.6-1,1-1.5C9,9.2,9,9,9,8.8C9,8.6,9,8.4,8.8,8.3l0,0C8.7,8.1,8.5,8.1,8.3,8.1z M12,14.2c-0.5,0-0.9-0.2-1.2-0.5
			c-0.3-0.3-0.5-0.7-0.5-1.2c0-0.4,0.2-0.9,0.5-1.2c0.3-0.3,0.8-0.5,1.2-0.5c0.5,0,0.9,0.2,1.2,0.5l0,0c0.3,0.3,0.5,0.8,0.5,1.2
			c0,0.5-0.2,0.9-0.5,1.2C12.9,14,12.5,14.2,12,14.2z M12,11c-0.4,0-0.8,0.2-1.1,0.4c-0.3,0.3-0.4,0.7-0.4,1.1
			c0,0.4,0.2,0.8,0.4,1.1c0.3,0.3,0.7,0.4,1.1,0.4s0.8-0.2,1.1-0.4c0.3-0.3,0.4-0.7,0.4-1.1c0-0.4-0.2-0.8-0.4-1.1l0,0
			C12.8,11.2,12.4,11,12,11z"/>
	</g>
</g>
</svg>
