<svg width="24" height="24" viewBox="0 0 24 24" fill="none" xmlns="http://www.w3.org/2000/svg">
<path d="M3.00012 17V7C3.00012 5.89543 3.89555 5 5.00012 5H10.0001H19.0001C20.1047 5 21.0001 5.89543 21.0001 7V17C21.0001 18.1046 20.1047 19 19.0001 19H5.00012C3.89555 19 3.00012 18.1046 3.00012 17Z" stroke="#666666" stroke-width="1.5" stroke-linecap="round" stroke-linejoin="round"/>
<path d="M3.00012 17V7C3.00012 5.89543 3.89555 5 5.00012 5H10.0001H19.0001C20.1047 5 21.0001 5.89543 21.0001 7V17C21.0001 18.1046 20.1047 19 19.0001 19H5.00012C3.89555 19 3.00012 18.1046 3.00012 17Z" stroke="#666666" stroke-width="1.5" stroke-linecap="round" stroke-linejoin="round"/>
<rect x="16.5911" y="8.06104" width="0.01" height="0.01" stroke="#666666" stroke-width="2.2" stroke-linejoin="round"/>
<rect x="16.5911" y="8.06104" width="0.01" height="0.01" stroke="#666666" stroke-width="2.2" stroke-linejoin="round"/>
<path d="M3.0293 14.5479L7.17256 10.5596C7.52917 10.2163 8.08324 10.1856 8.47562 10.4873L13.6698 14.4812M19.2273 19.0001L13.6698 14.4812M20.9021 15.2806L17.0365 12.5197C16.6559 12.2479 16.1378 12.2762 15.7891 12.5878L13.6698 14.4812" stroke="#666666" stroke-width="1.5"/>
</svg>
