<svg width="20" height="16" viewBox="0 0 20 16" fill="none" xmlns="http://www.w3.org/2000/svg">
<path d="M6.2601 4.87549C6.8561 4.87549 7.2791 4.95749 7.7621 5.18949C7.8361 5.22501 7.90238 5.27476 7.95715 5.3359C8.01193 5.39704 8.05412 5.46836 8.08133 5.54581C8.10854 5.62325 8.12022 5.7053 8.11573 5.78726C8.11123 5.86922 8.09063 5.94949 8.0551 6.02349C8.01958 6.09749 7.96983 6.16377 7.90869 6.21854C7.84756 6.27331 7.77623 6.31551 7.69879 6.34272C7.62134 6.36992 7.5393 6.38161 7.45734 6.37711C7.37538 6.37261 7.2951 6.35201 7.2211 6.31649C6.9211 6.17249 6.6811 6.12649 6.2601 6.12649C5.3931 6.12649 4.7561 6.92249 4.7561 7.99849C4.7561 9.07549 5.3941 9.87449 6.2601 9.87449C6.6881 9.87449 7.0511 9.69449 7.2401 9.37349L7.2451 9.35849V8.62449H6.8691C6.71947 8.62448 6.5748 8.57078 6.46139 8.47316C6.34799 8.37553 6.27337 8.24046 6.2511 8.09249L6.2451 8.00049C6.2451 7.68649 6.4761 7.42649 6.7781 7.38149L6.8701 7.37549H7.8721C8.1861 7.37549 8.4451 7.60549 8.4901 7.90749L8.4971 8.00049L8.4951 9.54749L8.4891 9.60349L8.4681 9.69349L8.4481 9.74849C8.0711 10.6385 7.2071 11.1245 6.2601 11.1245C4.6341 11.1245 3.5061 9.71149 3.5061 7.99849C3.5061 6.28549 4.6331 4.87549 6.2601 4.87549ZM10.8741 4.99749C11.1881 4.99749 11.4481 5.22949 11.4921 5.53049L11.4991 5.62249V10.3855C11.4988 10.543 11.439 10.6947 11.3316 10.81C11.2243 10.9253 11.0774 10.9959 10.9202 11.0075C10.7631 11.0191 10.6074 10.971 10.4842 10.8727C10.3611 10.7744 10.2796 10.6333 10.2561 10.4775L10.2491 10.3855V5.62249C10.2491 5.27749 10.5291 4.99749 10.8741 4.99749ZM13.8701 4.99749L15.8671 5.00449C16.0255 5.00408 16.1782 5.06383 16.2942 5.17167C16.4102 5.2795 16.481 5.42737 16.4922 5.58538C16.5033 5.7434 16.4541 5.89976 16.3544 6.02285C16.2547 6.14595 16.112 6.2266 15.9551 6.24849L15.8631 6.25449L14.4921 6.24949V8.00349H15.6151C15.9291 8.00349 16.1891 8.23549 16.2331 8.53749L16.2401 8.62949C16.2401 8.77927 16.1862 8.92406 16.0884 9.03749C15.9906 9.15092 15.8553 9.22544 15.7071 9.24749L15.6151 9.25449L14.4921 9.25349V10.3685C14.4923 10.5183 14.4387 10.6632 14.3411 10.7768C14.2435 10.8904 14.1082 10.9652 13.9601 10.9875L13.8681 10.9935C13.7183 10.9937 13.5734 10.9401 13.4598 10.8425C13.3462 10.7448 13.2714 10.6096 13.2491 10.4615L13.2431 10.3685V5.62049C13.2437 5.4709 13.2979 5.32647 13.3958 5.21344C13.4938 5.10041 13.6291 5.02627 13.7771 5.00449L13.8701 4.99749Z" fill="#666666"/>
<path d="M6.2601 4.87549C6.8561 4.87549 7.2791 4.95749 7.7621 5.18949C7.8361 5.22501 7.90238 5.27476 7.95715 5.3359C8.01193 5.39704 8.05412 5.46836 8.08133 5.54581C8.10854 5.62325 8.12022 5.7053 8.11573 5.78726C8.11123 5.86922 8.09063 5.94949 8.0551 6.02349C8.01958 6.09749 7.96983 6.16377 7.90869 6.21854C7.84756 6.27331 7.77623 6.31551 7.69879 6.34272C7.62134 6.36992 7.5393 6.38161 7.45734 6.37711C7.37538 6.37261 7.2951 6.35201 7.2211 6.31649C6.9211 6.17249 6.6811 6.12649 6.2601 6.12649C5.3931 6.12649 4.7561 6.92249 4.7561 7.99849C4.7561 9.07549 5.3941 9.87449 6.2601 9.87449C6.6881 9.87449 7.0511 9.69449 7.2401 9.37349L7.2451 9.35849V8.62449H6.8691C6.71947 8.62448 6.5748 8.57078 6.46139 8.47316C6.34799 8.37553 6.27337 8.24046 6.2511 8.09249L6.2451 8.00049C6.2451 7.68649 6.4761 7.42649 6.7781 7.38149L6.8701 7.37549H7.8721C8.1861 7.37549 8.4451 7.60549 8.4901 7.90749L8.4971 8.00049L8.4951 9.54749L8.4891 9.60349L8.4681 9.69349L8.4481 9.74849C8.0711 10.6385 7.2071 11.1245 6.2601 11.1245C4.6341 11.1245 3.5061 9.71149 3.5061 7.99849C3.5061 6.28549 4.6331 4.87549 6.2601 4.87549ZM10.8741 4.99749C11.1881 4.99749 11.4481 5.22949 11.4921 5.53049L11.4991 5.62249V10.3855C11.4988 10.543 11.439 10.6947 11.3316 10.81C11.2243 10.9253 11.0774 10.9959 10.9202 11.0075C10.7631 11.0191 10.6074 10.971 10.4842 10.8727C10.3611 10.7744 10.2796 10.6333 10.2561 10.4775L10.2491 10.3855V5.62249C10.2491 5.27749 10.5291 4.99749 10.8741 4.99749ZM13.8701 4.99749L15.8671 5.00449C16.0255 5.00408 16.1782 5.06383 16.2942 5.17167C16.4102 5.2795 16.481 5.42737 16.4922 5.58538C16.5033 5.7434 16.4541 5.89976 16.3544 6.02285C16.2547 6.14595 16.112 6.2266 15.9551 6.24849L15.8631 6.25449L14.4921 6.24949V8.00349H15.6151C15.9291 8.00349 16.1891 8.23549 16.2331 8.53749L16.2401 8.62949C16.2401 8.77927 16.1862 8.92406 16.0884 9.03749C15.9906 9.15092 15.8553 9.22544 15.7071 9.24749L15.6151 9.25449L14.4921 9.25349V10.3685C14.4923 10.5183 14.4387 10.6632 14.3411 10.7768C14.2435 10.8904 14.1082 10.9652 13.9601 10.9875L13.8681 10.9935C13.7183 10.9937 13.5734 10.9401 13.4598 10.8425C13.3462 10.7448 13.2714 10.6096 13.2491 10.4615L13.2431 10.3685V5.62049C13.2437 5.4709 13.2979 5.32647 13.3958 5.21344C13.4938 5.10041 13.6291 5.02627 13.7771 5.00449L13.8701 4.99749Z" fill="#666666"/>
<path d="M16.75 0.231383C17.1768 0.231383 17.5994 0.308203 17.9937 0.457459C18.388 0.606714 18.7463 0.82548 19.0481 1.10127C19.3499 1.37706 19.5893 1.70446 19.7526 2.0648C19.9159 2.42513 20 2.81134 20 3.20136V12.7994C20 13.1894 19.9159 13.5756 19.7526 13.936C19.5893 14.2963 19.3499 14.6237 19.0481 14.8995C18.7463 15.1753 18.388 15.3941 17.9937 15.5433C17.5994 15.6926 17.1768 15.7694 16.75 15.7694H3.25C2.38805 15.7694 1.5614 15.4565 0.951903 14.8995C0.34241 14.3425 0 13.5871 0 12.7994V3.20044C0 2.41276 0.34241 1.65733 0.951903 1.10035C1.5614 0.543376 2.38805 0.230469 3.25 0.230469L16.75 0.231383ZM16.75 1.60214H3.25C2.78587 1.60214 2.34075 1.77063 2.01256 2.07054C1.68437 2.37045 1.5 2.77722 1.5 3.20136V12.7994C1.5 13.6822 2.284 14.3986 3.25 14.3986H16.75C17.2141 14.3986 17.6592 14.2301 17.9874 13.9302C18.3156 13.6303 18.5 13.2235 18.5 12.7994V3.20044C18.5 2.77631 18.3156 2.36954 17.9874 2.06963C17.6592 1.76972 17.2141 1.60214 16.75 1.60214Z" fill="#666666"/>
<path d="M16.75 0.231383C17.1768 0.231383 17.5994 0.308203 17.9937 0.457459C18.388 0.606714 18.7463 0.82548 19.0481 1.10127C19.3499 1.37706 19.5893 1.70446 19.7526 2.0648C19.9159 2.42513 20 2.81134 20 3.20136V12.7994C20 13.1894 19.9159 13.5756 19.7526 13.936C19.5893 14.2963 19.3499 14.6237 19.0481 14.8995C18.7463 15.1753 18.388 15.3941 17.9937 15.5433C17.5994 15.6926 17.1768 15.7694 16.75 15.7694H3.25C2.38805 15.7694 1.5614 15.4565 0.951903 14.8995C0.34241 14.3425 0 13.5871 0 12.7994V3.20044C0 2.41276 0.34241 1.65733 0.951903 1.10035C1.5614 0.543376 2.38805 0.230469 3.25 0.230469L16.75 0.231383ZM16.75 1.60214H3.25C2.78587 1.60214 2.34075 1.77063 2.01256 2.07054C1.68437 2.37045 1.5 2.77722 1.5 3.20136V12.7994C1.5 13.6822 2.284 14.3986 3.25 14.3986H16.75C17.2141 14.3986 17.6592 14.2301 17.9874 13.9302C18.3156 13.6303 18.5 13.2235 18.5 12.7994V3.20044C18.5 2.77631 18.3156 2.36954 17.9874 2.06963C17.6592 1.76972 17.2141 1.60214 16.75 1.60214Z" fill="#666666"/>
</svg>
