<svg width="22" height="22" viewBox="0 0 22 22" fill="none" xmlns="http://www.w3.org/2000/svg">
<g id="Frame 1116599495">
<path id="Union" fill-rule="evenodd" clip-rule="evenodd" d="M11.3237 0.62207C5.43954 0.62207 0.669525 5.39209 0.669525 11.2762C0.669525 17.1603 5.43954 21.9303 11.3237 21.9303C17.2078 21.9303 21.9778 17.1603 21.9778 11.2762C21.9778 5.39209 17.2078 0.62207 11.3237 0.62207Z" fill="#212121" fill-opacity="0.8"/>
<path id="Union_2" fill-rule="evenodd" clip-rule="evenodd" d="M8.28093 6.81877C7.8904 6.42825 7.25724 6.42825 6.86672 6.81877C6.47619 7.2093 6.47619 7.84246 6.86672 8.23299L9.90962 11.2759L6.86674 14.3188C6.47621 14.7093 6.47621 15.3425 6.86674 15.733C7.25726 16.1235 7.89043 16.1235 8.28095 15.733L11.3238 12.6901L14.3667 15.733C14.7572 16.1235 15.3904 16.1235 15.7809 15.733C16.1715 15.3425 16.1715 14.7093 15.7809 14.3188L12.738 11.2759L15.781 8.23299C16.1715 7.84246 16.1715 7.2093 15.781 6.81877C15.3904 6.42825 14.7573 6.42825 14.3667 6.81877L11.3238 9.86168L8.28093 6.81877Z" fill="white"/>
</g>
</svg>
