<svg width="34" height="32" viewBox="0 0 34 32" fill="none" xmlns="http://www.w3.org/2000/svg">
<ellipse opacity="0.16" cx="17.1425" cy="16" rx="16.6947" ry="16" fill="black"/>
<path d="M11.1077 13.5867C12.1771 13.5867 13.0826 12.7503 13.0826 11.672C13.0826 10.5938 12.1771 9.75738 11.1077 9.75738C10.0382 9.75738 9.13274 10.5938 9.13274 11.672C9.13274 12.7503 10.0382 13.5867 11.1077 13.5867Z" stroke="#666666" stroke-width="1.05068"/>
<ellipse cx="11.1106" cy="11.672" rx="0.536631" ry="0.514286" fill="#666666"/>
<path d="M16.2651 11.5918H23.6438" stroke="#666666" stroke-width="1.57602" stroke-linecap="round"/>
<path d="M11.1078 22.3694C12.1773 22.3694 13.0827 21.533 13.0827 20.4548C13.0827 19.3765 12.1773 18.5401 11.1078 18.5401C10.0383 18.5401 9.13286 19.3765 9.13286 20.4548C9.13286 21.533 10.0383 22.3694 11.1078 22.3694Z" stroke="#666666" stroke-width="1.05068"/>
<path d="M16.2491 20.4561H23.6278" stroke="#666666" stroke-width="1.57602" stroke-linecap="round"/>
</svg>
