<svg width="14" height="16" viewBox="0 0 14 16" fill="none" xmlns="http://www.w3.org/2000/svg">
<rect width="14" height="16" fill="#2A2B32"/>
<g id="Phone Number Login">
<path d="M-666 -407C-666 -408.105 -665.105 -409 -664 -409H2664C2665.1 -409 2666 -408.105 2666 -407V568C2666 569.105 2665.1 570 2664 570H-664C-665.105 570 -666 569.105 -666 568V-407Z" fill="#1D1D1D"/>
<g id="Enter Phone" clip-path="url(#clip0_0_1)">
<rect width="360" height="720" transform="translate(-24 -280)" fill="#13151F"/>
<rect width="360" height="720" transform="translate(-24 -280)" fill="url(#paint0_linear_0_1)"/>
<g id="Frame 1116600333">
<g id="Frame 1116600084">
<g id="Frame 1116599622">
<g id="Vector">
<path fill-rule="evenodd" clip-rule="evenodd" d="M7.10039 0H6.88275C6.5873 0.0424638 6.31084 0.134047 6.03749 0.224595C5.98365 0.242433 5.92992 0.260231 5.87619 0.277605C4.08072 0.824991 2.28521 1.37239 0.4852 1.91587C0.0816692 2.03707 5.59761e-05 2.127 5.59761e-05 2.49454V5.69286C5.59761e-05 5.74153 4.19755e-05 5.79018 2.79782e-05 5.83883C-0.000209917 6.66559 -0.000446865 7.48905 0.0680668 8.31251C0.122476 8.96547 0.204089 9.61452 0.367315 10.2557C0.612154 11.2059 1.04289 12.0856 1.75474 12.8519C2.40311 13.5518 3.1875 14.1148 4.0399 14.6114C4.89684 15.108 5.79911 15.542 6.71953 15.9408C6.90542 16.0229 7.10492 16.019 7.29082 15.933C7.37253 15.8967 7.45457 15.8607 7.53668 15.8246C7.75528 15.7287 7.97432 15.6326 8.18856 15.5302C9.23593 15.0259 10.2561 14.4824 11.172 13.806C12.4642 12.848 13.2758 11.6594 13.634 10.2245C13.8788 9.24308 13.965 8.24995 13.9831 7.25292C14.0055 6.11569 14.0008 4.97652 13.9961 3.83815C13.9941 3.364 13.9922 2.89 13.9922 2.41634C13.9922 2.15437 13.8924 2.02925 13.6113 1.94715C13.1075 1.79953 12.6059 1.64597 12.1034 1.49211C11.9005 1.42997 11.6974 1.36778 11.4939 1.30592C10.5781 1.02441 9.66209 0.742875 8.74625 0.469192C8.59048 0.422564 8.43617 0.372785 8.28207 0.323076C7.89346 0.197712 7.50622 0.0727937 7.10039 0ZM4.39648 12.125H7.03112C7.92738 12.125 8.82364 12.125 9.71991 12.1205C10.2652 12.116 10.5794 11.8082 10.5794 11.2786V7.57569C10.5794 7.10944 10.3576 6.83784 9.89089 6.73825C9.81233 6.72467 9.79384 6.69751 9.79384 6.62508C9.79384 6.46213 9.79384 6.29914 9.77998 6.1362C9.69218 4.94567 8.78646 3.93621 7.59885 3.70082C6.36966 3.45637 5.12198 4.05843 4.57208 5.1539C4.34103 5.60657 4.27171 6.09093 4.28095 6.58887C4.28095 6.59962 4.2824 6.61091 4.28387 6.62232C4.2898 6.66848 4.29596 6.71647 4.20702 6.73825C3.66636 6.87858 3.5 7.10039 3.5 7.65265V11.2469C3.5 11.8218 3.80499 12.125 4.39648 12.125Z" fill="url(#paint1_linear_0_1)"/>
<path d="M7.11199 6.72919C6.76079 6.72919 6.41421 6.72919 6.06301 6.72919C6.0168 6.72919 5.94749 6.76088 5.94287 6.66582C5.91976 6.2222 5.97059 5.79669 6.3449 5.48434C6.70072 5.18558 7.11199 5.11315 7.54636 5.27158C7.97612 5.43002 8.22103 5.75594 8.29035 6.19956C8.36891 6.72919 8.36891 6.72919 7.83287 6.72919C7.59257 6.72919 7.35228 6.72919 7.11199 6.72919Z" fill="url(#paint2_linear_0_1)"/>
<path d="M7.92981 9.05143C7.92981 8.61687 7.57399 8.26831 7.13037 8.26831C6.68675 8.26831 6.33093 8.61687 6.33093 9.05143C6.33093 9.34114 6.49267 9.59464 6.73296 9.73044V10.2012C6.73296 10.4185 6.91318 10.5905 7.13037 10.5905C7.35218 10.5905 7.52778 10.414 7.52778 10.2012V9.73044C7.76807 9.59464 7.92981 9.34114 7.92981 9.05143Z" fill="url(#paint3_linear_0_1)"/>
</g>
</g>
</g>
</g>
</g>
<path d="M-664 -408H2664V-410H-664V-408ZM2665 -407V568H2667V-407H2665ZM2664 569H-664V571H2664V569ZM-665 568V-407H-667V568H-665ZM-664 569C-664.552 569 -665 568.552 -665 568H-667C-667 569.657 -665.657 571 -664 571V569ZM2665 568C2665 568.552 2664.55 569 2664 569V571C2665.66 571 2667 569.657 2667 568H2665ZM2664 -408C2664.55 -408 2665 -407.552 2665 -407H2667C2667 -408.657 2665.66 -410 2664 -410V-408ZM-664 -410C-665.657 -410 -667 -408.657 -667 -407H-665C-665 -407.552 -664.552 -408 -664 -408V-410Z" fill="white" fill-opacity="0.1"/>
</g>
<defs>
<linearGradient id="paint0_linear_0_1" x1="180" y1="141.5" x2="180" y2="666" gradientUnits="userSpaceOnUse">
<stop stop-color="#3E2627"/>
<stop offset="1" stop-color="#13151F"/>
</linearGradient>
<linearGradient id="paint1_linear_0_1" x1="1.62981e-08" y1="8" x2="14" y2="8" gradientUnits="userSpaceOnUse">
<stop stop-color="#25D037"/>
<stop offset="1" stop-color="#10951D"/>
</linearGradient>
<linearGradient id="paint2_linear_0_1" x1="1.62981e-08" y1="8" x2="14" y2="8" gradientUnits="userSpaceOnUse">
<stop stop-color="#25D037"/>
<stop offset="1" stop-color="#10951D"/>
</linearGradient>
<linearGradient id="paint3_linear_0_1" x1="1.62981e-08" y1="8" x2="14" y2="8" gradientUnits="userSpaceOnUse">
<stop stop-color="#25D037"/>
<stop offset="1" stop-color="#10951D"/>
</linearGradient>
<clipPath id="clip0_0_1">
<rect width="360" height="720" fill="white" transform="translate(-24 -280)"/>
</clipPath>
</defs>
</svg>
