<svg width="24" height="25" viewBox="0 0 24 25" fill="none" xmlns="http://www.w3.org/2000/svg">
<g clip-path="url(#clip0_2774_11442)">
<circle cx="12" cy="12.4434" r="2" stroke="#FAFAFA" stroke-width="1.5"/>
<path d="M5.39978 6.32245C4.47005 7.32455 3.79493 8.51376 3.40183 9.78784L4.40114 10.3648C6.00114 11.2886 6.00114 13.598 4.40114 14.5217L3.40012 15.0997C3.59533 15.7297 3.86329 16.3479 4.20699 16.9432C4.55068 17.5385 4.95211 18.0797 5.40011 18.5638L6.40116 17.9858C8.00116 17.0621 10.0012 18.2168 10.0012 20.0643L10.0012 21.2182C11.3011 21.5148 12.6685 21.5248 14.0013 21.2207L14.0013 20.0643C14.0013 18.2168 16.0013 17.0621 17.6013 17.9859L18.6027 18.564C19.5324 17.5619 20.2075 16.3727 20.6006 15.0987L19.6012 14.5217C18.0012 13.5979 18.0012 11.2885 19.6012 10.3647L20.6023 9.78678C20.4071 9.15676 20.1391 8.53853 19.7954 7.94325C19.4517 7.34794 19.0503 6.80675 18.6023 6.32268L17.6013 6.90062C16.0013 7.82438 14.0013 6.66968 14.0013 4.82216L14.0013 3.66825C12.7013 3.37164 11.3339 3.36171 10.0012 3.66584L10.0012 4.82214C10.0012 6.66966 8.00117 7.82436 6.40117 6.9006L5.39978 6.32245Z" stroke="#FAFAFA" stroke-width="1.5" stroke-linejoin="round"/>
</g>
<defs>
<clipPath id="clip0_2774_11442">
<rect width="24" height="24" fill="white" transform="translate(0 0.443359)"/>
</clipPath>
</defs>
</svg>
