<svg width="20" height="20" viewBox="0 0 20 20" fill="none" xmlns="http://www.w3.org/2000/svg">
<g clip-path="url(#clip0_662_3085)">
<path d="M13.5602 5.00659C13.8493 5.50112 14.3859 5.83333 15 5.83333C15.9205 5.83333 16.6667 5.08714 16.6667 4.16667C16.6667 3.24619 15.9205 2.5 15 2.5C14.0796 2.5 13.3334 3.24619 13.3334 4.16667C13.3334 4.47296 13.416 4.75996 13.5602 5.00659ZM13.5602 5.00659L6.43991 9.16008M6.43991 9.16008C6.15081 8.66555 5.61422 8.33333 5.00004 8.33333C4.07957 8.33333 3.33337 9.07953 3.33337 10C3.33337 10.9205 4.07957 11.6667 5.00004 11.6667C5.61422 11.6667 6.15081 11.3345 6.43991 10.8399M6.43991 9.16008C6.58408 9.40671 6.66671 9.6937 6.66671 10C6.66671 10.3063 6.58408 10.5933 6.43991 10.8399M6.43991 10.8399L13.5602 14.9934M13.5602 14.9934C13.8493 14.4989 14.3859 14.1667 15 14.1667C15.9205 14.1667 16.6667 14.9129 16.6667 15.8333C16.6667 16.7538 15.9205 17.5 15 17.5C14.0796 17.5 13.3334 16.7538 13.3334 15.8333C13.3334 15.527 13.416 15.24 13.5602 14.9934Z" stroke="#BFBFBF" stroke-linecap="round" stroke-linejoin="round"/>
</g>
<defs>
<clipPath id="clip0_662_3085">
<rect width="20" height="20" fill="white"/>
</clipPath>
</defs>
</svg>
