<svg width="24" height="25" viewBox="0 0 24 25" fill="none" xmlns="http://www.w3.org/2000/svg">
<g clip-path="url(#clip0_2774_11548)">
<path fill-rule="evenodd" clip-rule="evenodd" d="M2.00002 12.4434C2.00002 6.92051 6.47717 2.44336 12 2.44336C17.5229 2.44336 22 6.92051 22 12.4434C22 17.9662 17.5229 22.4434 12 22.4434C10.4773 22.4434 9.03181 22.1024 7.73782 21.4919L3.20105 22.4229C2.87178 22.4905 2.53059 22.3881 2.29291 22.1505C2.05523 21.9128 1.95286 21.5716 2.02043 21.2423L2.95147 16.7056C2.34101 15.4116 2.00002 13.966 2.00002 12.4434ZM15.7074 11.1505C16.0979 10.7599 16.0979 10.1268 15.7074 9.73625C15.3168 9.34573 14.6837 9.34573 14.2931 9.73625L11.0002 13.0291L9.70735 11.7363C9.31683 11.3457 8.68366 11.3457 8.29314 11.7363C7.90261 12.1268 7.90261 12.7599 8.29314 13.1505L10.2931 15.1505C10.6837 15.541 11.3168 15.541 11.7074 15.1505L15.7074 11.1505Z" fill="#FAFAFA"/>
</g>
<defs>
<clipPath id="clip0_2774_11548">
<rect width="24" height="24" fill="white" transform="translate(0 0.443359)"/>
</clipPath>
</defs>
</svg>
