<svg width="14" height="15" viewBox="0 0 14 15" fill="none" xmlns="http://www.w3.org/2000/svg">
<g clip-path="url(#clip0_1430_6713)">
<path fill-rule="evenodd" clip-rule="evenodd" d="M12.789 4.10077C12.7606 4.03196 12.7184 3.9675 12.6624 3.91158C12.5485 3.79767 12.3992 3.74072 12.25 3.74072H9.91663C9.68069 3.74072 9.46799 3.88285 9.3777 4.10082C9.28741 4.3188 9.33731 4.5697 9.50415 4.73653L10.2583 5.49072L7.58329 8.16576L5.66244 6.24491C5.43463 6.0171 5.06529 6.0171 4.83748 6.24491L1.33748 9.74491C1.10967 9.97272 1.10967 10.3421 1.33748 10.5699C1.56529 10.7977 1.93463 10.7977 2.16244 10.5699L5.24996 7.48235L7.17081 9.4032C7.39862 9.63101 7.76797 9.63101 7.99577 9.4032L11.0833 6.31568L11.8375 7.06987C12.0043 7.2367 12.2552 7.28661 12.4732 7.19632C12.6912 7.10603 12.8333 6.89333 12.8333 6.65739V4.32406C12.8333 4.24496 12.8176 4.16954 12.789 4.10077Z" fill="#9098A1"/>
</g>
<defs>
<clipPath id="clip0_1430_6713">
<rect width="14" height="14" fill="white" transform="translate(0 0.240723)"/>
</clipPath>
</defs>
</svg>
