<svg width="24" height="18" viewBox="0 0 24 18" fill="none" xmlns="http://www.w3.org/2000/svg">
<g clip-path="url(#clip0_16416_34965)">
<path d="M1.31055 0.652344H22.6895C23.4121 0.65625 24 1.24805 24 1.9707V16.0293C24 16.7539 23.4062 17.3477 22.6816 17.3477H1.31055C0.589844 17.3438 0 16.752 0 16.0293V1.9707C0 1.24805 0.587891 0.65625 1.31055 0.652344Z" fill="white"/>
<mask id="mask0_16416_34965" style="mask-type:alpha" maskUnits="userSpaceOnUse" x="0" y="0" width="24" height="18">
<path d="M1.31049 0.652344H22.6894C23.412 0.65625 23.9999 1.24805 23.9999 1.9707V16.0293C23.9999 16.7539 23.4062 17.3477 22.6816 17.3477H1.31049C0.589783 17.3438 -6.10352e-05 16.752 -6.10352e-05 16.0293V1.9707C-6.10352e-05 1.24805 0.58783 0.65625 1.31049 0.652344Z" fill="white"/>
</mask>
<g mask="url(#mask0_16416_34965)">
<path d="M-6.10352e-05 0.5H23.9999V1.80731H-6.10352e-05V0.5ZM-6.10352e-05 3.11462H23.9999V4.42193H-6.10352e-05V3.11462ZM-6.10352e-05 5.72924H23.9999V7.03655H-6.10352e-05V5.72924ZM-6.10352e-05 8.34386H23.9999V9.65117H-6.10352e-05V8.34386ZM-6.10352e-05 10.9635H23.9999V12.2708H-6.10352e-05V10.9635ZM-6.10352e-05 13.5781H23.9999V14.8854H-6.10352e-05V13.5781ZM-6.10352e-05 16.1927H23.9999V17.5H-6.10352e-05V16.1927Z" fill="#BB133E"/>
</g>
<path d="M0 1.96234C0 1.23885 0.586507 0.652344 1.31 0.652344H13V9.65234H0V1.96234Z" fill="#002147"/>
<path d="M1.06167 1.92858L1.15159 2.19826L1.43586 2.20042C1.47268 2.20074 1.48791 2.24768 1.45832 2.26954L1.22965 2.43844L1.31543 2.70945C1.32656 2.74452 1.28657 2.7736 1.25661 2.75216L1.02536 2.5869L0.794108 2.7522C0.764148 2.7736 0.724248 2.74457 0.735293 2.7095L0.821076 2.43848L0.5924 2.26959C0.562809 2.24768 0.578041 2.20079 0.614858 2.20047L0.899126 2.19831L0.989051 1.92863C1.00065 1.89365 1.04998 1.89365 1.06167 1.92858Z" fill="white"/>
<path d="M1.06161 3.3393L1.15153 3.60898L1.4358 3.61114C1.47262 3.61146 1.48785 3.6584 1.45826 3.68026L1.22958 3.84916L1.31537 4.12017C1.3265 4.15524 1.28651 4.18432 1.25655 4.16288L1.0253 3.99762L0.794047 4.16292C0.764087 4.18432 0.724187 4.15528 0.735232 4.12022L0.821015 3.8492L0.592339 3.68031C0.562747 3.6584 0.57798 3.61151 0.614797 3.61119L0.899065 3.60902L0.98899 3.33934C1.00059 3.30441 1.04992 3.30441 1.06161 3.3393Z" fill="white"/>
<path d="M1.06161 4.74999L1.15153 5.01967L1.4358 5.02183C1.47262 5.02215 1.48785 5.06909 1.45826 5.09095L1.22958 5.25985L1.31537 5.53086C1.3265 5.56593 1.28651 5.59501 1.25655 5.57357L1.0253 5.40831L0.794047 5.57361C0.764087 5.59501 0.724187 5.56597 0.735232 5.53091L0.821015 5.25989L0.592339 5.091C0.562747 5.06909 0.57798 5.0222 0.614797 5.02188L0.899065 5.01971L0.98899 4.75003C1.00059 4.7151 1.04992 4.7151 1.06161 4.74999Z" fill="white"/>
<path d="M1.06161 6.16079L1.15153 6.43047L1.4358 6.43263C1.47262 6.43295 1.48785 6.47989 1.45826 6.50175L1.22958 6.67065L1.31537 6.94166C1.3265 6.97673 1.28651 7.00581 1.25655 6.98437L1.0253 6.81911L0.794047 6.98441C0.764087 7.00581 0.724187 6.97677 0.735232 6.94171L0.821015 6.67069L0.592339 6.5018C0.562747 6.47989 0.57798 6.433 0.614797 6.43268L0.899065 6.43051L0.98899 6.16083C1.00059 6.12586 1.04992 6.12586 1.06161 6.16079Z" fill="white"/>
<path d="M1.06161 7.57145L1.15153 7.84113L1.4358 7.84329C1.47262 7.84362 1.48785 7.89056 1.45826 7.91242L1.22958 8.08131L1.31537 8.35232C1.3265 8.38739 1.28651 8.41648 1.25655 8.39503L1.0253 8.22977L0.794047 8.39508C0.764087 8.41648 0.724187 8.38744 0.735232 8.35237L0.821015 8.08136L0.592339 7.91246C0.562747 7.89056 0.57798 7.84366 0.614797 7.84334L0.899065 7.84118L0.98899 7.5715C1.00059 7.53648 1.04992 7.53648 1.06161 7.57145Z" fill="white"/>
<path d="M2.15658 2.62023L2.2465 2.88991L2.53077 2.89207C2.56759 2.8924 2.58282 2.93934 2.55323 2.9612L2.32456 3.13009L2.41034 3.40111C2.42147 3.43617 2.38148 3.46526 2.35152 3.44381L2.12027 3.27851L1.88902 3.44381C1.85906 3.46521 1.81916 3.43617 1.8302 3.40111L1.91599 3.13009L1.68731 2.9612C1.65772 2.93929 1.67295 2.8924 1.70977 2.89207L1.99404 2.88991L2.08396 2.62023C2.09551 2.58535 2.14494 2.58535 2.15658 2.62023Z" fill="white"/>
<path d="M2.15658 4.03097L2.2465 4.30065L2.53077 4.30281C2.56759 4.30314 2.58282 4.35008 2.55323 4.37194L2.32456 4.54083L2.41034 4.81184C2.42147 4.84691 2.38148 4.876 2.35152 4.85455L2.12027 4.68925L1.88902 4.85455C1.85906 4.87595 1.81916 4.84696 1.8302 4.81184L1.91599 4.54083L1.68731 4.37194C1.65772 4.35003 1.67295 4.30314 1.70977 4.30281L1.99404 4.30065L2.08396 4.03097C2.09551 3.99604 2.14494 3.99604 2.15658 4.03097Z" fill="white"/>
<path d="M2.15658 5.44166L2.2465 5.71134L2.53077 5.71351C2.56759 5.71383 2.58282 5.76077 2.55323 5.78263L2.32456 5.95152L2.41034 6.22254C2.42147 6.2576 2.38148 6.28669 2.35152 6.26524L2.12027 6.09994L1.88902 6.26524C1.85906 6.28664 1.81916 6.2576 1.8302 6.22254L1.91599 5.95152L1.68731 5.78263C1.65772 5.76072 1.67295 5.71383 1.70977 5.71351L1.99404 5.71134L2.08396 5.44166C2.09551 5.40673 2.14494 5.40673 2.15658 5.44166Z" fill="white"/>
<path d="M2.15658 6.85238L2.2465 7.12206L2.53077 7.12422C2.56759 7.12454 2.58282 7.17148 2.55323 7.19334L2.32456 7.36224L2.41034 7.63325C2.42147 7.66832 2.38148 7.6974 2.35152 7.67596L2.12027 7.51065L1.88902 7.67596C1.85906 7.69736 1.81916 7.66832 1.8302 7.63325L1.91599 7.36224L1.68731 7.19334C1.65772 7.17144 1.67295 7.12454 1.70977 7.12422L1.99404 7.12206L2.08396 6.85238C2.09551 6.8175 2.14494 6.8175 2.15658 6.85238Z" fill="white"/>
<path d="M3.25149 1.92859L3.34141 2.19827L3.62568 2.20043C3.6625 2.20075 3.67773 2.24769 3.64814 2.26955L3.41947 2.43844L3.50525 2.70946C3.51638 2.74452 3.47639 2.77361 3.44643 2.75216L3.21518 2.58686L2.98393 2.75216C2.95397 2.77356 2.91407 2.74452 2.92511 2.70946L3.0109 2.43844L2.78222 2.26955C2.75263 2.24764 2.76786 2.20075 2.80468 2.20043L3.08895 2.19827L3.17887 1.92859C3.19047 1.89366 3.23985 1.89366 3.25149 1.92859Z" fill="white"/>
<path d="M3.25149 3.3393L3.34141 3.60898L3.62568 3.61114C3.6625 3.61147 3.67773 3.65841 3.64814 3.68027L3.41947 3.84916L3.50525 4.12017C3.51638 4.15524 3.47639 4.18433 3.44643 4.16288L3.21518 3.99758L2.98393 4.16288C2.95397 4.18428 2.91407 4.15524 2.92511 4.12017L3.0109 3.84916L2.78222 3.68027C2.75263 3.65836 2.76786 3.61147 2.80468 3.61114L3.08895 3.60898L3.17887 3.3393C3.19047 3.30442 3.23985 3.30442 3.25149 3.3393Z" fill="white"/>
<path d="M3.25149 4.74999L3.34141 5.01967L3.62568 5.02184C3.6625 5.02216 3.67773 5.0691 3.64814 5.09096L3.41947 5.25985L3.50525 5.53087C3.51638 5.56593 3.47639 5.59502 3.44643 5.57357L3.21518 5.40827L2.98393 5.57357C2.95397 5.59497 2.91407 5.56593 2.92511 5.53087L3.0109 5.25985L2.78222 5.09096C2.75263 5.06905 2.76786 5.02216 2.80468 5.02184L3.08895 5.01967L3.17887 4.74999C3.19047 4.71511 3.23985 4.71511 3.25149 4.74999Z" fill="white"/>
<path d="M3.25149 6.16073L3.34141 6.43041L3.62568 6.43258C3.6625 6.4329 3.67773 6.47984 3.64814 6.5017L3.41947 6.67059L3.50525 6.9416C3.51638 6.97667 3.47639 7.00576 3.44643 6.98431L3.21518 6.81901L2.98393 6.98431C2.95397 7.00571 2.91407 6.97667 2.92511 6.9416L3.0109 6.67059L2.78222 6.5017C2.75263 6.47979 2.76786 6.4329 2.80468 6.43258L3.08895 6.43041L3.17887 6.16073C3.19047 6.1258 3.23985 6.1258 3.25149 6.16073Z" fill="white"/>
<path d="M3.25149 7.57146L3.34141 7.84114L3.62568 7.8433C3.6625 7.84362 3.67773 7.89056 3.64814 7.91242L3.41947 8.08132L3.50525 8.35233C3.51638 8.3874 3.47639 8.41648 3.44643 8.39504L3.21518 8.22973L2.98393 8.39504C2.95397 8.41644 2.91407 8.3874 2.92511 8.35233L3.0109 8.08132L2.78222 7.91242C2.75263 7.89052 2.76786 7.84362 2.80468 7.8433L3.08895 7.84114L3.17887 7.57146C3.19047 7.53648 3.23985 7.53648 3.25149 7.57146Z" fill="white"/>
<path d="M4.34658 2.62023L4.43651 2.88991L4.72078 2.89207C4.75759 2.8924 4.77283 2.93934 4.74323 2.9612L4.51456 3.13009L4.60034 3.40111C4.61148 3.43617 4.57149 3.46526 4.54153 3.44381L4.31027 3.27851L4.07902 3.44381C4.04906 3.46521 4.00916 3.43617 4.02021 3.40111L4.10599 3.13009L3.87731 2.9612C3.84772 2.93929 3.86295 2.8924 3.89977 2.89207L4.18404 2.88991L4.27396 2.62023C4.28551 2.58535 4.33494 2.58535 4.34658 2.62023Z" fill="white"/>
<path d="M4.34658 4.03097L4.43651 4.30065L4.72078 4.30281C4.75759 4.30314 4.77283 4.35008 4.74323 4.37194L4.51456 4.54083L4.60034 4.81184C4.61148 4.84691 4.57149 4.876 4.54153 4.85455L4.31027 4.68925L4.07902 4.85455C4.04906 4.87595 4.00916 4.84696 4.02021 4.81184L4.10599 4.54083L3.87731 4.37194C3.84772 4.35003 3.86295 4.30314 3.89977 4.30281L4.18404 4.30065L4.27396 4.03097C4.28551 3.99604 4.33494 3.99604 4.34658 4.03097Z" fill="white"/>
<path d="M4.34658 5.44166L4.43651 5.71134L4.72078 5.71351C4.75759 5.71383 4.77283 5.76077 4.74323 5.78263L4.51456 5.95152L4.60034 6.22254C4.61148 6.2576 4.57149 6.28669 4.54153 6.26524L4.31027 6.09994L4.07902 6.26524C4.04906 6.28664 4.00916 6.2576 4.02021 6.22254L4.10599 5.95152L3.87731 5.78263C3.84772 5.76072 3.86295 5.71383 3.89977 5.71351L4.18404 5.71134L4.27396 5.44166C4.28551 5.40673 4.33494 5.40673 4.34658 5.44166Z" fill="white"/>
<path d="M4.34658 6.85238L4.43651 7.12206L4.72078 7.12422C4.75759 7.12454 4.77283 7.17148 4.74323 7.19334L4.51456 7.36224L4.60034 7.63325C4.61148 7.66832 4.57149 7.6974 4.54153 7.67596L4.31027 7.51065L4.07902 7.67596C4.04906 7.69736 4.00916 7.66832 4.02021 7.63325L4.10599 7.36224L3.87731 7.19334C3.84772 7.17144 3.86295 7.12454 3.89977 7.12422L4.18404 7.12206L4.27396 6.85238C4.28551 6.8175 4.33494 6.8175 4.34658 6.85238Z" fill="white"/>
<path d="M5.44154 1.92859L5.53146 2.19827L5.81573 2.20043C5.85255 2.20075 5.86778 2.24769 5.83819 2.26955L5.60951 2.43844L5.6953 2.70946C5.70643 2.74452 5.66644 2.77361 5.63648 2.75216L5.40518 2.58686L5.17393 2.75216C5.14397 2.77356 5.10407 2.74452 5.11512 2.70946L5.2009 2.43844L4.97222 2.26955C4.94263 2.24764 4.95786 2.20075 4.99468 2.20043L5.27895 2.19827L5.36887 1.92859C5.38052 1.89366 5.4299 1.89366 5.44154 1.92859Z" fill="white"/>
<path d="M5.44154 3.3393L5.53146 3.60898L5.81573 3.61114C5.85255 3.61147 5.86778 3.65841 5.83819 3.68027L5.60951 3.84916L5.6953 4.12017C5.70643 4.15524 5.66644 4.18433 5.63648 4.16288L5.40518 3.99758L5.17393 4.16288C5.14397 4.18428 5.10407 4.15524 5.11512 4.12017L5.2009 3.84916L4.97222 3.68027C4.94263 3.65836 4.95786 3.61147 4.99468 3.61114L5.27895 3.60898L5.36887 3.3393C5.38052 3.30442 5.4299 3.30442 5.44154 3.3393Z" fill="white"/>
<path d="M5.44154 4.74999L5.53146 5.01967L5.81573 5.02184C5.85255 5.02216 5.86778 5.0691 5.83819 5.09096L5.60951 5.25985L5.6953 5.53087C5.70643 5.56593 5.66644 5.59502 5.63648 5.57357L5.40518 5.40827L5.17393 5.57357C5.14397 5.59497 5.10407 5.56593 5.11512 5.53087L5.2009 5.25985L4.97222 5.09096C4.94263 5.06905 4.95786 5.02216 4.99468 5.02184L5.27895 5.01967L5.36887 4.74999C5.38052 4.71511 5.4299 4.71511 5.44154 4.74999Z" fill="white"/>
<path d="M5.44154 6.16073L5.53146 6.43041L5.81573 6.43258C5.85255 6.4329 5.86778 6.47984 5.83819 6.5017L5.60951 6.67059L5.6953 6.9416C5.70643 6.97667 5.66644 7.00576 5.63648 6.98431L5.40518 6.81901L5.17393 6.98431C5.14397 7.00571 5.10407 6.97667 5.11512 6.9416L5.2009 6.67059L4.97222 6.5017C4.94263 6.47979 4.95786 6.4329 4.99468 6.43258L5.27895 6.43041L5.36887 6.16073C5.38052 6.1258 5.4299 6.1258 5.44154 6.16073Z" fill="white"/>
<path d="M5.44154 7.57146L5.53146 7.84114L5.81573 7.8433C5.85255 7.84362 5.86778 7.89056 5.83819 7.91242L5.60951 8.08132L5.6953 8.35233C5.70643 8.3874 5.66644 8.41648 5.63648 8.39504L5.40518 8.22973L5.17393 8.39504C5.14397 8.41644 5.10407 8.3874 5.11512 8.35233L5.2009 8.08132L4.97222 7.91242C4.94263 7.89052 4.95786 7.84362 4.99468 7.8433L5.27895 7.84114L5.36887 7.57146C5.38052 7.53648 5.4299 7.53648 5.44154 7.57146Z" fill="white"/>
<path d="M6.53659 2.62023L6.62651 2.88991L6.91078 2.89207C6.9476 2.8924 6.96283 2.93934 6.93324 2.9612L6.70456 3.13009L6.79034 3.40111C6.80148 3.43617 6.76149 3.46526 6.73153 3.44381L6.50028 3.27851L6.26902 3.44381C6.23906 3.46521 6.19916 3.43617 6.21021 3.40111L6.29599 3.13009L6.06731 2.9612C6.03772 2.93929 6.05296 2.8924 6.08977 2.89207L6.37404 2.88991L6.46397 2.62023C6.47561 2.58535 6.52494 2.58535 6.53659 2.62023Z" fill="white"/>
<path d="M6.53659 4.03097L6.62651 4.30065L6.91078 4.30281C6.9476 4.30314 6.96283 4.35008 6.93324 4.37194L6.70456 4.54083L6.79034 4.81184C6.80148 4.84691 6.76149 4.876 6.73153 4.85455L6.50028 4.68925L6.26902 4.85455C6.23906 4.87595 6.19916 4.84696 6.21021 4.81184L6.29599 4.54083L6.06731 4.37194C6.03772 4.35003 6.05296 4.30314 6.08977 4.30281L6.37404 4.30065L6.46397 4.03097C6.47561 3.99604 6.52494 3.99604 6.53659 4.03097Z" fill="white"/>
<path d="M6.53659 5.44166L6.62651 5.71134L6.91078 5.71351C6.9476 5.71383 6.96283 5.76077 6.93324 5.78263L6.70456 5.95152L6.79034 6.22254C6.80148 6.2576 6.76149 6.28669 6.73153 6.26524L6.50028 6.09994L6.26902 6.26524C6.23906 6.28664 6.19916 6.2576 6.21021 6.22254L6.29599 5.95152L6.06731 5.78263C6.03772 5.76072 6.05296 5.71383 6.08977 5.71351L6.37404 5.71134L6.46397 5.44166C6.47561 5.40673 6.52494 5.40673 6.53659 5.44166Z" fill="white"/>
<path d="M6.53659 6.85238L6.62651 7.12206L6.91078 7.12422C6.9476 7.12454 6.96283 7.17148 6.93324 7.19334L6.70456 7.36224L6.79034 7.63325C6.80148 7.66832 6.76149 7.6974 6.73153 7.67596L6.50028 7.51065L6.26902 7.67596C6.23906 7.69736 6.19916 7.66832 6.21021 7.63325L6.29599 7.36224L6.06731 7.19334C6.03772 7.17144 6.05296 7.12454 6.08977 7.12422L6.37404 7.12206L6.46397 6.85238C6.47561 6.8175 6.52494 6.8175 6.53659 6.85238Z" fill="white"/>
<path d="M7.63156 1.92859L7.72148 2.19827L8.00575 2.20043C8.04257 2.20075 8.0578 2.24769 8.02821 2.26955L7.79953 2.43844L7.88531 2.70946C7.89645 2.74452 7.85646 2.77361 7.8265 2.75216L7.59525 2.58686L7.36399 2.75216C7.33403 2.77356 7.29413 2.74452 7.30518 2.70946L7.39096 2.43844L7.16229 2.26955C7.13269 2.24764 7.14793 2.20075 7.18474 2.20043L7.46901 2.19827L7.55894 1.92859C7.57049 1.89366 7.61991 1.89366 7.63156 1.92859Z" fill="white"/>
<path d="M7.63156 3.3393L7.72148 3.60898L8.00575 3.61114C8.04257 3.61147 8.0578 3.65841 8.02821 3.68027L7.79953 3.84916L7.88531 4.12017C7.89645 4.15524 7.85646 4.18433 7.8265 4.16288L7.59525 3.99758L7.36399 4.16288C7.33403 4.18428 7.29413 4.15524 7.30518 4.12017L7.39096 3.84916L7.16229 3.68027C7.13269 3.65836 7.14793 3.61147 7.18474 3.61114L7.46901 3.60898L7.55894 3.3393C7.57049 3.30442 7.61991 3.30442 7.63156 3.3393Z" fill="white"/>
<path d="M7.63156 4.74999L7.72148 5.01967L8.00575 5.02184C8.04257 5.02216 8.0578 5.0691 8.02821 5.09096L7.79953 5.25985L7.88531 5.53087C7.89645 5.56593 7.85646 5.59502 7.8265 5.57357L7.59525 5.40827L7.36399 5.57357C7.33403 5.59497 7.29413 5.56593 7.30518 5.53087L7.39096 5.25985L7.16229 5.09096C7.13269 5.06905 7.14793 5.02216 7.18474 5.02184L7.46901 5.01967L7.55894 4.74999C7.57049 4.71511 7.61991 4.71511 7.63156 4.74999Z" fill="white"/>
<path d="M7.63156 6.16073L7.72148 6.43041L8.00575 6.43258C8.04257 6.4329 8.0578 6.47984 8.02821 6.5017L7.79953 6.67059L7.88531 6.9416C7.89645 6.97667 7.85646 7.00576 7.8265 6.98431L7.59525 6.81901L7.36399 6.98431C7.33403 7.00571 7.29413 6.97667 7.30518 6.9416L7.39096 6.67059L7.16229 6.5017C7.13269 6.47979 7.14793 6.4329 7.18474 6.43258L7.46901 6.43041L7.55894 6.16073C7.57049 6.1258 7.61991 6.1258 7.63156 6.16073Z" fill="white"/>
<path d="M7.63156 7.57146L7.72148 7.84114L8.00575 7.8433C8.04257 7.84362 8.0578 7.89056 8.02821 7.91242L7.79953 8.08132L7.88531 8.35233C7.89645 8.3874 7.85646 8.41648 7.8265 8.39504L7.59525 8.22973L7.36399 8.39504C7.33403 8.41644 7.29413 8.3874 7.30518 8.35233L7.39096 8.08132L7.16229 7.91242C7.13269 7.89052 7.14793 7.84362 7.18474 7.8433L7.46901 7.84114L7.55894 7.57146C7.57049 7.53648 7.61991 7.53648 7.63156 7.57146Z" fill="white"/>
<path d="M8.72647 2.62023L8.81639 2.88991L9.10066 2.89207C9.13747 2.8924 9.15271 2.93934 9.12312 2.9612L8.89444 3.13009L8.98022 3.40111C8.99136 3.43617 8.95137 3.46526 8.92141 3.44381L8.69016 3.27851L8.4589 3.44381C8.42894 3.46521 8.38904 3.43617 8.40009 3.40111L8.48587 3.13009L8.25719 2.9612C8.2276 2.93929 8.24284 2.8924 8.27965 2.89207L8.56392 2.88991L8.65385 2.62023C8.66544 2.58535 8.71487 2.58535 8.72647 2.62023Z" fill="white"/>
<path d="M10.9162 2.62023L11.0061 2.88991L11.2904 2.89207C11.3272 2.8924 11.3425 2.93934 11.3129 2.9612L11.0842 3.13009L11.17 3.40111C11.1811 3.43617 11.1411 3.46526 11.1112 3.44381L10.8799 3.27851L10.6487 3.44381C10.6187 3.46521 10.5788 3.43617 10.5898 3.40111L10.6756 3.13009L10.447 2.9612C10.4174 2.93929 10.4326 2.8924 10.4694 2.89207L10.7537 2.88991L10.8436 2.62023C10.8552 2.58535 10.9046 2.58535 10.9162 2.62023Z" fill="white"/>
<path d="M8.72647 4.03097L8.81639 4.30065L9.10066 4.30281C9.13747 4.30314 9.15271 4.35008 9.12312 4.37194L8.89444 4.54083L8.98022 4.81184C8.99136 4.84691 8.95137 4.876 8.92141 4.85455L8.69016 4.68925L8.4589 4.85455C8.42894 4.87595 8.38904 4.84696 8.40009 4.81184L8.48587 4.54083L8.25719 4.37194C8.2276 4.35003 8.24284 4.30314 8.27965 4.30281L8.56392 4.30065L8.65385 4.03097C8.66544 3.99604 8.71487 3.99604 8.72647 4.03097Z" fill="white"/>
<path d="M10.9162 4.03097L11.0061 4.30065L11.2904 4.30281C11.3272 4.30314 11.3425 4.35008 11.3129 4.37194L11.0842 4.54083L11.17 4.81184C11.1811 4.84691 11.1411 4.876 11.1112 4.85455L10.8799 4.68925L10.6487 4.85455C10.6187 4.87595 10.5788 4.84696 10.5898 4.81184L10.6756 4.54083L10.447 4.37194C10.4174 4.35003 10.4326 4.30314 10.4694 4.30281L10.7537 4.30065L10.8436 4.03097C10.8552 3.99604 10.9046 3.99604 10.9162 4.03097Z" fill="white"/>
<path d="M8.72647 5.44166L8.81639 5.71134L9.10066 5.71351C9.13747 5.71383 9.15271 5.76077 9.12312 5.78263L8.89444 5.95152L8.98022 6.22254C8.99136 6.2576 8.95137 6.28669 8.92141 6.26524L8.69016 6.09994L8.4589 6.26524C8.42894 6.28664 8.38904 6.2576 8.40009 6.22254L8.48587 5.95152L8.25719 5.78263C8.2276 5.76072 8.24284 5.71383 8.27965 5.71351L8.56392 5.71134L8.65385 5.44166C8.66544 5.40673 8.71487 5.40673 8.72647 5.44166Z" fill="white"/>
<path d="M10.9162 5.44166L11.0061 5.71134L11.2904 5.71351C11.3272 5.71383 11.3425 5.76077 11.3129 5.78263L11.0842 5.95152L11.17 6.22254C11.1811 6.2576 11.1411 6.28669 11.1112 6.26524L10.8799 6.09994L10.6487 6.26524C10.6187 6.28664 10.5788 6.2576 10.5898 6.22254L10.6756 5.95152L10.447 5.78263C10.4174 5.76072 10.4326 5.71383 10.4694 5.71351L10.7537 5.71134L10.8436 5.44166C10.8552 5.40673 10.9046 5.40673 10.9162 5.44166Z" fill="white"/>
<path d="M8.72647 6.85238L8.81639 7.12206L9.10066 7.12422C9.13747 7.12454 9.15271 7.17148 9.12312 7.19334L8.89444 7.36224L8.98022 7.63325C8.99136 7.66832 8.95137 7.6974 8.92141 7.67596L8.69016 7.51065L8.4589 7.67596C8.42894 7.69736 8.38904 7.66832 8.40009 7.63325L8.48587 7.36224L8.25719 7.19334C8.2276 7.17144 8.24284 7.12454 8.27965 7.12422L8.56392 7.12206L8.65385 6.85238C8.66544 6.8175 8.71487 6.8175 8.72647 6.85238Z" fill="white"/>
<path d="M10.9162 6.85238L11.0061 7.12206L11.2904 7.12422C11.3272 7.12454 11.3425 7.17148 11.3129 7.19334L11.0842 7.36224L11.17 7.63325C11.1811 7.66832 11.1411 7.6974 11.1112 7.67596L10.8799 7.51065L10.6487 7.67596C10.6187 7.69736 10.5788 7.66832 10.5898 7.63325L10.6756 7.36224L10.447 7.19334C10.4174 7.17144 10.4326 7.12454 10.4694 7.12422L10.7537 7.12206L10.8436 6.85238C10.8552 6.8175 10.9046 6.8175 10.9162 6.85238Z" fill="white"/>
<path d="M9.82156 1.92859L9.91148 2.19827L10.1958 2.20043C10.2326 2.20075 10.2478 2.24769 10.2182 2.26955L9.98953 2.43844L10.0753 2.70946C10.0865 2.74452 10.0465 2.77361 10.0165 2.75216L9.78525 2.58686L9.554 2.75216C9.52404 2.77356 9.48414 2.74452 9.49518 2.70946L9.58096 2.43844L9.35229 2.26955C9.3227 2.24764 9.33793 2.20075 9.37475 2.20043L9.65901 2.19827L9.74894 1.92859C9.76054 1.89366 9.80987 1.89366 9.82156 1.92859Z" fill="white"/>
<path d="M12.0113 1.92859L12.1012 2.19827L12.3855 2.20043C12.4223 2.20075 12.4376 2.24769 12.408 2.26955L12.1793 2.43844L12.2651 2.70946C12.2762 2.74452 12.2362 2.77361 12.2063 2.75216L11.975 2.58686L11.7438 2.75216C11.7138 2.77356 11.6739 2.74452 11.6849 2.70946L11.7707 2.43844L11.542 2.26955C11.5125 2.24764 11.5277 2.20075 11.5645 2.20043L11.8488 2.19827L11.9387 1.92859C11.9503 1.89366 11.9996 1.89366 12.0113 1.92859Z" fill="white"/>
<path d="M9.82156 3.3393L9.91148 3.60898L10.1958 3.61114C10.2326 3.61147 10.2478 3.65841 10.2182 3.68027L9.98953 3.84916L10.0753 4.12017C10.0865 4.15524 10.0465 4.18433 10.0165 4.16288L9.78525 3.99758L9.554 4.16288C9.52404 4.18428 9.48414 4.15524 9.49518 4.12017L9.58096 3.84916L9.35229 3.68027C9.3227 3.65836 9.33793 3.61147 9.37475 3.61114L9.65901 3.60898L9.74894 3.3393C9.76054 3.30442 9.80987 3.30442 9.82156 3.3393Z" fill="white"/>
<path d="M12.0113 3.3393L12.1012 3.60898L12.3855 3.61114C12.4223 3.61147 12.4376 3.65841 12.408 3.68027L12.1793 3.84916L12.2651 4.12017C12.2762 4.15524 12.2362 4.18433 12.2063 4.16288L11.975 3.99758L11.7438 4.16288C11.7138 4.18428 11.6739 4.15524 11.6849 4.12017L11.7707 3.84916L11.542 3.68027C11.5125 3.65836 11.5277 3.61147 11.5645 3.61114L11.8488 3.60898L11.9387 3.3393C11.9503 3.30442 11.9996 3.30442 12.0113 3.3393Z" fill="white"/>
<path d="M9.82156 4.74999L9.91148 5.01967L10.1958 5.02184C10.2326 5.02216 10.2478 5.0691 10.2182 5.09096L9.98953 5.25985L10.0753 5.53087C10.0865 5.56593 10.0465 5.59502 10.0165 5.57357L9.78525 5.40827L9.554 5.57357C9.52404 5.59497 9.48414 5.56593 9.49518 5.53087L9.58096 5.25985L9.35229 5.09096C9.3227 5.06905 9.33793 5.02216 9.37475 5.02184L9.65901 5.01967L9.74894 4.74999C9.76054 4.71511 9.80987 4.71511 9.82156 4.74999Z" fill="white"/>
<path d="M12.0113 4.74999L12.1012 5.01967L12.3855 5.02184C12.4223 5.02216 12.4376 5.0691 12.408 5.09096L12.1793 5.25985L12.2651 5.53087C12.2762 5.56593 12.2362 5.59502 12.2063 5.57357L11.975 5.40827L11.7438 5.57357C11.7138 5.59497 11.6739 5.56593 11.6849 5.53087L11.7707 5.25985L11.542 5.09096C11.5125 5.06905 11.5277 5.02216 11.5645 5.02184L11.8488 5.01967L11.9387 4.74999C11.9503 4.71511 11.9996 4.71511 12.0113 4.74999Z" fill="white"/>
<path d="M9.82156 6.16073L9.91148 6.43041L10.1958 6.43258C10.2326 6.4329 10.2478 6.47984 10.2182 6.5017L9.98953 6.67059L10.0753 6.9416C10.0865 6.97667 10.0465 7.00576 10.0165 6.98431L9.78525 6.81901L9.554 6.98431C9.52404 7.00571 9.48414 6.97667 9.49518 6.9416L9.58096 6.67059L9.35229 6.5017C9.3227 6.47979 9.33793 6.4329 9.37475 6.43258L9.65901 6.43041L9.74894 6.16073C9.76054 6.1258 9.80987 6.1258 9.82156 6.16073Z" fill="white"/>
<path d="M12.0113 6.16073L12.1012 6.43041L12.3855 6.43258C12.4223 6.4329 12.4376 6.47984 12.408 6.5017L12.1793 6.67059L12.2651 6.9416C12.2762 6.97667 12.2362 7.00576 12.2063 6.98431L11.975 6.81901L11.7438 6.98431C11.7138 7.00571 11.6739 6.97667 11.6849 6.9416L11.7707 6.67059L11.542 6.5017C11.5125 6.47979 11.5277 6.4329 11.5645 6.43258L11.8488 6.43041L11.9387 6.16073C11.9503 6.1258 11.9996 6.1258 12.0113 6.16073Z" fill="white"/>
<path d="M9.82156 7.57146L9.91148 7.84114L10.1958 7.8433C10.2326 7.84362 10.2478 7.89056 10.2182 7.91242L9.98953 8.08132L10.0753 8.35233C10.0865 8.3874 10.0465 8.41648 10.0165 8.39504L9.78525 8.22973L9.554 8.39504C9.52404 8.41644 9.48414 8.3874 9.49518 8.35233L9.58096 8.08132L9.35229 7.91242C9.3227 7.89052 9.33793 7.84362 9.37475 7.8433L9.65901 7.84114L9.74894 7.57146C9.76054 7.53648 9.80987 7.53648 9.82156 7.57146Z" fill="white"/>
<path d="M12.0113 7.57146L12.1012 7.84114L12.3855 7.8433C12.4223 7.84362 12.4376 7.89056 12.408 7.91242L12.1793 8.08132L12.2651 8.35233C12.2762 8.3874 12.2362 8.41648 12.2063 8.39504L11.975 8.22973L11.7438 8.39504C11.7138 8.41644 11.6739 8.3874 11.6849 8.35233L11.7707 8.08132L11.542 7.91242C11.5125 7.89052 11.5277 7.84362 11.5645 7.8433L11.8488 7.84114L11.9387 7.57146C11.9503 7.53648 11.9996 7.53648 12.0113 7.57146Z" fill="white"/>
</g>
<defs>
<clipPath id="clip0_16416_34965">
<rect width="24" height="16.6953" fill="white" transform="translate(0 0.652344)"/>
</clipPath>
</defs>
</svg>
