<svg width="16" height="18" viewBox="0 0 16 18" fill="none" xmlns="http://www.w3.org/2000/svg">
<path d="M2.49884 3.89941C1.72406 4.73448 1.16146 5.7255 0.833882 6.78723L1.66664 7.26802C2.99997 8.03782 2.99997 9.96233 1.66664 10.7321L0.832457 11.2137C0.995133 11.7388 1.21843 12.254 1.50485 12.7501C1.79126 13.2461 2.12578 13.6971 2.49912 14.1005L3.33333 13.6189C4.66666 12.8491 6.33333 13.8113 6.33333 15.3509L6.33333 16.3126C7.41661 16.5597 8.55615 16.568 9.66674 16.3146L9.66674 15.351C9.66674 13.8114 11.3334 12.8491 12.6667 13.6189L13.5012 14.1007C14.276 13.2657 14.8386 12.2746 15.1662 11.2129L14.3334 10.7321C13.0001 9.96229 13.0001 8.03779 14.3334 7.26799L15.1676 6.78635C15.0049 6.26133 14.7816 5.74614 14.4952 5.25007C14.2088 4.75398 13.8743 4.30299 13.5009 3.8996L12.6667 4.38122C11.3334 5.15102 9.66674 4.18877 9.66674 2.64917L9.66674 1.68757C8.58346 1.4404 7.44392 1.43212 6.33333 1.68556L6.33333 2.64915C6.33333 4.18875 4.66666 5.151 3.33333 4.3812L2.49884 3.89941Z" stroke="#FAFAFA" stroke-width="1.25" stroke-linejoin="round"/>
</svg>
