<svg width="24" height="24" viewBox="0 0 24 24" fill="none" xmlns="http://www.w3.org/2000/svg">
<path d="M12.0001 19.4001C16.087 19.4001 19.4001 16.087 19.4001 12.0001C19.4001 7.91319 16.087 4.6001 12.0001 4.6001C7.91319 4.6001 4.6001 7.91319 4.6001 12.0001C4.6001 13.2233 4.89686 14.3771 5.42232 15.3936L4.6001 19.4001L8.60662 18.5779C9.62308 19.1033 10.7769 19.4001 12.0001 19.4001Z" stroke="#ABB5BA" stroke-width="1.3" stroke-linecap="round" stroke-linejoin="round"/>
<path d="M15.5091 13.5429C15.315 13.4497 14.3677 12.9838 14.1968 12.914C14.0183 12.8518 13.894 12.8208 13.762 13.0071C13.63 13.2013 13.2651 13.6361 13.1564 13.7603C13.0477 13.8923 12.9312 13.9079 12.7371 13.8069C12.543 13.7137 11.9218 13.5041 11.1919 12.8518C10.6173 12.3394 10.2368 11.7104 10.1204 11.5163C10.0116 11.3222 10.1048 11.2212 10.2058 11.1203C10.2912 11.0349 10.3999 10.8951 10.4931 10.7864C10.5862 10.6777 10.6251 10.5923 10.6872 10.4681C10.7493 10.3361 10.7182 10.2274 10.6716 10.1342C10.6251 10.041 10.2368 9.0937 10.0815 8.70547C9.92623 8.33276 9.76317 8.37935 9.6467 8.37158H9.27399C9.14199 8.37158 8.94011 8.41817 8.76152 8.61229C8.59069 8.80641 8.09375 9.27229 8.09375 10.2196C8.09375 11.1669 8.78481 12.0831 8.87799 12.2074C8.97117 12.3394 10.2368 14.2806 12.1625 15.1114C12.6206 15.3133 12.9778 15.4297 13.2573 15.5152C13.7154 15.6627 14.1347 15.6394 14.4686 15.5928C14.8413 15.5384 15.61 15.1269 15.7653 14.6766C15.9284 14.2262 15.9284 13.8457 15.874 13.7603C15.8197 13.6749 15.7032 13.6361 15.5091 13.5429Z" fill="#ABB5BA"/>
</svg>
