<svg width="28" height="13" viewBox="0 0 28 13" fill="none" xmlns="http://www.w3.org/2000/svg">
<g id="Frame 1116601223">
<g id="Group 1116599324">
<path id="Subtract" fill-rule="evenodd" clip-rule="evenodd" d="M8.6944 0.973437C11.1737 1.24376 13.2754 3.05119 13.6576 5.51573C13.7218 5.92978 13.7608 6.35279 13.7608 6.76993C13.7608 9.18976 12.2087 11.3187 9.91303 12.1407C9.91303 12.1407 9.07422 12.5525 7.57967 12.5626C4.25662 12.3509 3.00452 10.5576 3.00452 10.5576C0.930445 8.61065 0.851168 4.64432 0.851168 4.64432V3.64694C0.84662 3.25697 0.777997 2.01009 0.0078125 0.832963C0.0078125 0.832963 3.08991 0.795911 6.81716 0.859722C7.4553 0.86935 8.07912 0.906351 8.6944 0.973437ZM7.44292 9.44188C8.48504 9.58664 10.2924 8.75709 10.2924 6.6991C10.2924 5.16808 9.01663 3.92694 7.44292 3.92694H4.25812C4.25812 3.92694 4.35374 4.87709 4.42666 6.0749C4.53791 7.9021 5.89613 9.22704 7.44292 9.44188Z" fill="#FAFAFA"/>
<path id="Subtract_2" fill-rule="evenodd" clip-rule="evenodd" d="M19.3212 0.973437C16.8419 1.24376 14.7402 3.05119 14.358 5.51573C14.2938 5.92978 14.2549 6.35279 14.2549 6.76993C14.2549 9.18976 15.8069 11.3187 18.1026 12.1407C18.1026 12.1407 18.9414 12.5525 20.436 12.5626C23.759 12.3509 25.0111 10.5576 25.0111 10.5576C27.0852 8.61065 27.1645 4.64432 27.1645 4.64432V3.64694C27.169 3.25697 27.2376 2.01009 28.0078 0.832963C28.0078 0.832963 24.9257 0.795911 21.1985 0.859722C20.5603 0.86935 19.9365 0.906351 19.3212 0.973437ZM20.5727 9.44188C19.5306 9.58664 17.7232 8.75709 17.7232 6.6991C17.7232 5.16808 18.999 3.92694 20.5727 3.92694H23.7575C23.7575 3.92694 23.6619 4.87709 23.589 6.0749C23.4777 7.9021 22.1195 9.22704 20.5727 9.44188Z" fill="#FAFAFA"/>
</g>
</g>
</svg>
