<svg width="28" height="28" viewBox="0 0 28 28" fill="none" xmlns="http://www.w3.org/2000/svg">
<circle opacity="0.16" cx="14" cy="14" r="14" fill="black"/>
<path d="M8.93444 17.5L8.48644 16.276H6.17444L5.72644 17.5H4.48644L6.64644 11.9H8.00644L10.1744 17.5H8.93444ZM6.53444 15.276H8.12644L7.33444 13.084L6.53444 15.276ZM15.7136 11.9H17.1056V17.5H15.9456V13.596L14.4496 16.148H13.5536L12.0576 13.596V17.5H10.8976V11.9H12.2896L14.0016 14.844L15.7136 11.9ZM22.2704 17.5L21.8224 16.276H19.5104L19.0624 17.5H17.8224L19.9824 11.9H21.3424L23.5104 17.5H22.2704ZM19.8704 15.276H21.4624L20.6704 13.084L19.8704 15.276Z" fill="#666666"/>
</svg>
