<svg width="200" height="201" viewBox="0 0 200 201" fill="none" xmlns="http://www.w3.org/2000/svg">
<g id="chat 1">
<path id="Vector" d="M109.762 111.979C111.522 93.1794 97.3621 78.8594 78.1621 79.9794H77.8421C75.8021 97.8594 89.4821 113.219 108.602 114.419H109.402C109.522 113.659 109.642 112.819 109.722 111.979H109.762Z" fill="white"/>
<g id="Group 1116599561">
<g id="Group">
<path id="Vector_2" d="M194.003 117.275C194.003 117.275 182.508 116.811 174.073 102.305C177.503 96.4647 179.171 89.3736 178.522 81.6335C176.669 59.8501 159.705 41.5428 140.61 40.8012L113.82 39.7352C94.725 38.9937 77.1127 55.3081 74.4246 76.2108C71.7364 97.1136 87.6801 115.189 110.02 116.58L141.444 118.573C150.25 119.129 158.176 116.858 164.433 112.64C169.253 115.977 178.986 120.473 194.003 117.275Z" fill="#D5663F"/>
<g id="Group_2">
<path id="Vector_3" d="M143.806 77.9265C143.481 81.3099 145.984 84.2761 149.321 84.6006C152.704 84.925 155.671 82.4222 155.995 79.0852C156.32 75.7018 153.817 72.7356 150.48 72.4111C147.096 72.0867 144.13 74.5895 143.806 77.9265Z" fill="#FEBC39"/>
<path id="Vector_4" d="M121.278 75.7937C120.954 79.1771 123.457 82.1433 126.794 82.4677C130.177 82.7922 133.143 80.2894 133.468 76.9524C133.792 73.569 131.29 70.6027 127.952 70.2783C124.615 69.9539 121.603 72.4566 121.278 75.7937Z" fill="#FEBC39"/>
<path id="Vector_5" d="M98.8017 73.7077C98.4773 77.0911 100.98 80.0574 104.317 80.3818C107.701 80.7062 110.667 78.2035 110.991 74.8664C111.316 71.4831 108.813 68.5168 105.476 68.1924C102.092 67.8679 99.1262 70.3707 98.8017 73.7077Z" fill="#FEBC39"/>
</g>
</g>
<g id="Group_3">
<path id="Vector_6" d="M74.6982 76.7236L43.4596 78.5775C21.2125 79.8752 4.5272 96.5604 6.10303 115.795C7.26174 129.467 16.2996 141.518 28.4892 147.543C23.8544 159.871 15.0482 162.513 15.0482 162.513C29.6015 161.911 37.3417 155.375 40.7714 151.297C42.0228 151.436 43.2742 151.575 44.572 151.575L72.1491 152.317C91.7543 152.826 109.32 135.585 111.313 113.802C113.353 92.0183 96.9453 75.4258 74.6982 76.7236Z" fill="#FEBC39"/>
<g id="Group_4">
<path id="Vector_7" d="M71.2242 114.127C71.4096 117.511 74.2832 120.106 77.6666 119.921C81.05 119.736 83.6455 116.862 83.4601 113.479C83.2747 110.095 80.4011 107.5 77.0177 107.685C73.6343 107.871 71.0388 110.744 71.2242 114.127Z" fill="#D5663F"/>
<path id="Vector_8" d="M48.6539 115.331C48.8393 118.714 51.7129 121.309 55.0963 121.124C58.4797 120.939 61.0752 118.065 60.8898 114.682C60.7044 111.298 57.8308 108.703 54.4474 108.888C51.064 109.074 48.4685 111.947 48.6539 115.331Z" fill="#D5663F"/>
<path id="Vector_9" d="M26.0797 116.534C26.265 119.917 29.1386 122.513 32.522 122.327C35.9055 122.142 38.501 119.268 38.3156 115.885C38.1302 112.501 35.2566 109.906 31.8732 110.091C28.4898 110.277 25.8943 113.15 26.0797 116.534Z" fill="#D5663F"/>
</g>
</g>
<g id="Group_5">
<g id="Group_6">
<path id="Vector_10" d="M47.2148 46.3656C46.4269 45.1606 45.5926 44.0019 44.8047 42.7969" stroke="#D5663F" stroke-width="1.66852" stroke-linecap="round" stroke-linejoin="round"/>
<path id="Vector_11" d="M57.0454 60.8283C54.4962 57.0742 51.9471 53.2737 49.3516 49.5195" stroke="#D5663F" stroke-width="1.66852" stroke-linecap="round" stroke-linejoin="round"/>
<path id="Vector_12" d="M63.4344 46.2283L61.4414 38.4883" stroke="#D5663F" stroke-width="1.66852" stroke-linecap="round" stroke-linejoin="round"/>
<path id="Vector_13" d="M66.3575 57.5352C65.6159 54.6617 64.8744 51.8345 64.1328 48.9609" stroke="#D5663F" stroke-width="1.66852" stroke-linecap="round" stroke-linejoin="round"/>
<path id="Vector_14" d="M42.8579 62.8191C40.3087 61.1969 37.7132 59.5284 35.1641 57.9062" stroke="#D5663F" stroke-width="1.66852" stroke-linecap="round" stroke-linejoin="round"/>
<path id="Vector_15" d="M48.7012 66.5297C47.7279 65.9272 46.7546 65.2783 45.7812 64.6758" stroke="#D5663F" stroke-width="1.66852" stroke-linecap="round" stroke-linejoin="round"/>
</g>
<g id="Group_7">
<path id="Vector_16" d="M124.012 137.344C126.097 140.264 127.163 141.839 129.249 144.759" stroke="#D5663F" stroke-width="1.66852" stroke-linecap="round" stroke-linejoin="round"/>
<path id="Vector_17" d="M120.258 132.066C120.814 132.854 121.324 133.596 121.88 134.384" stroke="#D5663F" stroke-width="1.66852" stroke-linecap="round" stroke-linejoin="round"/>
<path id="Vector_18" d="M138.844 134.938C140.234 135.633 141.625 136.374 143.015 137.069" stroke="#D5663F" stroke-width="1.66852" stroke-linecap="round" stroke-linejoin="round"/>
<path id="Vector_19" d="M127.539 129.145C130.181 130.489 132.869 131.879 135.511 133.223" stroke="#D5663F" stroke-width="1.66852" stroke-linecap="round" stroke-linejoin="round"/>
<path id="Vector_20" d="M116.688 151.16C117.012 152.365 117.336 153.57 117.661 154.775" stroke="#D5663F" stroke-width="1.66852" stroke-linecap="round" stroke-linejoin="round"/>
<path id="Vector_21" d="M113.723 139.855C114.511 142.822 115.298 145.742 116.04 148.708" stroke="#D5663F" stroke-width="1.66852" stroke-linecap="round" stroke-linejoin="round"/>
</g>
</g>
</g>
</g>
</svg>
