<svg width="21" height="21" viewBox="0 0 21 21" fill="none" xmlns="http://www.w3.org/2000/svg">
<g id="Dark">
<g id="Group">
<path id="Vector" d="M16.6172 16.2771H4.95052C4.70052 16.2771 4.53385 16.1937 4.36719 16.0271C4.20052 15.8604 4.11719 15.6937 4.11719 15.4437C4.11719 15.2771 4.11719 15.1937 4.20052 15.0271C4.31069 14.8618 4.4504 14.7183 4.61266 14.6038L5.78385 13.7771V8.77704C5.78385 6.52704 7.36719 4.52703 9.53385 3.94369V3.36036C9.53385 2.69369 10.1172 2.11035 10.7839 2.11035C11.4505 2.11035 12.0339 2.69369 12.0339 3.36036V3.94369C14.2005 4.52703 15.7839 6.52704 15.7839 8.77704V13.7771L17.0339 14.7771C17.0402 14.7835 17.0471 14.7898 17.0544 14.7963C17.2397 14.9604 17.4505 15.1962 17.4505 15.4437C17.4505 15.6937 17.3672 15.8604 17.2005 16.0271C17.0339 16.1937 16.8672 16.2771 16.6172 16.2771ZM6.20052 15.0271H15.3672L14.5339 14.3604V8.77704C14.5339 7.11037 13.3672 5.61036 11.7005 5.1937C11.1172 5.02703 10.4505 5.02703 9.78385 5.1937C8.20052 5.61036 7.03385 7.11037 7.03385 8.77704V14.3604L6.20052 15.0271Z" fill="white"/>
</g>
<path id="Vector_2" d="M10.7839 18.9098C9.86719 18.9098 9.11719 18.1598 9.11719 17.2432H12.4505C12.4505 18.1598 11.7005 18.9098 10.7839 18.9098Z" fill="white"/>
</g>
</svg>
