<svg width="21" height="21" viewBox="0 0 21 21" fill="none" xmlns="http://www.w3.org/2000/svg">
<path d="M3.30359 6H4.30359V5C4.30359 4.46957 4.5143 3.96086 4.88938 3.58579C5.26445 3.21071 5.77316 3 6.30359 3H14.3036C14.834 3 15.3427 3.21071 15.7178 3.58579C16.0929 3.96086 16.3036 4.46957 16.3036 5V15C16.3036 15.5304 16.0929 16.0391 15.7178 16.4142C15.3427 16.7893 14.834 17 14.3036 17H6.30359C5.77316 17 5.26445 16.7893 4.88938 16.4142C4.5143 16.0391 4.30359 15.5304 4.30359 15V14H3.30359M3.30359 10H4.30359M3.30359 8H4.30359M3.30359 12H4.30359" stroke="#FAFAFA" stroke-width="1.05" stroke-linecap="round" stroke-linejoin="round"/>
<g clip-path="url(#clip0_16938_53498)">
<path d="M7.19226 12.3335C7.19226 11.4744 7.88871 10.778 8.74782 10.778H11.8589C12.718 10.778 13.4145 11.4744 13.4145 12.3335V12.3335C13.4145 12.7631 13.0663 13.1113 12.6367 13.1113H7.97004C7.54048 13.1113 7.19226 12.7631 7.19226 12.3335V12.3335Z" stroke="#FAFAFA" stroke-width="0.6" stroke-linejoin="round"/>
<circle cx="10.3036" cy="8.05564" r="1.55556" stroke="#FAFAFA" stroke-width="0.6"/>
</g>
<defs>
<clipPath id="clip0_16938_53498">
<rect width="9.33333" height="9.33333" fill="white" transform="translate(5.63684 5.33334)"/>
</clipPath>
</defs>
</svg>
