<svg width="60" height="34" viewBox="0 0 60 34" fill="none" xmlns="http://www.w3.org/2000/svg">
<path d="M19.037 20.7181H24.343V22.3281H17.273V12.5281H24.203V14.1381H19.037V16.5881H23.895V18.1841H19.037V20.7181ZM31.4191 12.0801H33.1271V22.3281H31.4471V21.1941C31.0271 22.0341 30.0891 22.5241 29.0111 22.5241C27.1071 22.5241 25.7351 20.9981 25.7351 18.7721C25.7351 16.5461 27.1071 15.0061 29.0111 15.0061C30.0611 15.0061 30.9851 15.4821 31.4191 16.2941V12.0801ZM29.4871 20.9701C30.7191 20.9701 31.4891 20.0601 31.4891 18.7721C31.4891 17.4701 30.7191 16.5601 29.4871 16.5601C28.2551 16.5601 27.4851 17.4701 27.4851 18.7721C27.4851 20.0601 28.2551 20.9701 29.4871 20.9701ZM36.1293 14.0121C35.4713 14.0121 35.0373 13.5641 35.0373 12.9481C35.0373 12.3321 35.4713 11.8841 36.1293 11.8841C36.7733 11.8841 37.2073 12.3321 37.2073 12.9481C37.2073 13.5641 36.7733 14.0121 36.1293 14.0121ZM35.2753 22.3281V15.2021H36.9833V22.3281H35.2753ZM42.0707 22.4401C40.4607 22.4401 39.7047 21.7541 39.7047 20.2421V16.7001H38.3607V15.2021H39.7047V13.1021H41.4127V15.2021H43.4287V16.7001H41.4127V20.0181C41.4127 20.6761 41.7067 20.9141 42.4347 20.9141C42.7287 20.9141 43.0927 20.8861 43.4567 20.8021V22.2441C42.9947 22.3841 42.5327 22.4401 42.0707 22.4401Z" fill="#FAFAFA"/>
<rect x="0.25" y="0.578125" width="59.5" height="32.5" rx="16.25" stroke="#FAFAFA" stroke-width="0.5"/>
</svg>
