<svg width="100" height="33" viewBox="0 0 100 33" fill="none" xmlns="http://www.w3.org/2000/svg">
<rect x="0.5" y="0.5" width="99" height="32" rx="16" fill="#F07878" fill-opacity="0.08"/>
<rect x="0.5" y="0.5" width="99" height="32" rx="16" stroke="#F07878"/>
<path d="M27.0368 22.196C24.5728 22.196 22.9348 20.838 22.9348 18.416V12.2H24.7128V18.276C24.7128 19.76 25.5248 20.516 27.0368 20.516C28.5488 20.516 29.3608 19.76 29.3608 18.276V12.2H31.1388V18.416C31.1388 20.838 29.5008 22.196 27.0368 22.196ZM37.3154 14.678C38.8554 14.678 39.7934 15.644 39.7934 17.38V22H38.0854V17.814C38.0854 16.736 37.6654 16.246 36.7274 16.246C35.6914 16.246 35.0054 16.848 35.0054 17.912V22H33.2974V14.874H34.9774V15.966C35.3694 15.168 36.2234 14.678 37.3154 14.678ZM45.972 14.678C47.876 14.678 49.248 16.218 49.248 18.444C49.248 20.67 47.876 22.196 45.972 22.196C44.894 22.196 43.956 21.706 43.536 20.866V22H41.856V11.752H43.564V15.966C43.998 15.154 44.922 14.678 45.972 14.678ZM45.496 20.642C46.714 20.642 47.498 19.732 47.498 18.444C47.498 17.142 46.714 16.232 45.496 16.232C44.264 16.232 43.494 17.142 43.494 18.444C43.494 19.732 44.264 20.642 45.496 20.642ZM50.9341 22V11.752H52.6421V22H50.9341ZM58.0662 22.196C55.7842 22.196 54.3142 20.502 54.3142 18.444C54.3142 16.372 55.7842 14.678 58.0662 14.678C60.3622 14.678 61.8182 16.372 61.8182 18.444C61.8182 20.502 60.3622 22.196 58.0662 22.196ZM58.0662 20.642C59.2982 20.642 60.0682 19.732 60.0682 18.444C60.0682 17.142 59.2982 16.232 58.0662 16.232C56.8342 16.232 56.0642 17.142 56.0642 18.444C56.0642 19.732 56.8342 20.642 58.0662 20.642ZM66.7606 22.196C64.5346 22.196 63.0506 20.642 63.0506 18.444C63.0506 16.232 64.5346 14.678 66.7606 14.678C68.1326 14.678 69.2526 15.28 69.8406 16.288L68.5526 17.198C68.1466 16.554 67.5306 16.246 66.8026 16.246C65.5986 16.246 64.8006 17.1 64.8006 18.444C64.8006 19.774 65.5986 20.642 66.8026 20.642C67.5306 20.642 68.1466 20.32 68.5526 19.676L69.8406 20.586C69.2526 21.608 68.1326 22.196 66.7606 22.196ZM76.0249 22L73.8129 19.004H72.9449V22H71.2369V11.752H72.9449V17.52H73.8689L75.9689 14.874H77.9709L75.2409 18.262L78.0269 22H76.0249Z" fill="#F07878"/>
</svg>
