<svg width="25" height="24" viewBox="0 0 25 24" fill="none" xmlns="http://www.w3.org/2000/svg">
<g id="bxl:play-store">
<path id="Vector" d="M13.3642 11.6157L16.3212 8.65871L6.77016 3.29071C6.13716 2.94871 5.54416 2.90071 5.02416 3.27471L13.3642 11.6157ZM16.8252 15.0777L19.8992 13.3487C20.4992 13.0127 20.8282 12.5367 20.8282 12.0087C20.8282 11.4817 20.4992 11.0047 19.9002 10.6687L17.1172 9.10571L13.9842 12.2377L16.8252 15.0777ZM4.51016 4.00171C4.44616 4.19871 4.41016 4.41871 4.41016 4.65971V19.3647C4.41016 19.7457 4.49416 20.0737 4.64616 20.3347L12.7432 12.2367L4.51016 4.00171ZM13.3642 12.8567L5.31216 20.9097C5.46616 20.9687 5.63216 20.9997 5.80716 20.9997C6.11916 20.9997 6.44416 20.9077 6.77516 20.7237L16.0302 15.5267L13.3642 12.8567Z" fill="#D5663F"/>
</g>
</svg>
