<svg width="200" height="150" viewBox="0 0 200 150" fill="none" xmlns="http://www.w3.org/2000/svg">
<g id="chat 3">
<g id="Group 1116599561">
<g id="Group">
<path id="Vector" d="M193.999 91.7748C193.999 91.7748 182.504 91.3113 174.069 76.8045C177.499 70.9647 179.167 63.8736 178.519 56.1335C176.665 34.3501 159.701 16.0428 140.606 15.3012L113.817 14.2352C94.7211 13.4937 77.1088 29.8081 74.4207 50.7108C71.7325 71.6136 87.6762 89.6892 110.016 91.0796L141.44 93.0726C150.246 93.6287 158.172 91.3577 164.429 87.1401C169.249 90.4771 178.982 94.9728 193.999 91.7748Z" fill="#D5663F"/>
<g id="Group_2">
<path id="Vector_2" d="M143.802 52.4226C143.477 55.806 145.98 58.7722 149.317 59.0966C152.701 59.4211 155.667 56.9183 155.991 53.5813C156.316 50.1979 153.813 47.2317 150.476 46.9072C147.092 46.5828 144.126 49.0856 143.802 52.4226Z" fill="white"/>
<path id="Vector_3" d="M121.274 50.2898C120.95 53.6731 123.453 56.6394 126.79 56.9638C130.173 57.2883 133.14 54.7855 133.464 51.4485C133.788 48.0651 131.286 45.0988 127.949 44.7744C124.611 44.45 121.599 46.9527 121.274 50.2898Z" fill="white"/>
<path id="Vector_4" d="M98.7978 48.2038C98.4734 51.5872 100.976 54.5535 104.313 54.8779C107.697 55.2023 110.663 52.6995 110.987 49.3625C111.312 45.9791 108.809 43.0129 105.472 42.6885C102.089 42.364 99.1223 44.8668 98.7978 48.2038Z" fill="white"/>
</g>
</g>
<g id="Group_3">
<path id="Vector_5" d="M74.6982 51.2236L43.4596 53.0775C21.2125 54.3752 4.5272 71.0603 6.10303 90.2946C7.26174 103.967 16.2996 116.018 28.4892 122.043C23.8544 134.371 15.0482 137.013 15.0482 137.013C29.6015 136.41 37.3417 129.875 40.7714 125.797C42.0228 125.936 43.2742 126.075 44.572 126.075L72.1491 126.817C91.7544 127.326 109.32 110.085 111.313 88.3017C113.353 66.5183 96.9453 49.9258 74.6982 51.2236Z" fill="white"/>
<g id="Group_4">
<path id="Vector_6" d="M71.2242 88.6274C71.4096 92.0108 74.2832 94.6063 77.6666 94.4209C81.05 94.2355 83.6455 91.362 83.4601 87.9786C83.2747 84.5952 80.4011 81.9997 77.0177 82.1851C73.6343 82.3705 71.0388 85.2441 71.2242 88.6274Z" fill="#D5663F"/>
<path id="Vector_7" d="M48.6539 89.8306C48.8393 93.2139 51.7129 95.8094 55.0963 95.624C58.4797 95.4386 61.0752 92.5651 60.8898 89.1817C60.7044 85.7983 57.8308 83.2029 54.4474 83.3883C51.064 83.5736 48.4685 86.4472 48.6539 89.8306Z" fill="#D5663F"/>
<path id="Vector_8" d="M26.0797 91.0337C26.265 94.4171 29.1386 97.0125 32.522 96.8271C35.9055 96.6418 38.501 93.7682 38.3156 90.3848C38.1302 87.0015 35.2566 84.406 31.8732 84.5914C28.4898 84.7768 25.8943 87.6503 26.0797 91.0337Z" fill="#D5663F"/>
</g>
</g>
<g id="Group_5">
<g id="Group_6">
<path id="Vector_9" d="M47.2148 20.8656C46.4269 19.6606 45.5926 18.5019 44.8047 17.2969" stroke="#D5663F" stroke-width="1.66852" stroke-linecap="round" stroke-linejoin="round"/>
<path id="Vector_10" d="M57.0454 35.3283C54.4962 31.5742 51.9471 27.7737 49.3516 24.0195" stroke="#D5663F" stroke-width="1.66852" stroke-linecap="round" stroke-linejoin="round"/>
<path id="Vector_11" d="M63.4344 20.7283L61.4414 12.9883" stroke="#D5663F" stroke-width="1.66852" stroke-linecap="round" stroke-linejoin="round"/>
<path id="Vector_12" d="M66.3575 32.0352C65.6159 29.1617 64.8744 26.3345 64.1328 23.4609" stroke="#D5663F" stroke-width="1.66852" stroke-linecap="round" stroke-linejoin="round"/>
<path id="Vector_13" d="M42.8579 37.3152C40.3087 35.693 37.7132 34.0245 35.1641 32.4023" stroke="#D5663F" stroke-width="1.66852" stroke-linecap="round" stroke-linejoin="round"/>
<path id="Vector_14" d="M48.7012 41.0297C47.7279 40.4272 46.7546 39.7783 45.7812 39.1758" stroke="#D5663F" stroke-width="1.66852" stroke-linecap="round" stroke-linejoin="round"/>
</g>
<g id="Group_7">
<path id="Vector_15" d="M124.012 111.844C126.097 114.764 127.163 116.339 129.249 119.259" stroke="#D5663F" stroke-width="1.66852" stroke-linecap="round" stroke-linejoin="round"/>
<path id="Vector_16" d="M120.258 106.566C120.814 107.354 121.324 108.096 121.88 108.884" stroke="#D5663F" stroke-width="1.66852" stroke-linecap="round" stroke-linejoin="round"/>
<path id="Vector_17" d="M138.844 109.438C140.234 110.133 141.625 110.874 143.015 111.569" stroke="#D5663F" stroke-width="1.66852" stroke-linecap="round" stroke-linejoin="round"/>
<path id="Vector_18" d="M127.539 103.645C130.181 104.989 132.869 106.379 135.511 107.723" stroke="#D5663F" stroke-width="1.66852" stroke-linecap="round" stroke-linejoin="round"/>
<path id="Vector_19" d="M116.688 125.66C117.012 126.865 117.336 128.07 117.661 129.275" stroke="#D5663F" stroke-width="1.66852" stroke-linecap="round" stroke-linejoin="round"/>
<path id="Vector_20" d="M113.723 114.355C114.511 117.322 115.298 120.242 116.04 123.208" stroke="#D5663F" stroke-width="1.66852" stroke-linecap="round" stroke-linejoin="round"/>
</g>
</g>
</g>
</g>
</svg>
