<svg width="24" height="24" viewBox="0 0 24 24" fill="none" xmlns="http://www.w3.org/2000/svg">
<g id="fluent:gif-24-regular">
<g id="Group 1116599390">
<path id="Vector" d="M8.26181 8.875C8.85781 8.875 9.28081 8.957 9.76381 9.189C9.83781 9.22452 9.90409 9.27427 9.95886 9.33541C10.0136 9.39655 10.0558 9.46787 10.083 9.54532C10.1102 9.62276 10.1219 9.70481 10.1174 9.78677C10.1129 9.86873 10.0923 9.949 10.0568 10.023C10.0213 10.097 9.97154 10.1633 9.9104 10.2181C9.84927 10.2728 9.77794 10.315 9.70049 10.3422C9.62305 10.3694 9.54101 10.3811 9.45904 10.3766C9.37708 10.3721 9.29681 10.3515 9.22281 10.316C8.92281 10.172 8.68281 10.126 8.26181 10.126C7.39481 10.126 6.75781 10.922 6.75781 11.998C6.75781 13.075 7.39581 13.874 8.26181 13.874C8.68981 13.874 9.05281 13.694 9.24181 13.373L9.24681 13.358V12.624H8.87081C8.72117 12.624 8.57651 12.5703 8.4631 12.4727C8.34969 12.375 8.27508 12.24 8.25281 12.092L8.24681 12C8.24681 11.686 8.47781 11.426 8.77981 11.381L8.87181 11.375H9.87381C10.1878 11.375 10.4468 11.605 10.4918 11.907L10.4988 12L10.4968 13.547L10.4908 13.603L10.4698 13.693L10.4498 13.748C10.0728 14.638 9.20881 15.124 8.26181 15.124C6.63581 15.124 5.50781 13.711 5.50781 11.998C5.50781 10.285 6.63481 8.875 8.26181 8.875ZM12.8758 8.997C13.1898 8.997 13.4498 9.229 13.4938 9.53L13.5008 9.622V14.385C13.5005 14.5426 13.4407 14.6942 13.3333 14.8095C13.226 14.9249 13.0791 14.9954 12.9219 15.007C12.7648 15.0187 12.6091 14.9705 12.486 14.8722C12.3628 14.774 12.2813 14.6328 12.2578 14.477L12.2508 14.385V9.622C12.2508 9.277 12.5308 8.997 12.8758 8.997ZM15.8718 8.997L17.8688 9.004C18.0272 9.00359 18.1799 9.06334 18.2959 9.17118C18.4119 9.27901 18.4827 9.42689 18.4939 9.5849C18.5051 9.74291 18.4558 9.89927 18.3561 10.0224C18.2564 10.1455 18.1137 10.2261 17.9568 10.248L17.8648 10.254L16.4938 10.249V12.003H17.6168C17.9308 12.003 18.1908 12.235 18.2348 12.537L18.2418 12.629C18.2418 12.7788 18.1879 12.9236 18.0901 13.037C17.9923 13.1504 17.857 13.225 17.7088 13.247L17.6168 13.254L16.4938 13.253V14.368C16.494 14.5178 16.4405 14.6627 16.3428 14.7763C16.2452 14.8899 16.11 14.9647 15.9618 14.987L15.8698 14.993C15.72 14.9932 15.5751 14.9396 15.4615 14.842C15.3479 14.7443 15.2731 14.6091 15.2508 14.461L15.2448 14.368V9.62C15.2454 9.47041 15.2996 9.32598 15.3976 9.21295C15.4955 9.09992 15.6308 9.02578 15.7788 9.004L15.8718 8.997Z" fill="#9399A9"/>
<path id="Vector_2" d="M18.75 4.23138C19.1768 4.23138 19.5994 4.3082 19.9937 4.45746C20.388 4.60671 20.7463 4.82548 21.0481 5.10127C21.3499 5.37706 21.5893 5.70446 21.7526 6.0648C21.9159 6.42513 22 6.81134 22 7.20136V16.7994C22 17.1894 21.9159 17.5756 21.7526 17.936C21.5893 18.2963 21.3499 18.6237 21.0481 18.8995C20.7463 19.1753 20.388 19.3941 19.9937 19.5433C19.5994 19.6926 19.1768 19.7694 18.75 19.7694H5.25C4.38805 19.7694 3.5614 19.4565 2.9519 18.8995C2.34241 18.3425 2 17.5871 2 16.7994V7.20044C2 6.41276 2.34241 5.65733 2.9519 5.10035C3.5614 4.54338 4.38805 4.23047 5.25 4.23047L18.75 4.23138ZM18.75 5.60214H5.25C4.78587 5.60214 4.34075 5.77063 4.01256 6.07054C3.68437 6.37045 3.5 6.77722 3.5 7.20136V16.7994C3.5 17.6822 4.284 18.3986 5.25 18.3986H18.75C19.2141 18.3986 19.6592 18.2301 19.9874 17.9302C20.3156 17.6303 20.5 17.2235 20.5 16.7994V7.20044C20.5 6.77631 20.3156 6.36954 19.9874 6.06963C19.6592 5.76972 19.2141 5.60214 18.75 5.60214Z" fill="#9399A9"/>
</g>
</g>
</svg>
