<svg width="24" height="24" viewBox="0 0 24 24" fill="none" xmlns="http://www.w3.org/2000/svg">
<g id="Icon Frame">
<path id="Vector 70" d="M3 16.9997V6.99997C3 5.89542 3.89542 5 4.99997 5H10H19C20.1046 5 21 5.89542 21 6.99997V16.9997C21 18.1042 20.1046 18.9996 19 18.9996H4.99997C3.89542 18.9996 3 18.1042 3 16.9997Z" stroke="#9399A9" stroke-width="1.49998" stroke-linecap="round" stroke-linejoin="round"/>
<rect id="Rectangle 86" x="16.5938" y="8.05859" width="0.0103701" height="0.0103701" stroke="#9399A9" stroke-width="2.19997" stroke-linejoin="round"/>
<path id="Vector 282" d="M3.03125 14.5463L7.17453 10.5581C7.53113 10.2149 8.08518 10.1841 8.47756 10.4858L13.6717 14.4797M19.2293 18.9984L13.6717 14.4797M20.904 15.279L17.0385 12.5182C16.6579 12.2464 16.1398 12.2746 15.791 12.5862L13.6717 14.4797" stroke="#9399A9" stroke-width="1.49998"/>
</g>
</svg>
