<svg width="21" height="21" viewBox="0 0 21 21" fill="none" xmlns="http://www.w3.org/2000/svg">
<g clip-path="url(#clip0_4455_11395)">
<path d="M18 10.8516C18 6.70943 14.6421 3.35156 10.5 3.35156C6.35786 3.35156 3 6.70943 3 10.8516C3 12.0913 3.30078 13.2607 3.83333 14.2909L3 18.3516L7.06066 17.5182C8.09086 18.0508 9.26031 18.3516 10.5 18.3516" stroke="#FAFAFA" stroke-width="1.25" stroke-linecap="round" stroke-linejoin="round"/>
<rect x="6.75" y="10.8516" width="0.00885417" height="0.00885417" stroke="#FAFAFA" stroke-width="2.20833" stroke-linejoin="round"/>
<rect x="10.5" y="10.8516" width="0.00885417" height="0.00885417" stroke="#FAFAFA" stroke-width="2.20833" stroke-linejoin="round"/>
<rect x="14.25" y="10.8516" width="0.00885417" height="0.00885417" stroke="#FAFAFA" stroke-width="2.20833" stroke-linejoin="round"/>
<g clip-path="url(#clip1_4455_11395)">
<path fill-rule="evenodd" clip-rule="evenodd" d="M13.168 16.849C13.168 15.008 14.6604 13.5156 16.5013 13.5156C18.3423 13.5156 19.8346 15.008 19.8346 16.849C19.8346 18.6899 18.3423 20.1823 16.5013 20.1823C14.6604 20.1823 13.168 18.6899 13.168 16.849ZM18.355 16.203C18.5503 16.0077 18.5503 15.6912 18.355 15.4959C18.1598 15.3006 17.8432 15.3006 17.6479 15.4959L16.0015 17.1423L15.355 16.4959C15.1598 16.3006 14.8432 16.3006 14.6479 16.4959C14.4526 16.6912 14.4526 17.0077 14.6479 17.203L15.6479 18.203C15.8432 18.3983 16.1598 18.3983 16.355 18.203L18.355 16.203Z" fill="#FAFAFA"/>
</g>
</g>
<defs>
<clipPath id="clip0_4455_11395">
<rect width="20" height="20" fill="white" transform="translate(0.5 0.851562)"/>
</clipPath>
<clipPath id="clip1_4455_11395">
<rect width="8" height="8" fill="white" transform="translate(12.5 12.8516)"/>
</clipPath>
</defs>
</svg>
