<svg width="25" height="25" viewBox="0 0 25 25" fill="none" xmlns="http://www.w3.org/2000/svg">
<g clip-path="url(#clip0_4455_13645)">
<path fill-rule="evenodd" clip-rule="evenodd" d="M2.32033 12.0234C2.32033 6.50059 6.79748 2.02344 12.3203 2.02344C17.8432 2.02344 22.3203 6.50059 22.3203 12.0234C22.3203 17.5463 17.8432 22.0234 12.3203 22.0234C10.7976 22.0234 9.35212 21.6824 8.05814 21.072L3.52136 22.003C3.19209 22.0706 2.8509 21.9682 2.61322 21.7305C2.37554 21.4929 2.27317 21.1517 2.34074 20.8224L3.27179 16.2856C2.66132 14.9916 2.32033 13.5461 2.32033 12.0234ZM7.82031 10.5234C6.99189 10.5234 6.32031 11.195 6.32031 12.0234V12.0334C6.32031 12.8619 6.99189 13.5334 7.82031 13.5334H7.83031C8.65874 13.5334 9.33031 12.8619 9.33031 12.0334V12.0234C9.33031 11.195 8.65874 10.5234 7.83031 10.5234H7.82031ZM12.3203 10.5234C11.4919 10.5234 10.8203 11.195 10.8203 12.0234V12.0334C10.8203 12.8619 11.4919 13.5334 12.3203 13.5334H12.3303C13.1587 13.5334 13.8303 12.8619 13.8303 12.0334V12.0234C13.8303 11.195 13.1587 10.5234 12.3303 10.5234H12.3203ZM15.3203 12.0234C15.3203 11.195 15.9919 10.5234 16.8203 10.5234H16.8303C17.6587 10.5234 18.3303 11.195 18.3303 12.0234V12.0334C18.3303 12.8619 17.6587 13.5334 16.8303 13.5334H16.8203C15.9919 13.5334 15.3203 12.8619 15.3203 12.0334V12.0234Z" fill="#FAFAFA"/>
</g>
<defs>
<clipPath id="clip0_4455_13645">
<rect width="24" height="24" fill="white" transform="translate(0.320312 0.0234375)"/>
</clipPath>
</defs>
</svg>
