<svg width="61" height="60" viewBox="0 0 61 60" fill="none" xmlns="http://www.w3.org/2000/svg">
<g id="Community DPs">
<circle id="Ellipse 88" cx="30.2198" cy="30" r="30" fill="#ADADAD" fill-opacity="0.2"/>
<g id="Group 1116599324">
<path id="Subtract" fill-rule="evenodd" clip-rule="evenodd" d="M22.9789 24.206C26.3578 24.5744 29.222 27.0376 29.7429 30.3964C29.8304 30.9606 29.8835 31.5371 29.8835 32.1056C29.8835 35.4034 27.7683 38.3047 24.6397 39.4251C24.6397 39.4251 23.4965 39.9862 21.4597 40C16.931 39.7115 15.2246 37.2676 15.2246 37.2676C12.398 34.6142 12.29 29.2088 12.29 29.2088V27.8495C12.2838 27.3181 12.1903 25.6188 11.1406 24.0146C11.1406 24.0146 15.341 23.9641 20.4206 24.051C21.2902 24.0642 22.1404 24.1146 22.9789 24.206ZM21.2734 35.747C22.6936 35.9443 25.1567 34.8138 25.1567 32.0091C25.1567 29.9226 23.4181 28.2311 21.2734 28.2311H16.933C16.933 28.2311 17.0634 29.526 17.1627 31.1584C17.3143 33.6486 19.1654 35.4542 21.2734 35.747Z" fill="#ADADAD"/>
<path id="Subtract_2" fill-rule="evenodd" clip-rule="evenodd" d="M37.461 24.206C34.0822 24.5744 31.2179 27.0376 30.697 30.3964C30.6095 30.9606 30.5564 31.5371 30.5564 32.1056C30.5564 35.4034 32.6717 38.3047 35.8002 39.4251C35.8002 39.4251 36.9434 39.9862 38.9802 40C43.5089 39.7115 45.2153 37.2676 45.2153 37.2676C48.0419 34.6142 48.15 29.2088 48.15 29.2088V27.8495C48.1562 27.3181 48.2497 25.6188 49.2993 24.0146C49.2993 24.0146 45.099 23.9641 40.0194 24.051C39.1497 24.0642 38.2995 24.1146 37.461 24.206ZM39.1666 35.747C37.7463 35.9443 35.2832 34.8138 35.2832 32.0091C35.2832 29.9226 37.0219 28.2311 39.1666 28.2311H43.5069C43.5069 28.2311 43.3766 29.526 43.2772 31.1584C43.1256 33.6486 41.2746 35.4542 39.1666 35.747Z" fill="#ADADAD"/>
</g>
</g>
</svg>
