<svg width="50" height="50" viewBox="0 0 36 36" fill="none" xmlns="http://www.w3.org/2000/svg">
<circle cx="18" cy="18" r="17.25" stroke="#7D7D7D" stroke-width="1.5"/>
<g clip-path="url(#clip0_21862_23948)">
<path fill-rule="evenodd" clip-rule="evenodd" d="M18.8996 10.2695C18.8996 9.77245 18.4967 9.36951 17.9996 9.36951C17.5026 9.36951 17.0996 9.77245 17.0996 10.2695V16.7523H10.6168C10.1197 16.7523 9.7168 17.1553 9.7168 17.6523C9.7168 18.1494 10.1197 18.5523 10.6168 18.5523H17.0996V25.035C17.0996 25.532 17.5026 25.935 17.9996 25.935C18.4967 25.935 18.8996 25.532 18.8996 25.035V18.5523H25.3823C25.8793 18.5523 26.2823 18.1494 26.2823 17.6523C26.2823 17.1553 25.8793 16.7523 25.3823 16.7523H18.8996V10.2695Z" fill="#7D7D7D"/>
</g>
<defs>
<clipPath id="clip0_21862_23948">
<rect width="21.6" height="21.6" fill="white" transform="translate(7.19922 7.2002)"/>
</clipPath>
</defs>
</svg>
