<svg width="11" height="11" viewBox="0 0 11 11" fill="none" xmlns="http://www.w3.org/2000/svg">
<g id="ep:arrow-right-bold">
<path id="Vector" d="M4.39907 9.21069C4.2028 9.20954 4.00899 9.16694 3.83032 9.08569C3.63709 9.00052 3.47246 8.86152 3.35609 8.6853C3.23972 8.50909 3.17653 8.3031 3.17407 8.09194V2.82944C3.17653 2.61828 3.23972 2.41229 3.35609 2.23608C3.47246 2.05986 3.63709 1.92087 3.83032 1.83569C4.05266 1.73067 4.30003 1.69022 4.54424 1.71895C4.78845 1.74768 5.01968 1.84444 5.21157 1.99819L8.39907 4.62944C8.52407 4.72895 8.62501 4.85537 8.6944 4.99929C8.76378 5.14321 8.79981 5.30092 8.79981 5.46069C8.79981 5.62046 8.76378 5.77817 8.6944 5.92209C8.62501 6.06601 8.52407 6.19243 8.39907 6.29194L5.21157 8.92319C4.98181 9.10952 4.69489 9.21104 4.39907 9.21069Z" fill="#FAFAFA" fill-opacity="0.7"/>
</g>
</svg>
