<svg width="24" height="24" viewBox="0 0 24 24" fill="none" xmlns="http://www.w3.org/2000/svg">
<g id="fluent:live-24-regular">
<path id="Vector" d="M5.98975 4.92914C6.1302 5.06976 6.20909 5.26039 6.20909 5.45914C6.20909 5.65789 6.1302 5.84851 5.98975 5.98914C5.20042 6.77844 4.5743 7.71548 4.14711 8.74677C3.71993 9.77805 3.50007 10.8834 3.50007 11.9996C3.50007 13.1159 3.71993 14.2212 4.14711 15.2525C4.5743 16.2838 5.20042 17.2208 5.98975 18.0101C6.1263 18.1517 6.20181 18.3411 6.20001 18.5378C6.19821 18.7344 6.11924 18.9225 5.98012 19.0615C5.841 19.2005 5.65285 19.2793 5.4562 19.2809C5.25955 19.2825 5.07014 19.2068 4.92875 19.0701C1.02375 15.1651 1.02375 8.83414 4.92875 4.92914C5.06938 4.78869 5.26 4.7098 5.45875 4.7098C5.6575 4.7098 5.84812 4.78869 5.98875 4.92914H5.98975ZM19.0707 4.92914C22.9757 8.83414 22.9757 15.1651 19.0707 19.0711C18.9286 19.2036 18.7405 19.2757 18.5462 19.2723C18.3519 19.2689 18.1665 19.1902 18.0291 19.0528C17.8917 18.9153 17.813 18.73 17.8096 18.5357C17.8061 18.3414 17.8783 18.1533 18.0107 18.0111C18.8002 17.2218 19.4265 16.2847 19.8538 15.2533C20.281 14.222 20.5009 13.1165 20.5009 12.0001C20.5009 10.8838 20.281 9.77832 19.8538 8.74694C19.4265 7.71557 18.8002 6.77846 18.0107 5.98914C17.9371 5.92048 17.878 5.83768 17.837 5.74568C17.796 5.65368 17.7739 5.55436 17.7722 5.45366C17.7704 5.35296 17.7889 5.25293 17.8266 5.15954C17.8643 5.06615 17.9205 4.98132 17.9917 4.9101C18.0629 4.83888 18.1478 4.78274 18.2412 4.74502C18.3345 4.70729 18.4346 4.68877 18.5353 4.69055C18.636 4.69232 18.7353 4.71437 18.8273 4.75536C18.9193 4.79635 19.0021 4.85545 19.0707 4.92914ZM8.81775 7.75714C8.9582 7.89776 9.03709 8.08839 9.03709 8.28714C9.03709 8.48589 8.9582 8.67651 8.81775 8.81714C8.39973 9.23502 8.06813 9.73116 7.84189 10.2772C7.61566 10.8233 7.49921 11.4086 7.49921 11.9996C7.49921 12.5907 7.61566 13.176 7.84189 13.7221C8.06813 14.2681 8.39973 14.7643 8.81775 15.1821C8.95023 15.3243 9.02235 15.5124 9.01892 15.7067C9.0155 15.901 8.93678 16.0863 8.79937 16.2238C8.66196 16.3612 8.47657 16.4399 8.28227 16.4433C8.08797 16.4467 7.89993 16.3746 7.75775 16.2421C6.63262 15.1169 6.00053 13.5909 6.00053 11.9996C6.00053 10.4084 6.63262 8.88235 7.75775 7.75714C7.89838 7.61669 8.089 7.5378 8.28775 7.5378C8.4865 7.5378 8.67712 7.61669 8.81775 7.75714ZM16.2428 7.75714C17.3679 8.88235 18 10.4084 18 11.9996C18 13.5909 17.3679 15.1169 16.2428 16.2421C16.1736 16.3138 16.0909 16.371 15.9994 16.4103C15.9079 16.4497 15.8095 16.4704 15.7099 16.4713C15.6103 16.4722 15.5116 16.4533 15.4194 16.4156C15.3272 16.378 15.2434 16.3223 15.173 16.2519C15.1025 16.1816 15.0468 16.0978 15.009 16.0057C14.9713 15.9135 14.9522 15.8148 14.9531 15.7152C14.9539 15.6156 14.9745 15.5172 15.0138 15.4257C15.0531 15.3341 15.1102 15.2514 15.1818 15.1821C15.5996 14.7643 15.9311 14.2682 16.1572 13.7222C16.3834 13.1763 16.4998 12.5911 16.4998 12.0001C16.4998 11.4092 16.3834 10.824 16.1572 10.2781C15.9311 9.73208 15.5996 9.236 15.1818 8.81814C15.0493 8.67596 14.9771 8.48792 14.9806 8.29362C14.984 8.09931 15.0627 7.91393 15.2001 7.77652C15.3375 7.6391 15.5229 7.56039 15.7172 7.55696C15.9115 7.55354 16.0996 7.62566 16.2418 7.75814L16.2428 7.75714ZM11.9998 10.5001C12.3976 10.5001 12.7791 10.6582 13.0604 10.9395C13.3417 11.2208 13.4998 11.6023 13.4998 12.0001C13.4998 12.398 13.3417 12.7795 13.0604 13.0608C12.7791 13.3421 12.3976 13.5001 11.9998 13.5001C11.6019 13.5001 11.2204 13.3421 10.9391 13.0608C10.6578 12.7795 10.4998 12.398 10.4998 12.0001C10.4998 11.6023 10.6578 11.2208 10.9391 10.9395C11.2204 10.6582 11.6019 10.5001 11.9998 10.5001Z" fill="#FAFAFA"/>
</g>
</svg>
