<svg width="78" height="33" viewBox="0 0 78 33" fill="none" xmlns="http://www.w3.org/2000/svg">
<rect width="78" height="33" rx="16.5" fill="#D5663F"/>
<path d="M24.3495 13.81H19.2395V16.386H24.0695V18.024H19.2395V22H17.4615V12.2H24.3495V13.81ZM29.2518 22.196C26.9698 22.196 25.4998 20.502 25.4998 18.444C25.4998 16.372 26.9698 14.678 29.2518 14.678C31.5478 14.678 33.0038 16.372 33.0038 18.444C33.0038 20.502 31.5478 22.196 29.2518 22.196ZM29.2518 20.642C30.4838 20.642 31.2538 19.732 31.2538 18.444C31.2538 17.142 30.4838 16.232 29.2518 16.232C28.0198 16.232 27.2498 17.142 27.2498 18.444C27.2498 19.732 28.0198 20.642 29.2518 20.642ZM34.6841 22V11.752H36.3921V22H34.6841ZM38.5122 22V11.752H40.2202V22H38.5122ZM45.6444 22.196C43.3624 22.196 41.8924 20.502 41.8924 18.444C41.8924 16.372 43.3624 14.678 45.6444 14.678C47.9404 14.678 49.3964 16.372 49.3964 18.444C49.3964 20.502 47.9404 22.196 45.6444 22.196ZM45.6444 20.642C46.8764 20.642 47.6464 19.732 47.6464 18.444C47.6464 17.142 46.8764 16.232 45.6444 16.232C44.4124 16.232 43.6424 17.142 43.6424 18.444C43.6424 19.732 44.4124 20.642 45.6444 20.642ZM59.8016 14.874H61.5517L59.3116 22H57.4216L55.8396 16.974L54.2436 22H52.3536L50.1276 14.874H51.8636L53.3756 20.012L54.9996 14.874H56.6796L58.3036 20.012L59.8016 14.874Z" fill="#FAFAFA"/>
</svg>
