<svg width="100" height="33" viewBox="0 0 100 33" fill="none" xmlns="http://www.w3.org/2000/svg">
<rect width="100" height="33" rx="16.5" fill="#888888" fill-opacity="0.08"/>
<path d="M24.6034 13.81H19.4934V16.386H24.3234V18.024H19.4934V22H17.7154V12.2H24.6034V13.81ZM29.5057 22.196C27.2237 22.196 25.7537 20.502 25.7537 18.444C25.7537 16.372 27.2237 14.678 29.5057 14.678C31.8017 14.678 33.2577 16.372 33.2577 18.444C33.2577 20.502 31.8017 22.196 29.5057 22.196ZM29.5057 20.642C30.7377 20.642 31.5077 19.732 31.5077 18.444C31.5077 17.142 30.7377 16.232 29.5057 16.232C28.2737 16.232 27.5037 17.142 27.5037 18.444C27.5037 19.732 28.2737 20.642 29.5057 20.642ZM34.938 22V11.752H36.646V22H34.938ZM38.7661 22V11.752H40.4741V22H38.7661ZM45.8983 22.196C43.6163 22.196 42.1463 20.502 42.1463 18.444C42.1463 16.372 43.6163 14.678 45.8983 14.678C48.1943 14.678 49.6503 16.372 49.6503 18.444C49.6503 20.502 48.1943 22.196 45.8983 22.196ZM45.8983 20.642C47.1303 20.642 47.9003 19.732 47.9003 18.444C47.9003 17.142 47.1303 16.232 45.8983 16.232C44.6663 16.232 43.8963 17.142 43.8963 18.444C43.8963 19.732 44.6663 20.642 45.8983 20.642ZM60.0556 14.874H61.8056L59.5656 22H57.6756L56.0936 16.974L54.4976 22H52.6076L50.3816 14.874H52.1176L53.6296 20.012L55.2536 14.874H56.9336L58.5576 20.012L60.0556 14.874ZM63.9564 13.684C63.2984 13.684 62.8644 13.236 62.8644 12.62C62.8644 12.004 63.2984 11.556 63.9564 11.556C64.6004 11.556 65.0344 12.004 65.0344 12.62C65.0344 13.236 64.6004 13.684 63.9564 13.684ZM63.1024 22V14.874H64.8104V22H63.1024ZM70.9619 14.678C72.5019 14.678 73.4399 15.644 73.4399 17.38V22H71.7319V17.814C71.7319 16.736 71.3119 16.246 70.3739 16.246C69.3379 16.246 68.6519 16.848 68.6519 17.912V22H66.9439V14.874H68.6239V15.966C69.0159 15.168 69.8699 14.678 70.9619 14.678ZM80.7805 14.874H82.4605V21.174C82.4605 23.596 81.0745 24.996 78.6105 24.996C77.2385 24.996 76.0345 24.562 75.2785 23.862L76.1045 22.616C76.7905 23.162 77.6445 23.47 78.5265 23.47C79.9545 23.47 80.7805 22.672 80.7805 21.174V20.586C80.3745 21.426 79.4505 21.93 78.3305 21.93C76.4405 21.93 75.0545 20.474 75.0545 18.332C75.0545 16.19 76.4405 14.678 78.3445 14.678C79.4365 14.678 80.3605 15.182 80.7805 16.036V14.874ZM78.8205 20.418C80.0385 20.418 80.8225 19.536 80.8225 18.318C80.8225 17.1 80.0385 16.218 78.8205 16.218C77.5885 16.218 76.8185 17.1 76.8185 18.318C76.8185 19.536 77.5885 20.418 78.8205 20.418Z" fill="#FAFAFA"/>
</svg>
