<svg width="20" height="21" viewBox="0 0 20 21" fill="none" xmlns="http://www.w3.org/2000/svg">
<path fill-rule="evenodd" clip-rule="evenodd" d="M10.0008 3.76816C6.31428 3.76816 3.32578 6.75666 3.32578 10.4432C3.32578 11.6466 3.64355 12.7738 4.19966 13.7477C4.95942 12.7572 6.15491 12.1181 7.50075 12.1181H12.5008C13.8466 12.1181 15.0421 12.7572 15.8019 13.7477C16.358 12.7739 16.6758 11.6466 16.6758 10.4432C16.6758 6.75666 13.6873 3.76816 10.0008 3.76816ZM16.6107 15.5049C16.7159 15.3676 16.817 15.227 16.9137 15.0833C17.8054 13.7571 18.3258 12.1597 18.3258 10.4432C18.3258 5.84539 14.5986 2.11816 10.0008 2.11816C5.40301 2.11816 1.67578 5.84539 1.67578 10.4432C1.67578 12.1597 2.19617 13.7571 3.0879 15.0833C3.18456 15.227 3.2856 15.3676 3.39083 15.5048L3.38655 15.5192L3.67943 15.8606C4.95299 17.3454 6.74291 18.3775 8.77102 18.6779C8.99938 18.7118 9.23077 18.7363 9.4648 18.7512C9.642 18.7624 9.82071 18.7682 10.0008 18.7682C10.0008 18.7682 10.0008 18.7682 10.0008 18.7682C10.1808 18.7682 10.3596 18.7624 10.5368 18.7512C12.0942 18.6522 13.5351 18.1248 14.743 17.2862C15.3286 16.8796 15.8594 16.4 16.3221 15.8606L16.615 15.5192L16.6107 15.5049ZM10.0006 5.44318C8.61991 5.44318 7.50062 6.56247 7.50062 7.94318C7.50062 9.3239 8.61991 10.4432 10.0006 10.4432C11.3813 10.4432 12.5006 9.3239 12.5006 7.94318C12.5006 6.56247 11.3813 5.44318 10.0006 5.44318Z" fill="#D5663F"/>
</svg>