<svg width="28" height="28" viewBox="0 0 28 28" fill="none" xmlns="http://www.w3.org/2000/svg">
<circle cx="14" cy="14" r="14" fill="#D5663F"/>
<path d="M7.25 17.75V10.25C7.25 9.42158 7.92158 8.75 8.75002 8.75H12.5001H19.2503C20.0788 8.75 20.7504 9.42158 20.7504 10.25V17.75C20.7504 18.5784 20.0788 19.25 19.2503 19.25H8.75002C7.92158 19.25 7.25 18.5784 7.25 17.75Z" stroke="#FAFAFA" stroke-width="1.12501" stroke-linecap="round" stroke-linejoin="round"/>
<path d="M7.25 17.75V10.25C7.25 9.42158 7.92158 8.75 8.75002 8.75H12.5001H19.2503C20.0788 8.75 20.7504 9.42158 20.7504 10.25V17.75C20.7504 18.5784 20.0788 19.25 19.2503 19.25H8.75002C7.92158 19.25 7.25 18.5784 7.25 17.75Z" stroke="#FAFAFA" stroke-width="1.12501" stroke-linecap="round" stroke-linejoin="round"/>
<rect x="17.4453" y="11.0469" width="0.00777778" height="0.00777778" stroke="#FAFAFA" stroke-width="1.65002" stroke-linejoin="round"/>
<rect x="17.4453" y="11.0469" width="0.00777778" height="0.00777778" stroke="#FAFAFA" stroke-width="1.65002" stroke-linejoin="round"/>
<path d="M7.27344 15.9117L10.381 12.9205C10.6484 12.6631 11.064 12.64 11.3583 12.8663L15.254 15.8618M19.4223 19.2509L15.254 15.8618M20.6784 16.4613L17.7791 14.3906C17.4937 14.1868 17.1051 14.208 16.8435 14.4417L15.254 15.8618" stroke="#FAFAFA" stroke-width="1.12501"/>
</svg>
