<svg width="29" height="28" viewBox="0 0 29 28" fill="none" xmlns="http://www.w3.org/2000/svg">
<circle opacity="0.16" cx="14.9141" cy="14" r="14" fill="black"/>
<path d="M11.9873 11.6562C12.4537 11.6562 12.7847 11.7178 13.1627 11.8918C13.2206 11.9184 13.2725 11.9557 13.3154 12.0016C13.3582 12.0474 13.3913 12.1009 13.4125 12.159C13.4338 12.2171 13.443 12.2786 13.4395 12.3401C13.4359 12.4015 13.4198 12.4618 13.392 12.5173C13.3642 12.5728 13.3253 12.6225 13.2774 12.6635C13.2296 12.7046 13.1738 12.7363 13.1132 12.7567C13.0526 12.7771 12.9884 12.7858 12.9242 12.7825C12.8601 12.7791 12.7973 12.7636 12.7393 12.737C12.5046 12.629 12.3167 12.5945 11.9873 12.5945C11.3088 12.5945 10.8103 13.1915 10.8103 13.9985C10.8103 14.8063 11.3096 15.4055 11.9873 15.4055C12.3222 15.4055 12.6063 15.2705 12.7542 15.0298L12.7581 15.0185V14.468H12.4639C12.3468 14.468 12.2336 14.4277 12.1448 14.3545C12.0561 14.2813 11.9977 14.18 11.9802 14.069L11.9755 14C11.9755 13.7645 12.1563 13.5695 12.3927 13.5358L12.4647 13.5313H13.2488C13.4945 13.5313 13.6972 13.7038 13.7324 13.9303L13.7379 14L13.7364 15.1603L13.7317 15.2023L13.7152 15.2698L13.6996 15.311C13.4045 15.9785 12.7284 16.343 11.9873 16.343C10.7148 16.343 9.83203 15.2833 9.83203 13.9985C9.83203 12.7138 10.714 11.6562 11.9873 11.6562ZM15.5981 11.7478C15.8439 11.7478 16.0473 11.9218 16.0818 12.1475L16.0872 12.2165V15.7888C16.087 15.9069 16.0402 16.0206 15.9562 16.1071C15.8722 16.1936 15.7572 16.2465 15.6342 16.2553C15.5113 16.264 15.3894 16.2279 15.293 16.1542C15.1967 16.0805 15.1329 15.9746 15.1145 15.8578L15.109 15.7888V12.2165C15.109 11.9578 15.3281 11.7478 15.5981 11.7478ZM17.9428 11.7478L19.5056 11.753C19.6295 11.7527 19.749 11.7975 19.8398 11.8784C19.9306 11.9593 19.986 12.0702 19.9947 12.1887C20.0035 12.3072 19.965 12.4245 19.8869 12.5168C19.8089 12.6091 19.6972 12.6696 19.5745 12.686L19.5025 12.6905L18.4295 12.6868V14.0023H19.3084C19.5541 14.0023 19.7576 14.1763 19.792 14.4028L19.7975 14.4718C19.7975 14.5841 19.7553 14.6927 19.6788 14.7778C19.6022 14.8628 19.4963 14.9187 19.3804 14.9353L19.3084 14.9405L18.4295 14.9398V15.776C18.4297 15.8884 18.3878 15.997 18.3114 16.0823C18.2349 16.1675 18.1291 16.2235 18.0132 16.2403L17.9412 16.2448C17.824 16.2449 17.7105 16.2047 17.6216 16.1315C17.5327 16.0583 17.4742 15.9569 17.4568 15.8458L17.4521 15.776V12.215C17.4525 12.1028 17.4949 11.9945 17.5716 11.9097C17.6483 11.8249 17.7542 11.7693 17.87 11.753L17.9428 11.7478Z" fill="#666666"/>
<path d="M11.9873 11.6562C12.4537 11.6562 12.7847 11.7178 13.1627 11.8918C13.2206 11.9184 13.2725 11.9557 13.3154 12.0016C13.3582 12.0474 13.3913 12.1009 13.4125 12.159C13.4338 12.2171 13.443 12.2786 13.4395 12.3401C13.4359 12.4015 13.4198 12.4618 13.392 12.5173C13.3642 12.5728 13.3253 12.6225 13.2774 12.6635C13.2296 12.7046 13.1738 12.7363 13.1132 12.7567C13.0526 12.7771 12.9884 12.7858 12.9242 12.7825C12.8601 12.7791 12.7973 12.7636 12.7393 12.737C12.5046 12.629 12.3167 12.5945 11.9873 12.5945C11.3088 12.5945 10.8103 13.1915 10.8103 13.9985C10.8103 14.8063 11.3096 15.4055 11.9873 15.4055C12.3222 15.4055 12.6063 15.2705 12.7542 15.0298L12.7581 15.0185V14.468H12.4639C12.3468 14.468 12.2336 14.4277 12.1448 14.3545C12.0561 14.2813 11.9977 14.18 11.9802 14.069L11.9755 14C11.9755 13.7645 12.1563 13.5695 12.3927 13.5358L12.4647 13.5313H13.2488C13.4945 13.5313 13.6972 13.7038 13.7324 13.9303L13.7379 14L13.7364 15.1603L13.7317 15.2023L13.7152 15.2698L13.6996 15.311C13.4045 15.9785 12.7284 16.343 11.9873 16.343C10.7148 16.343 9.83203 15.2833 9.83203 13.9985C9.83203 12.7138 10.714 11.6562 11.9873 11.6562ZM15.5981 11.7478C15.8439 11.7478 16.0473 11.9218 16.0818 12.1475L16.0872 12.2165V15.7888C16.087 15.9069 16.0402 16.0206 15.9562 16.1071C15.8722 16.1936 15.7572 16.2465 15.6342 16.2553C15.5113 16.264 15.3894 16.2279 15.293 16.1542C15.1967 16.0805 15.1329 15.9746 15.1145 15.8578L15.109 15.7888V12.2165C15.109 11.9578 15.3281 11.7478 15.5981 11.7478ZM17.9428 11.7478L19.5056 11.753C19.6295 11.7527 19.749 11.7975 19.8398 11.8784C19.9306 11.9593 19.986 12.0702 19.9947 12.1887C20.0035 12.3072 19.965 12.4245 19.8869 12.5168C19.8089 12.6091 19.6972 12.6696 19.5745 12.686L19.5025 12.6905L18.4295 12.6868V14.0023H19.3084C19.5541 14.0023 19.7576 14.1763 19.792 14.4028L19.7975 14.4718C19.7975 14.5841 19.7553 14.6927 19.6788 14.7778C19.6022 14.8628 19.4963 14.9187 19.3804 14.9353L19.3084 14.9405L18.4295 14.9398V15.776C18.4297 15.8884 18.3878 15.997 18.3114 16.0823C18.2349 16.1675 18.1291 16.2235 18.0132 16.2403L17.9412 16.2448C17.824 16.2449 17.7105 16.2047 17.6216 16.1315C17.5327 16.0583 17.4742 15.9569 17.4568 15.8458L17.4521 15.776V12.215C17.4525 12.1028 17.4949 11.9945 17.5716 11.9097C17.6483 11.8249 17.7542 11.7693 17.87 11.753L17.9428 11.7478Z" fill="#666666"/>
<path d="M20.1982 8.17647C20.5322 8.17647 20.8629 8.23408 21.1715 8.34602C21.4801 8.45797 21.7605 8.62204 21.9966 8.82888C22.2328 9.03572 22.4202 9.28128 22.548 9.55153C22.6758 9.82178 22.7416 10.1114 22.7416 10.4039V17.6025C22.7416 17.895 22.6758 18.1847 22.548 18.4549C22.4202 18.7252 22.2328 18.9707 21.9966 19.1776C21.7605 19.3844 21.4801 19.5485 21.1715 19.6604C20.8629 19.7724 20.5322 19.83 20.1982 19.83H9.63325C8.9587 19.83 8.31177 19.5953 7.83479 19.1776C7.35781 18.7598 7.08984 18.1933 7.08984 17.6025V10.4033C7.08984 9.8125 7.35781 9.24593 7.83479 8.8282C8.31177 8.41046 8.9587 8.17578 9.63325 8.17578L20.1982 8.17647ZM20.1982 9.20454H9.63325C9.27003 9.20454 8.92168 9.3309 8.66485 9.55584C8.40801 9.78077 8.26372 10.0858 8.26372 10.4039V17.6025C8.26372 18.2646 8.87727 18.8019 9.63325 18.8019H20.1982C20.5614 18.8019 20.9097 18.6755 21.1666 18.4506C21.4234 18.2257 21.5677 17.9206 21.5677 17.6025V10.4033C21.5677 10.0852 21.4234 9.78008 21.1666 9.55515C20.9097 9.33022 20.5614 9.20454 20.1982 9.20454Z" fill="#666666"/>
<path d="M20.1982 8.17647C20.5322 8.17647 20.8629 8.23408 21.1715 8.34602C21.4801 8.45797 21.7605 8.62204 21.9966 8.82888C22.2328 9.03572 22.4202 9.28128 22.548 9.55153C22.6758 9.82178 22.7416 10.1114 22.7416 10.4039V17.6025C22.7416 17.895 22.6758 18.1847 22.548 18.4549C22.4202 18.7252 22.2328 18.9707 21.9966 19.1776C21.7605 19.3844 21.4801 19.5485 21.1715 19.6604C20.8629 19.7724 20.5322 19.83 20.1982 19.83H9.63325C8.9587 19.83 8.31177 19.5953 7.83479 19.1776C7.35781 18.7598 7.08984 18.1933 7.08984 17.6025V10.4033C7.08984 9.8125 7.35781 9.24593 7.83479 8.8282C8.31177 8.41046 8.9587 8.17578 9.63325 8.17578L20.1982 8.17647ZM20.1982 9.20454H9.63325C9.27003 9.20454 8.92168 9.3309 8.66485 9.55584C8.40801 9.78077 8.26372 10.0858 8.26372 10.4039V17.6025C8.26372 18.2646 8.87727 18.8019 9.63325 18.8019H20.1982C20.5614 18.8019 20.9097 18.6755 21.1666 18.4506C21.4234 18.2257 21.5677 17.9206 21.5677 17.6025V10.4033C21.5677 10.0852 21.4234 9.78008 21.1666 9.55515C20.9097 9.33022 20.5614 9.20454 20.1982 9.20454Z" fill="#666666"/>
</svg>
