<svg width="28" height="28" viewBox="0 0 28 28" fill="none" xmlns="http://www.w3.org/2000/svg">
<circle cx="14" cy="14" r="14" fill="#D5663F"/>
<path d="M11.0732 11.6562C11.5396 11.6562 11.8707 11.7178 12.2487 11.8918C12.3066 11.9184 12.3584 11.9557 12.4013 12.0016C12.4442 12.0474 12.4772 12.1009 12.4985 12.159C12.5198 12.2171 12.5289 12.2786 12.5254 12.3401C12.5219 12.4015 12.5058 12.4618 12.478 12.5173C12.4502 12.5728 12.4112 12.6225 12.3634 12.6635C12.3155 12.7046 12.2597 12.7363 12.1991 12.7567C12.1385 12.7771 12.0743 12.7858 12.0101 12.7825C11.946 12.7791 11.8832 12.7636 11.8253 12.737C11.5905 12.629 11.4027 12.5945 11.0732 12.5945C10.3947 12.5945 9.8962 13.1915 9.8962 13.9985C9.8962 14.8063 10.3955 15.4055 11.0732 15.4055C11.4082 15.4055 11.6922 15.2705 11.8401 15.0298L11.8441 15.0185V14.468H11.5498C11.4327 14.468 11.3195 14.4277 11.2307 14.3545C11.142 14.2813 11.0836 14.18 11.0662 14.069L11.0615 14C11.0615 13.7645 11.2423 13.5695 11.4786 13.5358L11.5506 13.5313H12.3347C12.5805 13.5313 12.7832 13.7038 12.8184 13.9303L12.8239 14L12.8223 15.1603L12.8176 15.2023L12.8012 15.2698L12.7855 15.311C12.4905 15.9785 11.8143 16.343 11.0732 16.343C9.80073 16.343 8.91797 15.2833 8.91797 13.9985C8.91797 12.7138 9.79994 11.6562 11.0732 11.6562ZM14.6841 11.7478C14.9298 11.7478 15.1333 11.9218 15.1677 12.1475L15.1732 12.2165V15.7888C15.1729 15.9069 15.1261 16.0206 15.0421 16.1071C14.9581 16.1936 14.8431 16.2465 14.7202 16.2553C14.5972 16.264 14.4753 16.2279 14.379 16.1542C14.2826 16.0805 14.2188 15.9746 14.2004 15.8578L14.1949 15.7888V12.2165C14.1949 11.9578 14.4141 11.7478 14.6841 11.7478ZM17.0287 11.7478L18.5915 11.753C18.7155 11.7527 18.835 11.7975 18.9258 11.8784C19.0166 11.9593 19.0719 12.0702 19.0807 12.1887C19.0894 12.3072 19.0509 12.4245 18.9729 12.5168C18.8949 12.6091 18.7832 12.6696 18.6604 12.686L18.5884 12.6905L17.5155 12.6868V14.0023H18.3943C18.64 14.0023 18.8435 14.1763 18.8779 14.4028L18.8834 14.4718C18.8834 14.5841 18.8413 14.6927 18.7647 14.7778C18.6881 14.8628 18.5823 14.9187 18.4663 14.9353L18.3943 14.9405L17.5155 14.9398V15.776C17.5156 15.8884 17.4737 15.997 17.3973 16.0823C17.3209 16.1675 17.2151 16.2235 17.0991 16.2403L17.0271 16.2448C16.9099 16.2449 16.7965 16.2047 16.7076 16.1315C16.6187 16.0583 16.5602 15.9569 16.5427 15.8458L16.538 15.776V12.215C16.5385 12.1028 16.5809 11.9945 16.6575 11.9097C16.7342 11.8249 16.8401 11.7693 16.9559 11.753L17.0287 11.7478Z" fill="#FAFAFA"/>
<path d="M11.0732 11.6562C11.5396 11.6562 11.8707 11.7178 12.2487 11.8918C12.3066 11.9184 12.3584 11.9557 12.4013 12.0016C12.4442 12.0474 12.4772 12.1009 12.4985 12.159C12.5198 12.2171 12.5289 12.2786 12.5254 12.3401C12.5219 12.4015 12.5058 12.4618 12.478 12.5173C12.4502 12.5728 12.4112 12.6225 12.3634 12.6635C12.3155 12.7046 12.2597 12.7363 12.1991 12.7567C12.1385 12.7771 12.0743 12.7858 12.0101 12.7825C11.946 12.7791 11.8832 12.7636 11.8253 12.737C11.5905 12.629 11.4027 12.5945 11.0732 12.5945C10.3947 12.5945 9.8962 13.1915 9.8962 13.9985C9.8962 14.8063 10.3955 15.4055 11.0732 15.4055C11.4082 15.4055 11.6922 15.2705 11.8401 15.0298L11.8441 15.0185V14.468H11.5498C11.4327 14.468 11.3195 14.4277 11.2307 14.3545C11.142 14.2813 11.0836 14.18 11.0662 14.069L11.0615 14C11.0615 13.7645 11.2423 13.5695 11.4786 13.5358L11.5506 13.5313H12.3347C12.5805 13.5313 12.7832 13.7038 12.8184 13.9303L12.8239 14L12.8223 15.1603L12.8176 15.2023L12.8012 15.2698L12.7855 15.311C12.4905 15.9785 11.8143 16.343 11.0732 16.343C9.80073 16.343 8.91797 15.2833 8.91797 13.9985C8.91797 12.7138 9.79994 11.6562 11.0732 11.6562ZM14.6841 11.7478C14.9298 11.7478 15.1333 11.9218 15.1677 12.1475L15.1732 12.2165V15.7888C15.1729 15.9069 15.1261 16.0206 15.0421 16.1071C14.9581 16.1936 14.8431 16.2465 14.7202 16.2553C14.5972 16.264 14.4753 16.2279 14.379 16.1542C14.2826 16.0805 14.2188 15.9746 14.2004 15.8578L14.1949 15.7888V12.2165C14.1949 11.9578 14.4141 11.7478 14.6841 11.7478ZM17.0287 11.7478L18.5915 11.753C18.7155 11.7527 18.835 11.7975 18.9258 11.8784C19.0166 11.9593 19.0719 12.0702 19.0807 12.1887C19.0894 12.3072 19.0509 12.4245 18.9729 12.5168C18.8949 12.6091 18.7832 12.6696 18.6604 12.686L18.5884 12.6905L17.5155 12.6868V14.0023H18.3943C18.64 14.0023 18.8435 14.1763 18.8779 14.4028L18.8834 14.4718C18.8834 14.5841 18.8413 14.6927 18.7647 14.7778C18.6881 14.8628 18.5823 14.9187 18.4663 14.9353L18.3943 14.9405L17.5155 14.9398V15.776C17.5156 15.8884 17.4737 15.997 17.3973 16.0823C17.3209 16.1675 17.2151 16.2235 17.0991 16.2403L17.0271 16.2448C16.9099 16.2449 16.7965 16.2047 16.7076 16.1315C16.6187 16.0583 16.5602 15.9569 16.5427 15.8458L16.538 15.776V12.215C16.5385 12.1028 16.5809 11.9945 16.6575 11.9097C16.7342 11.8249 16.8401 11.7693 16.9559 11.753L17.0287 11.7478Z" fill="#FAFAFA"/>
<path d="M19.2841 8.17647C19.6181 8.17647 19.9488 8.23408 20.2574 8.34602C20.566 8.45797 20.8464 8.62204 21.0826 8.82888C21.3187 9.03572 21.5061 9.28128 21.6339 9.55153C21.7617 9.82178 21.8275 10.1114 21.8275 10.4039V17.6025C21.8275 17.895 21.7617 18.1847 21.6339 18.4549C21.5061 18.7252 21.3187 18.9707 21.0826 19.1776C20.8464 19.3844 20.566 19.5485 20.2574 19.6604C19.9488 19.7724 19.6181 19.83 19.2841 19.83H8.71919C8.04463 19.83 7.39771 19.5953 6.92073 19.1776C6.44375 18.7598 6.17578 18.1933 6.17578 17.6025V10.4033C6.17578 9.8125 6.44375 9.24593 6.92073 8.8282C7.39771 8.41046 8.04463 8.17578 8.71919 8.17578L19.2841 8.17647ZM19.2841 9.20454H8.71919C8.35597 9.20454 8.00762 9.3309 7.75079 9.55584C7.49395 9.78077 7.34966 10.0858 7.34966 10.4039V17.6025C7.34966 18.2646 7.96321 18.8019 8.71919 18.8019H19.2841C19.6473 18.8019 19.9957 18.6755 20.2525 18.4506C20.5093 18.2257 20.6536 17.9206 20.6536 17.6025V10.4033C20.6536 10.0852 20.5093 9.78008 20.2525 9.55515C19.9957 9.33022 19.6473 9.20454 19.2841 9.20454Z" fill="#FAFAFA"/>
<path d="M19.2841 8.17647C19.6181 8.17647 19.9488 8.23408 20.2574 8.34602C20.566 8.45797 20.8464 8.62204 21.0826 8.82888C21.3187 9.03572 21.5061 9.28128 21.6339 9.55153C21.7617 9.82178 21.8275 10.1114 21.8275 10.4039V17.6025C21.8275 17.895 21.7617 18.1847 21.6339 18.4549C21.5061 18.7252 21.3187 18.9707 21.0826 19.1776C20.8464 19.3844 20.566 19.5485 20.2574 19.6604C19.9488 19.7724 19.6181 19.83 19.2841 19.83H8.71919C8.04463 19.83 7.39771 19.5953 6.92073 19.1776C6.44375 18.7598 6.17578 18.1933 6.17578 17.6025V10.4033C6.17578 9.8125 6.44375 9.24593 6.92073 8.8282C7.39771 8.41046 8.04463 8.17578 8.71919 8.17578L19.2841 8.17647ZM19.2841 9.20454H8.71919C8.35597 9.20454 8.00762 9.3309 7.75079 9.55584C7.49395 9.78077 7.34966 10.0858 7.34966 10.4039V17.6025C7.34966 18.2646 7.96321 18.8019 8.71919 18.8019H19.2841C19.6473 18.8019 19.9957 18.6755 20.2525 18.4506C20.5093 18.2257 20.6536 17.9206 20.6536 17.6025V10.4033C20.6536 10.0852 20.5093 9.78008 20.2525 9.55515C19.9957 9.33022 19.6473 9.20454 19.2841 9.20454Z" fill="#FAFAFA"/>
</svg>
