<svg width="217" height="58" viewBox="0 0 217 58" fill="none" xmlns="http://www.w3.org/2000/svg">
<rect width="216.824" height="57.0588" rx="8" fill="black"/>
<path d="M37.4207 44.0407V13.324C37.4207 12.258 38.035 11.3184 38.9384 10.8848L56.736 28.6824L38.9384 46.48C38.035 46.0282 37.4207 45.1067 37.4207 44.0407ZM62.3734 34.3198L42.9316 45.5585L58.2718 30.2182L62.3734 34.3198ZM68.4264 26.5322C69.0407 27.0201 69.4925 27.7789 69.4925 28.6824C69.4925 29.5858 69.095 30.3085 68.4626 30.8145L64.3248 33.1995L59.8077 28.6824L64.3248 24.1652L68.4264 26.5322ZM42.9316 11.8063L62.3734 23.045L58.2718 27.1465L42.9316 11.8063Z" fill="white"/>
<path fill-rule="evenodd" clip-rule="evenodd" d="M161.582 39.5345H163.721V25.1958H161.582V39.5345ZM180.86 30.361L178.406 36.5778H178.333L175.786 30.361H173.481L177.3 39.0496L175.122 43.883H177.354L183.24 30.361H180.86ZM168.721 37.9059C168.021 37.9059 167.043 37.5549 167.043 36.6878C167.043 35.5821 168.261 35.1565 169.313 35.1565C170.252 35.1565 170.696 35.3607 171.267 35.636C171.101 36.9653 169.957 37.9059 168.721 37.9059ZM168.98 30.0465C167.43 30.0465 165.826 30.7301 165.162 32.2419L167.061 33.0356C167.467 32.2419 168.223 31.9838 169.017 31.9838C170.124 31.9838 171.249 32.6479 171.267 33.8282V33.9762C170.88 33.7548 170.049 33.4233 169.035 33.4233C166.987 33.4233 164.902 34.5485 164.902 36.651C164.902 38.5699 166.582 39.8064 168.463 39.8064C169.901 39.8064 170.696 39.1606 171.193 38.4036H171.267V39.5105H173.334V34.0129C173.334 31.4677 171.432 30.0465 168.98 30.0465ZM155.753 32.1065H152.709V27.1916H155.753C157.353 27.1916 158.261 28.5152 158.261 29.6485C158.261 30.7599 157.353 32.1065 155.753 32.1065ZM155.698 25.1947H150.57V39.5346H152.709V34.1023H155.698C158.07 34.1023 160.402 32.3841 160.402 29.6485C160.402 26.9129 158.07 25.1947 155.698 25.1947ZM127.733 37.9081C126.254 37.9081 125.017 36.6704 125.017 34.9706C125.017 33.2512 126.254 31.9952 127.733 31.9952C129.192 31.9952 130.337 33.2512 130.337 34.9706C130.337 36.6704 129.192 37.9081 127.733 37.9081ZM130.19 31.1639H130.116C129.636 30.5916 128.711 30.0731 127.548 30.0731C125.108 30.0731 122.872 32.2169 122.872 34.9708C122.872 37.7053 125.108 39.8307 127.548 39.8307C128.711 39.8307 129.636 39.3134 130.116 38.7215H130.19V39.4235C130.19 41.2908 129.192 42.2876 127.585 42.2876C126.272 42.2876 125.459 41.3459 125.127 40.551L123.26 41.3275C123.796 42.6202 125.218 44.21 127.585 44.21C130.098 44.21 132.223 42.7315 132.223 39.1276V30.369H130.19V31.1639ZM133.702 39.5345H135.844V25.1958H133.702V39.5345ZM139.004 34.8043C138.949 32.9186 140.464 31.9586 141.554 31.9586C142.405 31.9586 143.125 32.3841 143.366 32.9932L139.004 34.8043ZM145.657 33.1781C145.25 32.0884 144.012 30.0731 141.481 30.0731C138.968 30.0731 136.879 32.0506 136.879 34.9525C136.879 37.6869 138.949 39.8307 141.72 39.8307C143.956 39.8307 145.25 38.4635 145.786 37.6686L144.123 36.5594C143.568 37.3727 142.811 37.9083 141.72 37.9083C140.631 37.9083 139.854 37.4094 139.356 36.4298L145.878 33.7321L145.657 33.1781ZM93.6884 31.571V33.6402H98.64C98.4932 34.8044 98.1043 35.6543 97.5136 36.245C96.7922 36.9665 95.6647 37.7614 93.6884 37.7614C90.6385 37.7614 88.255 35.3033 88.255 32.2546C88.255 29.2059 90.6385 26.7467 93.6884 26.7467C95.3332 26.7467 96.5341 27.3936 97.4207 28.2263L98.8809 26.7662C97.6421 25.5836 95.9984 24.6775 93.6884 24.6775C89.511 24.6775 86 28.0784 86 32.2546C86 36.4297 89.511 39.8306 93.6884 39.8306C95.9422 39.8306 97.6421 39.0908 98.9726 37.7052C100.34 36.3379 100.765 34.4156 100.765 32.8637C100.765 32.3842 100.729 31.9403 100.654 31.571H93.6884ZM106.395 37.9081C104.918 37.9081 103.642 36.6888 103.642 34.9522C103.642 33.1962 104.918 31.9952 106.395 31.9952C107.873 31.9952 109.149 33.1962 109.149 34.9522C109.149 36.6888 107.873 37.9081 106.395 37.9081ZM106.395 30.0731C103.697 30.0731 101.498 32.1251 101.498 34.9525C101.498 37.7615 103.697 39.8307 106.395 39.8307C109.094 39.8307 111.293 37.7615 111.293 34.9525C111.293 32.1251 109.094 30.0731 106.395 30.0731ZM117.078 37.9081C115.6 37.9081 114.324 36.6888 114.324 34.9522C114.324 33.1962 115.6 31.9952 117.078 31.9952C118.557 31.9952 119.831 33.1962 119.831 34.9522C119.831 36.6888 118.557 37.9081 117.078 37.9081ZM117.078 30.0731C114.38 30.0731 112.182 32.1251 112.182 34.9525C112.182 37.7615 114.38 39.8307 117.078 39.8307C119.776 39.8307 121.975 37.7615 121.975 34.9525C121.975 32.1251 119.776 30.0731 117.078 30.0731Z" fill="white"/>
<path fill-rule="evenodd" clip-rule="evenodd" d="M92.4601 19.1709C93.0302 18.5997 93.3147 17.8346 93.3147 16.8734C93.3147 16.706 93.2986 16.5339 93.2665 16.3538H89.9321V17.1808H92.4303C92.3799 17.7773 92.1872 18.2407 91.8545 18.5744C91.3407 19.0872 90.7006 19.3429 89.9321 19.3429C89.2072 19.3429 88.581 19.0894 88.0522 18.579C87.5234 18.0698 87.2596 17.4079 87.2596 16.5947C87.2596 15.7803 87.5234 15.1197 88.0522 14.6092C88.581 14.1 89.2072 13.8453 89.9321 13.8453C90.7328 13.8453 91.3602 14.1183 91.8155 14.662L92.4211 14.0564C92.1516 13.7364 91.7926 13.4806 91.3441 13.2879C90.8968 13.0963 90.4242 13 89.9321 13C88.9388 13 88.0935 13.3441 87.3996 14.0323C86.7033 14.7217 86.3569 15.575 86.3569 16.5947C86.3569 17.6133 86.7033 18.4678 87.3996 19.156C88.0935 19.8453 88.9388 20.1894 89.9321 20.1894C90.969 20.1894 91.8121 19.8499 92.4601 19.1709ZM95.4679 13.9991H98.6016V13.1537H94.5836V20.0358H98.6016V19.1893H95.4679V17.0077H98.293V16.1807H95.4679V13.9991ZM102.33 20.0355H101.446V13.9988H99.5237V13.1535H104.253V13.9988H102.33V20.0355ZM108.559 20.0355H107.675V13.1535H108.559V20.0355ZM112.481 20.0355H111.597V13.9988H109.674V13.1535H114.403V13.9988H112.481V20.0355ZM120.832 20.1894C121.838 20.1894 122.679 19.8419 123.356 19.1457C124.031 18.4506 124.37 17.6006 124.37 16.5947C124.37 15.5945 124.03 14.7457 123.351 14.0472C122.671 13.3487 121.832 13 120.832 13C119.826 13 118.986 13.3475 118.31 14.0426C117.633 14.7377 117.296 15.5888 117.296 16.5947C117.296 17.6006 117.633 18.4506 118.31 19.1457C118.986 19.8419 119.826 20.1894 120.832 20.1894ZM118.963 18.5699C119.472 19.0861 120.095 19.343 120.832 19.343C121.569 19.343 122.193 19.0861 122.702 18.5699C123.211 18.0538 123.467 17.3954 123.467 16.5948C123.467 15.7942 123.211 15.1346 122.702 14.6196C122.193 14.1035 121.569 13.8454 120.832 13.8454C120.095 13.8454 119.472 14.1035 118.963 14.6196C118.454 15.1346 118.199 15.7942 118.199 16.5948C118.199 17.3954 118.454 18.0538 118.963 18.5699ZM125.611 13.1535V20.0355H126.495V15.7491L126.456 14.422H126.495L129.993 20.0355H130.917V13.1535H130.031V17.1806L130.07 18.5065H130.031L126.686 13.1535H125.611Z" fill="white"/>
</svg>
