<svg width="19" height="14" viewBox="0 0 19 14" fill="none" xmlns="http://www.w3.org/2000/svg">
<g id="unfilled 1" clip-path="url(#clip0_16938_53479)">
<path id="Vector" d="M15.186 1.22825C14.5448 0.579261 13.6669 0.220667 12.7588 0.220667C11.8507 0.220667 10.9729 0.579261 10.332 1.22825C9.68335 1.86915 9.3244 2.747 9.3244 3.65509C9.3244 4.10544 9.41581 4.54806 9.58386 4.96782C9.75928 5.38759 10.0114 5.76165 10.3316 6.08228C10.6519 6.4029 11.026 6.65462 11.4461 6.83005C11.8581 6.9981 12.3085 7.08951 12.7588 7.08951C13.2092 7.08951 13.6595 6.9981 14.0716 6.83005C14.4913 6.65462 14.8654 6.40255 15.186 6.08228C15.5066 5.76165 15.7583 5.38759 15.9338 4.96782C16.1018 4.54806 16.1932 4.10544 16.1932 3.65509C16.1932 2.747 15.8346 1.86915 15.1857 1.22825H15.186ZM14.3771 5.27333C13.9496 5.70083 13.3695 5.94482 12.7592 5.94482C12.1489 5.94482 11.5684 5.70048 11.1413 5.27333C10.7138 4.84583 10.4698 4.25837 10.4698 3.65544C10.4698 3.05251 10.7141 2.46469 11.1413 2.03754C11.5688 1.60266 12.1489 1.36606 12.7592 1.36606C13.3695 1.36606 13.9499 1.60266 14.3771 2.03754C14.8046 2.46505 15.0485 3.04477 15.0485 3.65544C15.0485 4.2661 14.8042 4.84618 14.3771 5.27333Z" fill="#FAFAFA"/>
<path id="Vector_2" d="M5.15663 13.8729H1.64382C1.25007 13.8729 0.877064 13.7007 0.620072 13.3997C0.369408 13.1055 0.25972 12.7202 0.319837 12.3429C0.53429 10.9975 1.1446 9.96321 2.13355 9.26922C4.10089 7.88828 6.84589 8.39278 6.9612 8.41598C7.27163 8.47469 7.47484 8.77457 7.41577 9.08465C7.35636 9.39403 7.05613 9.59829 6.7471 9.54063C6.7239 9.53606 4.35261 9.1068 2.7864 10.2093C2.06324 10.7191 1.61359 11.4971 1.45011 12.5236C1.44027 12.5834 1.46699 12.6295 1.49089 12.6569C1.50917 12.6783 1.56085 12.7286 1.64382 12.7286H5.15663C5.47269 12.7286 5.72898 12.9849 5.72898 13.301C5.72898 13.617 5.47269 13.8733 5.15663 13.8733V13.8729Z" fill="#FAFAFA"/>
<path id="Vector_3" d="M5.31721 7.08822C4.55291 7.08822 3.83397 6.79045 3.29362 6.2501C2.75326 5.70975 2.45514 4.99045 2.45514 4.22615C2.45514 3.46185 2.75291 2.74326 3.29362 2.20255C4.37502 1.12114 6.25975 1.12114 7.34115 2.20255C7.8815 2.74291 8.17928 3.46185 8.17928 4.22615C8.17928 4.99045 7.8815 5.70975 7.34115 6.2501C6.8008 6.79045 6.08186 7.08822 5.31721 7.08822ZM5.31721 2.31822C4.81518 2.31822 4.32334 2.52212 3.96826 2.8772C3.61319 3.23228 3.40928 3.72412 3.40928 4.22615C3.40928 4.72818 3.60791 5.2151 3.96826 5.57545C4.68897 6.29615 5.9458 6.29615 6.66686 5.57545C7.02721 5.2151 7.22549 4.73592 7.22549 4.22615C7.22549 3.71638 7.02721 3.23755 6.66686 2.8772C6.30651 2.51685 5.82733 2.31822 5.31756 2.31822H5.31721Z" fill="#FAFAFA"/>
<path id="Vector_4" d="M16.9701 13.8837H8.53537C8.14267 13.8837 7.77107 13.7122 7.51549 13.4126C7.26588 13.1198 7.15689 12.7373 7.21666 12.3618C7.76931 8.89082 11.106 8.18735 12.7995 8.30864C16.9806 8.32797 18.0233 11.1022 18.2761 12.2933C18.3573 12.6807 18.2603 13.0797 18.01 13.3887C17.7551 13.7034 17.3758 13.8837 16.9704 13.8837H16.9701ZM12.5316 9.43434C11.6833 9.43434 8.79588 9.64668 8.33568 12.5408C8.32549 12.6019 8.35291 12.6487 8.37717 12.6772C8.39615 12.6997 8.44959 12.751 8.53502 12.751H16.9697C17.0583 12.751 17.1114 12.6979 17.1293 12.675C17.1539 12.6445 17.1806 12.5945 17.1666 12.5281C16.8699 11.1285 15.8637 9.45579 12.7573 9.44032C12.7334 9.43891 12.6536 9.43434 12.5316 9.43434Z" fill="#FAFAFA"/>
</g>
<defs>
<clipPath id="clip0_16938_53479">
<rect width="18" height="13.6631" fill="white" transform="translate(0.303711 0.221039)"/>
</clipPath>
</defs>
</svg>
