<svg width="20" height="20" viewBox="0 0 20 20" fill="none" xmlns="http://www.w3.org/2000/svg">
<g id="Icon Frame">
<path id="Vector" d="M8.94182 4.22762C9.28738 4.18733 9.64036 4.16663 9.99996 4.16663C13.8866 4.16663 16.9998 6.5855 18.3333 9.99996C18.0045 10.842 17.5674 11.6234 17.0372 12.323M5.43298 5.43282C3.73292 6.47001 2.41755 8.07711 1.66663 9.99996C3.00007 13.4144 6.11332 15.8333 9.99996 15.8333C11.6979 15.8333 13.2483 15.3716 14.5671 14.567M8.23227 8.23211C7.77981 8.68453 7.49996 9.30956 7.49996 9.99996C7.49996 11.3807 8.61925 12.5 9.99996 12.5C10.6904 12.5 11.3154 12.2201 11.7678 11.7676" stroke="#FAFAFA" stroke-width="1.65" stroke-linecap="round" stroke-linejoin="round"/>
<path id="Vector 134" d="M3.33337 3.33337L16.6667 16.6667" stroke="#FAFAFA" stroke-width="1.65" stroke-linecap="round"/>
</g>
</svg>
