<svg width="21" height="21" viewBox="0 0 21 21" fill="none" xmlns="http://www.w3.org/2000/svg">
<g id="Icon Frame">
<path id="Union" fill-rule="evenodd" clip-rule="evenodd" d="M9.26953 4.83613C9.26953 4.11816 9.85156 3.53613 10.5695 3.53613H10.5779C11.2958 3.53613 11.8779 4.11816 11.8779 4.83613V4.84447C11.8779 5.56244 11.2958 6.14447 10.5779 6.14447H10.5695C9.85156 6.14447 9.26953 5.56244 9.26953 4.84447V4.83613ZM9.26953 10.6695C9.26953 9.9515 9.85156 9.36947 10.5695 9.36947H10.5779C11.2958 9.36947 11.8779 9.9515 11.8779 10.6695V10.6778C11.8779 11.3958 11.2958 11.9778 10.5779 11.9778H10.5695C9.85156 11.9778 9.26953 11.3958 9.26953 10.6778V10.6695ZM10.5695 15.2028C9.85156 15.2028 9.26953 15.7848 9.26953 16.5028V16.5111C9.26953 17.2291 9.85156 17.8111 10.5695 17.8111H10.5779C11.2958 17.8111 11.8779 17.2291 11.8779 16.5111V16.5028C11.8779 15.7848 11.2958 15.2028 10.5779 15.2028H10.5695Z" fill="#888888" fill-opacity="0.24"/>
</g>
</svg>
