<svg width="34" height="34" viewBox="0 0 34 34" fill="none" xmlns="http://www.w3.org/2000/svg">
<path d="M16.9999 12.5741C14.5628 12.5741 12.5739 14.563 12.5739 17.0001C12.5739 19.4372 14.5628 21.426 16.9999 21.426C19.437 21.426 21.4259 19.4372 21.4259 17.0001C21.4259 14.563 19.437 12.5741 16.9999 12.5741ZM30.2745 17.0001C30.2745 15.1672 30.2911 13.351 30.1882 11.5215C30.0853 9.39654 29.6005 7.51061 28.0466 5.9567C26.4894 4.39947 24.6067 3.91803 22.4817 3.8151C20.6489 3.71217 18.8327 3.72877 17.0032 3.72877C15.1704 3.72877 13.3542 3.71217 11.5247 3.8151C9.39972 3.91803 7.51378 4.40279 5.95987 5.9567C4.40265 7.51393 3.9212 9.39654 3.81827 11.5215C3.71534 13.3544 3.73194 15.1706 3.73194 17.0001C3.73194 18.8296 3.71534 20.6491 3.81827 22.4786C3.9212 24.6036 4.40597 26.4895 5.95987 28.0434C7.5171 29.6006 9.39972 30.0821 11.5247 30.185C13.3575 30.2879 15.1737 30.2713 17.0032 30.2713C18.836 30.2713 20.6523 30.2879 22.4817 30.185C24.6067 30.0821 26.4927 29.5973 28.0466 28.0434C29.6038 26.4862 30.0853 24.6036 30.1882 22.4786C30.2944 20.6491 30.2745 18.8329 30.2745 17.0001ZM16.9999 23.81C13.2314 23.81 10.19 20.7686 10.19 17.0001C10.19 13.2315 13.2314 10.1901 16.9999 10.1901C20.7685 10.1901 23.8099 13.2315 23.8099 17.0001C23.8099 20.7686 20.7685 23.81 16.9999 23.81ZM24.0888 11.5016C23.2089 11.5016 22.4984 10.7911 22.4984 9.91119C22.4984 9.03131 23.2089 8.32076 24.0888 8.32076C24.9687 8.32076 25.6792 9.03131 25.6792 9.91119C25.6795 10.1201 25.6385 10.3271 25.5587 10.5201C25.4788 10.7132 25.3617 10.8886 25.214 11.0364C25.0662 11.1841 24.8908 11.3013 24.6977 11.3811C24.5046 11.4609 24.2977 11.5019 24.0888 11.5016Z" fill="white"/>
</svg>
