<svg width="25" height="24" viewBox="0 0 25 24" fill="none" xmlns="http://www.w3.org/2000/svg">
<g id="Frame 1116599495">
<path id="Union" fill-rule="evenodd" clip-rule="evenodd" d="M20.5993 4.97906C20.8972 4.68117 20.8972 4.19819 20.5993 3.9003C20.3015 3.60241 19.8185 3.60241 19.5206 3.9003L12.4997 10.9212L5.47888 3.9003C5.18099 3.60241 4.69801 3.60241 4.40012 3.9003C4.10222 4.19819 4.10222 4.68117 4.40012 4.97906L11.421 11.9999L4.39981 19.0211C4.10192 19.319 4.10192 19.8019 4.39981 20.0998C4.6977 20.3977 5.18068 20.3977 5.47858 20.0998L12.4997 13.0787L19.5209 20.0998C19.8188 20.3977 20.3018 20.3977 20.5997 20.0998C20.8975 19.8019 20.8975 19.319 20.5997 19.0211L13.5785 11.9999L20.5993 4.97906Z" fill="white"/>
</g>
</svg>
