<svg width="24" height="24" viewBox="0 0 24 24" fill="none" xmlns="http://www.w3.org/2000/svg">
<g id="fluent:send-24-filled">
<path id="Vector" d="M12.8122 12.196L5.28015 13.451C5.19356 13.4654 5.11229 13.5024 5.04453 13.5582C4.97678 13.614 4.92491 13.6867 4.89415 13.769L2.29715 20.7269C2.04915 21.3669 2.71815 21.9769 3.33215 21.6689L21.3322 12.669C21.4566 12.6066 21.5612 12.5109 21.6343 12.3924C21.7074 12.274 21.7461 12.1376 21.7461 11.9985C21.7461 11.8593 21.7074 11.7229 21.6343 11.6045C21.5612 11.486 21.4566 11.3903 21.3322 11.328L3.33215 2.32795C2.71815 2.02095 2.04915 2.63095 2.29715 3.26995L4.89515 10.228C4.92591 10.3102 4.97778 10.3829 5.04553 10.4387C5.11329 10.4945 5.19456 10.5315 5.28115 10.546L12.8132 11.801C12.8601 11.8085 12.9029 11.8325 12.9338 11.8687C12.9647 11.9049 12.9816 11.9509 12.9816 11.9985C12.9816 12.046 12.9647 12.0921 12.9338 12.1282C12.9029 12.1644 12.8601 12.1885 12.8132 12.196H12.8122Z" fill="#fafafa"/>
</g>
</svg>
