<svg width="24" height="24" viewBox="0 0 24 24" fill="none" xmlns="http://www.w3.org/2000/svg">
<g id="fluent:send-24-filled">
<path id="Vector" d="M12.8073 12.196L5.27527 13.451C5.18867 13.4654 5.10741 13.5024 5.03965 13.5582C4.97189 13.614 4.92003 13.6867 4.88927 13.769L2.29227 20.7269C2.04427 21.3669 2.71327 21.9769 3.32727 21.6689L21.3273 12.669C21.4517 12.6066 21.5563 12.5109 21.6294 12.3924C21.7025 12.274 21.7412 12.1376 21.7412 11.9985C21.7412 11.8593 21.7025 11.7229 21.6294 11.6045C21.5563 11.486 21.4517 11.3903 21.3273 11.328L3.32727 2.32795C2.71327 2.02095 2.04427 2.63095 2.29227 3.26995L4.89027 10.228C4.92103 10.3102 4.97289 10.3829 5.04065 10.4387C5.10841 10.4945 5.18967 10.5315 5.27627 10.546L12.8083 11.801C12.8553 11.8085 12.898 11.8325 12.9289 11.8687C12.9598 11.9049 12.9767 11.9509 12.9767 11.9985C12.9767 12.046 12.9598 12.0921 12.9289 12.1282C12.898 12.1644 12.8553 12.1885 12.8083 12.196H12.8073Z" fill="#9098A1"/>
</g>
</svg>
