<svg width="24" height="24" viewBox="0 0 24 24" fill="none" xmlns="http://www.w3.org/2000/svg">
<path d="M19 19H5C4.7 19 4.5 18.9 4.3 18.7C4.1 18.5 4 18.3 4 18C4 17.8 4 17.7 4.1 17.5C4.2322 17.3017 4.39986 17.1295 4.59456 16.9921L6 16V10C6 7.29999 7.9 4.89998 10.5 4.19998V3.49998C10.5 2.69997 11.2 1.99997 12 1.99997C12.8 1.99997 13.5 2.69997 13.5 3.49998V4.19998C16.1 4.89998 18 7.29999 18 10V16L19.5 17.2C19.5077 17.2077 19.5159 17.2154 19.5246 17.2231C19.747 17.42 20 17.703 20 18C20 18.3 19.9 18.5 19.7 18.7C19.5 18.9 19.3 19 19 19ZM6.5 17.5H17.5L16.5 16.7V10C16.5 7.99999 15.1 6.19999 13.1 5.69998C12.4 5.49998 11.6 5.49998 10.8 5.69998C8.9 6.19999 7.5 7.99999 7.5 10V16.7L6.5 17.5Z" fill="#7D7D7D"/>
<path d="M12 22.1597C10.9 22.1597 10 21.2597 10 20.1597H14C14 21.2597 13.1 22.1597 12 22.1597Z" fill="#7D7D7D"/>
</svg>
