<svg width="21" height="21" viewBox="0 0 21 21" fill="none" xmlns="http://www.w3.org/2000/svg">
<g id="Icon Frame">
<path id="Ellipse 51" d="M11.7279 10.1126C11.7279 8.54248 11.5922 7.00402 11.3318 5.50834C11.2297 4.92169 10.5514 4.65963 10.0656 5.004L7.99424 6.47232C7.71252 6.67203 7.37572 6.7793 7.03039 6.7793H5.0612C4.14072 6.7793 3.39453 7.52549 3.39453 8.44596V11.7793C3.39453 12.6998 4.14072 13.446 5.0612 13.446H7.03039C7.37572 13.446 7.71252 13.5532 7.99424 13.7529L10.0656 15.2213C10.5514 15.5656 11.2297 15.3036 11.3318 14.7169C11.5922 13.2212 11.7279 11.6828 11.7279 10.1126Z" stroke="#FAFAFA" stroke-width="1.25" stroke-linejoin="round"/>
<path id="Vector" d="M15.0625 8.44727L18.3958 11.7806M15.0625 11.7806L18.3958 8.44727" stroke="#FAFAFA" stroke-width="1.25" stroke-linecap="round" stroke-linejoin="round"/>
</g>
</svg>
