<svg width="21" height="20" viewBox="0 0 21 20" fill="none" xmlns="http://www.w3.org/2000/svg">
<g id="Icon Frame">
<path id="Ellipse 51" d="M11.1667 9.99999C11.1667 8.42984 11.031 6.89138 10.7707 5.3957C10.6686 4.80905 9.99022 4.54699 9.50442 4.89136L7.43308 6.35968C7.15136 6.55939 6.81456 6.66666 6.46923 6.66666H4.50004C3.57957 6.66666 2.83337 7.41285 2.83337 8.33332V11.6667C2.83337 12.5871 3.57957 13.3333 4.50004 13.3333H6.46923C6.81456 13.3333 7.15136 13.4406 7.43308 13.6403L9.50442 15.1086C9.99022 15.453 10.6686 15.1909 10.7707 14.6043C11.031 13.1086 11.1667 11.5701 11.1667 9.99999Z" stroke="#FAFAFA" stroke-width="1.25" stroke-linejoin="round"/>
<path id="Vector" d="M14.5002 8.33334L17.8336 11.6667M14.5002 11.6667L17.8336 8.33334" stroke="#FAFAFA" stroke-width="1.25" stroke-linecap="round" stroke-linejoin="round"/>
</g>
</svg>
