<svg width="21" height="21" viewBox="0 0 21 21" fill="none" xmlns="http://www.w3.org/2000/svg">
<path d="M3.58905 9.96031L3.58882 9.95962C2.66864 7.24927 4.31669 5.06715 6.10083 4.52112C7.92588 3.96258 9.1556 4.54978 9.72707 5.23462C9.84582 5.37692 10.0216 5.45918 10.2069 5.45919C10.3923 5.45919 10.568 5.37694 10.6868 5.23464C11.2583 4.54981 12.488 3.96502 14.3051 4.52112C16.2153 5.10572 17.7485 7.23965 16.8243 9.95946L16.8227 9.96412C16.2178 11.7913 14.7094 13.4625 13.202 14.6981C12.4561 15.3095 11.7302 15.7981 11.1526 16.1305C10.8632 16.2971 10.6186 16.4202 10.4328 16.4995C10.3396 16.5392 10.2688 16.5647 10.2196 16.5793C10.2147 16.5807 10.2103 16.582 10.2063 16.5831C10.2023 16.582 10.1979 16.5807 10.193 16.5793C10.1441 16.565 10.0737 16.5399 9.98121 16.5007C9.79668 16.4226 9.55369 16.3012 9.26615 16.1365C8.6923 15.8077 7.97077 15.3237 7.22773 14.7153C5.7274 13.4869 4.21612 11.8144 3.58905 9.96031Z" stroke="#BFBFBF" stroke-width="1.25" stroke-linecap="round" stroke-linejoin="round"/>
</svg>
