<svg width="25" height="24" viewBox="0 0 25 24" fill="none" xmlns="http://www.w3.org/2000/svg">
<path d="M6.7827 9.17232C8.00924 9.17232 9.00347 8.17796 9.00347 6.95144C9.00347 5.72493 8.00924 4.73057 6.7827 4.73057C5.55617 4.73057 4.56194 5.72493 4.56194 6.95144C4.56194 8.17796 5.55617 9.17232 6.7827 9.17232Z" stroke="#666666" stroke-width="1.2"/>
<circle cx="6.78269" cy="6.95205" r="0.6" fill="#666666"/>
<path d="M12.5489 6.85791H20.7989" stroke="#666666" stroke-width="1.8" stroke-linecap="round"/>
<path d="M6.78257 19.271C8.0091 19.271 9.00333 18.2766 9.00333 17.0501C9.00333 15.8236 8.0091 14.8292 6.78257 14.8292C5.55603 14.8292 4.5618 15.8236 4.5618 17.0501C4.5618 18.2766 5.55603 19.271 6.78257 19.271Z" stroke="#666666" stroke-width="1.2"/>
<path d="M12.5322 17.0503H20.7822" stroke="#666666" stroke-width="1.8" stroke-linecap="round"/>
</svg>
