<svg width="71" height="70" viewBox="0 0 71 70" fill="none" xmlns="http://www.w3.org/2000/svg">
<circle cx="35.8867" cy="35" r="35" fill="#888888" fill-opacity="0.08"/>
<g clip-path="url(#clip0_4455_13576)">
<path fill-rule="evenodd" clip-rule="evenodd" d="M20.8867 35C20.8867 26.7157 27.6025 20 35.8867 20C44.171 20 50.8867 26.7157 50.8867 35C50.8867 43.2843 44.171 50 35.8867 50C33.6027 50 31.4344 49.4885 29.4935 48.5728L22.6883 49.9694C22.1944 50.0707 21.6826 49.9172 21.3261 49.5607C20.9696 49.2041 20.816 48.6924 20.9174 48.1985L22.3139 41.3933C21.3982 39.4523 20.8867 37.284 20.8867 35ZM29.1367 32.75C27.8941 32.75 26.8867 33.7574 26.8867 35V35.0142C26.8867 36.2568 27.8941 37.2642 29.1367 37.2642H29.1509C30.3935 37.2642 31.4009 36.2568 31.4009 35.0142V35C31.4009 33.7574 30.3935 32.75 29.1509 32.75H29.1367ZM35.8867 32.75C34.6441 32.75 33.6367 33.7574 33.6367 35V35.0142C33.6367 36.2568 34.6441 37.2642 35.8867 37.2642H35.9009C37.1435 37.2642 38.1509 36.2568 38.1509 35.0142V35C38.1509 33.7574 37.1435 32.75 35.9009 32.75H35.8867ZM40.3867 35C40.3867 33.7574 41.3941 32.75 42.6367 32.75H42.6509C43.8935 32.75 44.9009 33.7574 44.9009 35V35.0142C44.9009 36.2568 43.8935 37.2642 42.6509 37.2642H42.6367C41.3941 37.2642 40.3867 36.2568 40.3867 35.0142V35Z" fill="#9098A1"/>
</g>
<defs>
<clipPath id="clip0_4455_13576">
<rect width="36" height="36" fill="white" transform="translate(17.8867 17)"/>
</clipPath>
</defs>
</svg>
