<svg width="24" height="25" viewBox="0 0 24 25" fill="none" xmlns="http://www.w3.org/2000/svg">
<g id="Dark">
<g id="Group">
<path id="Vector" d="M19 19.4434H5C4.7 19.4434 4.5 19.3434 4.3 19.1434C4.1 18.9434 4 18.7434 4 18.4434C4 18.2434 4 18.1434 4.1 17.9434C4.2322 17.7451 4.39986 17.5729 4.59456 17.4355L6 16.4434V10.4434C6 7.74338 7.9 5.34337 10.5 4.64337V3.94337C10.5 3.14336 11.2 2.44336 12 2.44336C12.8 2.44336 13.5 3.14336 13.5 3.94337V4.64337C16.1 5.34337 18 7.74338 18 10.4434V16.4434L19.5 17.6434C19.5077 17.6511 19.5159 17.6587 19.5246 17.6665C19.747 17.8634 20 18.1464 20 18.4434C20 18.7434 19.9 18.9434 19.7 19.1434C19.5 19.3434 19.3 19.4434 19 19.4434ZM6.5 17.9434H17.5L16.5 17.1434V10.4434C16.5 8.44338 15.1 6.64338 13.1 6.14337C12.4 5.94337 11.6 5.94337 10.8 6.14337C8.9 6.64338 7.5 8.44338 7.5 10.4434V17.1434L6.5 17.9434Z" fill="#FAFAFA"/>
</g>
<path id="Vector_2" d="M12 22.6035C10.9 22.6035 10 21.7035 10 20.6035H14C14 21.7035 13.1 22.6035 12 22.6035Z" fill="#FAFAFA"/>
</g>
</svg>
