<svg width="70" height="71" viewBox="0 0 70 71" fill="none" xmlns="http://www.w3.org/2000/svg">
<circle cx="35" cy="35.6133" r="35" fill="#888888" fill-opacity="0.08"/>
<g opacity="0.6" clip-path="url(#clip0_2771_11352)">
<path d="M35 18.1133C33.551 18.1133 32.375 19.2893 32.375 20.7383V21.9551C27.8481 23.1219 24.5 27.2217 24.5 32.1133V42.6133L21.8135 44.6367H21.8101C21.5617 44.7948 21.3573 45.013 21.2157 45.2711C21.0741 45.5292 20.9999 45.8189 21 46.1133C21 46.5774 21.1844 47.0225 21.5126 47.3507C21.8408 47.6789 22.2859 47.8633 22.75 47.8633H35H47.25C47.7141 47.8633 48.1593 47.6789 48.4874 47.3507C48.8156 47.0225 49 46.5774 49 46.1133C49.0001 45.8189 48.9259 45.5292 48.7843 45.2711C48.6427 45.013 48.4383 44.7948 48.1899 44.6367L45.5 42.6133V32.1133C45.5 27.2217 42.1519 23.1219 37.625 21.9551V20.7383C37.625 19.2893 36.449 18.1133 35 18.1133ZM31.5 49.6133C31.5 51.5383 33.075 53.1133 35 53.1133C36.925 53.1133 38.5 51.5383 38.5 49.6133H31.5Z" fill="#9098A1"/>
</g>
<defs>
<clipPath id="clip0_2771_11352">
<rect width="36" height="36" fill="white" transform="translate(17 17.6133)"/>
</clipPath>
</defs>
</svg>
