<svg width="21" height="20" viewBox="0 0 21 20" fill="none" xmlns="http://www.w3.org/2000/svg">
<g id="Notification ICON UI 1">
<g id="Group">
<path id="Vector" d="M14.1334 13L14.9349 13.4376L15.3334 13.3L16.5334 14.3C16.7334 14.5 16.9334 14.7 16.9334 14.9C16.9334 15.1 16.8334 15.3 16.7334 15.5C16.5334 15.7 16.4334 15.7 16.1334 15.7H4.53337C4.33337 15.7 4.13337 15.6 3.93337 15.5C3.73337 15.3 3.73337 15.2 3.73337 14.9C3.73337 14.7 3.73337 14.7 3.83337 14.5C3.93337 14.3 4.03337 14.2 4.23337 14.1L5.33337 13.3V8.30001C5.33337 7.50001 5.53337 6.70001 5.93337 6.00001L6.93337 6.80001C6.73337 7.30001 6.63337 7.80001 6.63337 8.30001V13.9L5.83337 14.6H15.0334L14.2334 13.9V13M15.3334 10.7C15.3334 11.6 14.1334 11.4 14.1334 10.7V8.30001C14.1334 6.60001 12.9334 5.10001 11.3334 4.70001C10.7334 4.50001 10.0334 4.50001 9.43337 4.70001C8.83337 4.80001 8.43337 5.00001 8.13337 5.30001C7.33337 5.90001 6.63337 4.80001 7.53337 4.20001C8.03337 3.90001 8.53337 3.60001 9.13337 3.50001V2.90001C9.13337 2.20001 9.73337 1.70001 10.3334 1.70001C11.0334 1.70001 11.6334 2.30001 11.6334 2.90001V3.50001C13.7334 4.00001 15.3334 6.00001 15.3334 8.30001V10.7Z" fill="#FAFAFA"/>
<path id="Vector_2" d="M10.3334 18.4C9.43336 18.4 8.63336 17.6 8.63336 16.7H11.9334C12.0334 17.6 11.2334 18.4 10.3334 18.4Z" fill="#FAFAFA"/>
<path id="Vector_3" d="M2.50485 4.19131L18.0704 16.3591" stroke="#FAFAFA" stroke-width="1.5" stroke-linecap="round"/>
</g>
</g>
</svg>
