<svg width="29" height="28" viewBox="0 0 29 28" fill="none" xmlns="http://www.w3.org/2000/svg">
<circle cx="14.0859" cy="14" r="14" fill="#D5663F"/>
<path d="M9.23714 11.8871C10.1729 11.8871 10.9652 11.1552 10.9652 10.2118C10.9652 9.26829 10.1729 8.53642 9.23714 8.53642C8.30135 8.53642 7.50908 9.26829 7.50908 10.2118C7.50908 11.1552 8.30135 11.8871 9.23714 11.8871Z" stroke="#FAFAFA" stroke-width="0.919344"/>
<ellipse cx="9.23908" cy="10.2117" rx="0.469552" ry="0.45" fill="#FAFAFA"/>
<path d="M13.75 10.1406H20.2063" stroke="#FAFAFA" stroke-width="1.37902" stroke-linecap="round"/>
<path d="M9.23714 19.5707C10.1729 19.5707 10.9652 18.8388 10.9652 17.8953C10.9652 16.9519 10.1729 16.22 9.23714 16.22C8.30135 16.22 7.50908 16.9519 7.50908 17.8953C7.50908 18.8388 8.30135 19.5707 9.23714 19.5707Z" stroke="#FAFAFA" stroke-width="0.919344"/>
<path d="M13.7344 17.8945H20.1907" stroke="#FAFAFA" stroke-width="1.37902" stroke-linecap="round"/>
</svg>
