<svg width="28" height="28" viewBox="0 0 28 28" fill="none" xmlns="http://www.w3.org/2000/svg">
<circle opacity="0.16" cx="14" cy="14" r="14" fill="black"/>
<path d="M9.1512 11.8871C10.087 11.8871 10.8793 11.1552 10.8793 10.2118C10.8793 9.26829 10.087 8.53642 9.1512 8.53642C8.21541 8.53642 7.42314 9.26829 7.42314 10.2118C7.42314 11.1552 8.21541 11.8871 9.1512 11.8871Z" stroke="#666666" stroke-width="0.919344"/>
<ellipse cx="9.15315" cy="10.2117" rx="0.469552" ry="0.45" fill="#666666"/>
<path d="M13.6602 10.1445H20.1165" stroke="#666666" stroke-width="1.37902" stroke-linecap="round"/>
<path d="M9.1512 19.5707C10.087 19.5707 10.8793 18.8388 10.8793 17.8953C10.8793 16.9519 10.087 16.22 9.1512 16.22C8.21541 16.22 7.42314 16.9519 7.42314 17.8953C7.42314 18.8388 8.21541 19.5707 9.1512 19.5707Z" stroke="#666666" stroke-width="0.919344"/>
<path d="M13.6523 17.8945H20.1087" stroke="#666666" stroke-width="1.37902" stroke-linecap="round"/>
</svg>
