<svg width="106" height="106" viewBox="0 0 106 106" fill="none" xmlns="http://www.w3.org/2000/svg">
<g id="onelinkto_uqptf7 1">
<path id="Vector" d="M4.79688 4.7168H8.68576V8.60569H4.79688V4.7168ZM8.68576 4.7168H12.5747V8.60569H8.68576V4.7168ZM12.5747 4.7168H16.4635V8.60569H12.5747V4.7168ZM16.4635 4.7168H20.3524V8.60569H16.4635V4.7168ZM20.3524 4.7168H24.2413V8.60569H20.3524V4.7168ZM24.2413 4.7168H28.1302V8.60569H24.2413V4.7168ZM28.1302 4.7168H32.0191V8.60569H28.1302V4.7168ZM35.908 4.7168H39.7969V8.60569H35.908V4.7168ZM43.6858 4.7168H47.5747V8.60569H43.6858V4.7168ZM51.4635 4.7168H55.3524V8.60569H51.4635V4.7168ZM55.3524 4.7168H59.2413V8.60569H55.3524V4.7168ZM67.0191 4.7168H70.908V8.60569H67.0191V4.7168ZM74.7969 4.7168H78.6858V8.60569H74.7969V4.7168ZM78.6858 4.7168H82.5747V8.60569H78.6858V4.7168ZM82.5747 4.7168H86.4635V8.60569H82.5747V4.7168ZM86.4635 4.7168H90.3524V8.60569H86.4635V4.7168ZM90.3524 4.7168H94.2413V8.60569H90.3524V4.7168ZM94.2413 4.7168H98.1302V8.60569H94.2413V4.7168ZM98.1302 4.7168H102.019V8.60569H98.1302V4.7168ZM4.79688 8.60569H8.68576V12.4946H4.79688V8.60569ZM28.1302 8.60569H32.0191V12.4946H28.1302V8.60569ZM39.7969 8.60569H43.6858V12.4946H39.7969V8.60569ZM43.6858 8.60569H47.5747V12.4946H43.6858V8.60569ZM47.5747 8.60569H51.4635V12.4946H47.5747V8.60569ZM51.4635 8.60569H55.3524V12.4946H51.4635V8.60569ZM55.3524 8.60569H59.2413V12.4946H55.3524V8.60569ZM74.7969 8.60569H78.6858V12.4946H74.7969V8.60569ZM98.1302 8.60569H102.019V12.4946H98.1302V8.60569ZM4.79688 12.4946H8.68576V16.3835H4.79688V12.4946ZM12.5747 12.4946H16.4635V16.3835H12.5747V12.4946ZM16.4635 12.4946H20.3524V16.3835H16.4635V12.4946ZM20.3524 12.4946H24.2413V16.3835H20.3524V12.4946ZM28.1302 12.4946H32.0191V16.3835H28.1302V12.4946ZM35.908 12.4946H39.7969V16.3835H35.908V12.4946ZM39.7969 12.4946H43.6858V16.3835H39.7969V12.4946ZM43.6858 12.4946H47.5747V16.3835H43.6858V12.4946ZM55.3524 12.4946H59.2413V16.3835H55.3524V12.4946ZM59.2413 12.4946H63.1302V16.3835H59.2413V12.4946ZM74.7969 12.4946H78.6858V16.3835H74.7969V12.4946ZM82.5747 12.4946H86.4635V16.3835H82.5747V12.4946ZM86.4635 12.4946H90.3524V16.3835H86.4635V12.4946ZM90.3524 12.4946H94.2413V16.3835H90.3524V12.4946ZM98.1302 12.4946H102.019V16.3835H98.1302V12.4946ZM4.79688 16.3835H8.68576V20.2724H4.79688V16.3835ZM12.5747 16.3835H16.4635V20.2724H12.5747V16.3835ZM16.4635 16.3835H20.3524V20.2724H16.4635V16.3835ZM20.3524 16.3835H24.2413V20.2724H20.3524V16.3835ZM28.1302 16.3835H32.0191V20.2724H28.1302V16.3835ZM35.908 16.3835H39.7969V20.2724H35.908V16.3835ZM39.7969 16.3835H43.6858V20.2724H39.7969V16.3835ZM43.6858 16.3835H47.5747V20.2724H43.6858V16.3835ZM51.4635 16.3835H55.3524V20.2724H51.4635V16.3835ZM55.3524 16.3835H59.2413V20.2724H55.3524V16.3835ZM63.1302 16.3835H67.0191V20.2724H63.1302V16.3835ZM67.0191 16.3835H70.908V20.2724H67.0191V16.3835ZM74.7969 16.3835H78.6858V20.2724H74.7969V16.3835ZM82.5747 16.3835H86.4635V20.2724H82.5747V16.3835ZM86.4635 16.3835H90.3524V20.2724H86.4635V16.3835ZM90.3524 16.3835H94.2413V20.2724H90.3524V16.3835ZM98.1302 16.3835H102.019V20.2724H98.1302V16.3835ZM4.79688 20.2724H8.68576V24.1612H4.79688V20.2724ZM12.5747 20.2724H16.4635V24.1612H12.5747V20.2724ZM16.4635 20.2724H20.3524V24.1612H16.4635V20.2724ZM20.3524 20.2724H24.2413V24.1612H20.3524V20.2724ZM28.1302 20.2724H32.0191V24.1612H28.1302V20.2724ZM35.908 20.2724H39.7969V24.1612H35.908V20.2724ZM47.5747 20.2724H51.4635V24.1612H47.5747V20.2724ZM51.4635 20.2724H55.3524V24.1612H51.4635V20.2724ZM55.3524 20.2724H59.2413V24.1612H55.3524V20.2724ZM59.2413 20.2724H63.1302V24.1612H59.2413V20.2724ZM63.1302 20.2724H67.0191V24.1612H63.1302V20.2724ZM67.0191 20.2724H70.908V24.1612H67.0191V20.2724ZM74.7969 20.2724H78.6858V24.1612H74.7969V20.2724ZM82.5747 20.2724H86.4635V24.1612H82.5747V20.2724ZM86.4635 20.2724H90.3524V24.1612H86.4635V20.2724ZM90.3524 20.2724H94.2413V24.1612H90.3524V20.2724ZM98.1302 20.2724H102.019V24.1612H98.1302V20.2724ZM4.79688 24.1612H8.68576V28.0501H4.79688V24.1612ZM28.1302 24.1612H32.0191V28.0501H28.1302V24.1612ZM43.6858 24.1612H47.5747V28.0501H43.6858V24.1612ZM47.5747 24.1612H51.4635V28.0501H47.5747V24.1612ZM59.2413 24.1612H63.1302V28.0501H59.2413V24.1612ZM67.0191 24.1612H70.908V28.0501H67.0191V24.1612ZM74.7969 24.1612H78.6858V28.0501H74.7969V24.1612ZM98.1302 24.1612H102.019V28.0501H98.1302V24.1612ZM4.79688 28.0501H8.68576V31.939H4.79688V28.0501ZM8.68576 28.0501H12.5747V31.939H8.68576V28.0501ZM12.5747 28.0501H16.4635V31.939H12.5747V28.0501ZM16.4635 28.0501H20.3524V31.939H16.4635V28.0501ZM20.3524 28.0501H24.2413V31.939H20.3524V28.0501ZM24.2413 28.0501H28.1302V31.939H24.2413V28.0501ZM28.1302 28.0501H32.0191V31.939H28.1302V28.0501ZM35.908 28.0501H39.7969V31.939H35.908V28.0501ZM43.6858 28.0501H47.5747V31.939H43.6858V28.0501ZM51.4635 28.0501H55.3524V31.939H51.4635V28.0501ZM59.2413 28.0501H63.1302V31.939H59.2413V28.0501ZM67.0191 28.0501H70.908V31.939H67.0191V28.0501ZM74.7969 28.0501H78.6858V31.939H74.7969V28.0501ZM78.6858 28.0501H82.5747V31.939H78.6858V28.0501ZM82.5747 28.0501H86.4635V31.939H82.5747V28.0501ZM86.4635 28.0501H90.3524V31.939H86.4635V28.0501ZM90.3524 28.0501H94.2413V31.939H90.3524V28.0501ZM94.2413 28.0501H98.1302V31.939H94.2413V28.0501ZM98.1302 28.0501H102.019V31.939H98.1302V28.0501ZM43.6858 31.939H47.5747V35.8279H43.6858V31.939ZM51.4635 31.939H55.3524V35.8279H51.4635V31.939ZM63.1302 31.939H67.0191V35.8279H63.1302V31.939ZM67.0191 31.939H70.908V35.8279H67.0191V31.939ZM4.79688 35.8279H8.68576V39.7168H4.79688V35.8279ZM8.68576 35.8279H12.5747V39.7168H8.68576V35.8279ZM12.5747 35.8279H16.4635V39.7168H12.5747V35.8279ZM16.4635 35.8279H20.3524V39.7168H16.4635V35.8279ZM28.1302 35.8279H32.0191V39.7168H28.1302V35.8279ZM35.908 35.8279H39.7969V39.7168H35.908V35.8279ZM43.6858 35.8279H47.5747V39.7168H43.6858V35.8279ZM47.5747 35.8279H51.4635V39.7168H47.5747V35.8279ZM51.4635 35.8279H55.3524V39.7168H51.4635V35.8279ZM59.2413 35.8279H63.1302V39.7168H59.2413V35.8279ZM63.1302 35.8279H67.0191V39.7168H63.1302V35.8279ZM67.0191 35.8279H70.908V39.7168H67.0191V35.8279ZM70.908 35.8279H74.7969V39.7168H70.908V35.8279ZM82.5747 35.8279H86.4635V39.7168H82.5747V35.8279ZM86.4635 35.8279H90.3524V39.7168H86.4635V35.8279ZM90.3524 35.8279H94.2413V39.7168H90.3524V35.8279ZM98.1302 35.8279H102.019V39.7168H98.1302V35.8279ZM8.68576 39.7168H12.5747V43.6057H8.68576V39.7168ZM12.5747 39.7168H16.4635V43.6057H12.5747V39.7168ZM32.0191 39.7168H35.908V43.6057H32.0191V39.7168ZM43.6858 39.7168H47.5747V43.6057H43.6858V39.7168ZM51.4635 39.7168H55.3524V43.6057H51.4635V39.7168ZM59.2413 39.7168H63.1302V43.6057H59.2413V39.7168ZM78.6858 39.7168H82.5747V43.6057H78.6858V39.7168ZM94.2413 39.7168H98.1302V43.6057H94.2413V39.7168ZM28.1302 43.6057H32.0191V47.4946H28.1302V43.6057ZM35.908 43.6057H39.7969V47.4946H35.908V43.6057ZM39.7969 43.6057H43.6858V47.4946H39.7969V43.6057ZM43.6858 43.6057H47.5747V47.4946H43.6858V43.6057ZM47.5747 43.6057H51.4635V47.4946H47.5747V43.6057ZM51.4635 43.6057H55.3524V47.4946H51.4635V43.6057ZM67.0191 43.6057H70.908V47.4946H67.0191V43.6057ZM74.7969 43.6057H78.6858V47.4946H74.7969V43.6057ZM78.6858 43.6057H82.5747V47.4946H78.6858V43.6057ZM4.79688 47.4946H8.68576V51.3835H4.79688V47.4946ZM12.5747 47.4946H16.4635V51.3835H12.5747V47.4946ZM16.4635 47.4946H20.3524V51.3835H16.4635V47.4946ZM24.2413 47.4946H28.1302V51.3835H24.2413V47.4946ZM35.908 47.4946H39.7969V51.3835H35.908V47.4946ZM39.7969 47.4946H43.6858V51.3835H39.7969V47.4946ZM43.6858 47.4946H47.5747V51.3835H43.6858V47.4946ZM55.3524 47.4946H59.2413V51.3835H55.3524V47.4946ZM59.2413 47.4946H63.1302V51.3835H59.2413V47.4946ZM63.1302 47.4946H67.0191V51.3835H63.1302V47.4946ZM67.0191 47.4946H70.908V51.3835H67.0191V47.4946ZM74.7969 47.4946H78.6858V51.3835H74.7969V47.4946ZM82.5747 47.4946H86.4635V51.3835H82.5747V47.4946ZM86.4635 47.4946H90.3524V51.3835H86.4635V47.4946ZM90.3524 47.4946H94.2413V51.3835H90.3524V47.4946ZM16.4635 51.3835H20.3524V55.2724H16.4635V51.3835ZM24.2413 51.3835H28.1302V55.2724H24.2413V51.3835ZM28.1302 51.3835H32.0191V55.2724H28.1302V51.3835ZM32.0191 51.3835H35.908V55.2724H32.0191V51.3835ZM35.908 51.3835H39.7969V55.2724H35.908V51.3835ZM39.7969 51.3835H43.6858V55.2724H39.7969V51.3835ZM43.6858 51.3835H47.5747V55.2724H43.6858V51.3835ZM51.4635 51.3835H55.3524V55.2724H51.4635V51.3835ZM55.3524 51.3835H59.2413V55.2724H55.3524V51.3835ZM59.2413 51.3835H63.1302V55.2724H59.2413V51.3835ZM70.908 51.3835H74.7969V55.2724H70.908V51.3835ZM74.7969 51.3835H78.6858V55.2724H74.7969V51.3835ZM82.5747 51.3835H86.4635V55.2724H82.5747V51.3835ZM90.3524 51.3835H94.2413V55.2724H90.3524V51.3835ZM94.2413 51.3835H98.1302V55.2724H94.2413V51.3835ZM98.1302 51.3835H102.019V55.2724H98.1302V51.3835ZM8.68576 55.2724H12.5747V59.1612H8.68576V55.2724ZM20.3524 55.2724H24.2413V59.1612H20.3524V55.2724ZM35.908 55.2724H39.7969V59.1612H35.908V55.2724ZM39.7969 55.2724H43.6858V59.1612H39.7969V55.2724ZM47.5747 55.2724H51.4635V59.1612H47.5747V55.2724ZM51.4635 55.2724H55.3524V59.1612H51.4635V55.2724ZM63.1302 55.2724H67.0191V59.1612H63.1302V55.2724ZM67.0191 55.2724H70.908V59.1612H67.0191V55.2724ZM70.908 55.2724H74.7969V59.1612H70.908V55.2724ZM74.7969 55.2724H78.6858V59.1612H74.7969V55.2724ZM78.6858 55.2724H82.5747V59.1612H78.6858V55.2724ZM82.5747 55.2724H86.4635V59.1612H82.5747V55.2724ZM98.1302 55.2724H102.019V59.1612H98.1302V55.2724ZM8.68576 59.1612H12.5747V63.0501H8.68576V59.1612ZM12.5747 59.1612H16.4635V63.0501H12.5747V59.1612ZM16.4635 59.1612H20.3524V63.0501H16.4635V59.1612ZM24.2413 59.1612H28.1302V63.0501H24.2413V59.1612ZM28.1302 59.1612H32.0191V63.0501H28.1302V59.1612ZM35.908 59.1612H39.7969V63.0501H35.908V59.1612ZM47.5747 59.1612H51.4635V63.0501H47.5747V59.1612ZM55.3524 59.1612H59.2413V63.0501H55.3524V59.1612ZM67.0191 59.1612H70.908V63.0501H67.0191V59.1612ZM70.908 59.1612H74.7969V63.0501H70.908V59.1612ZM82.5747 59.1612H86.4635V63.0501H82.5747V59.1612ZM90.3524 59.1612H94.2413V63.0501H90.3524V59.1612ZM94.2413 59.1612H98.1302V63.0501H94.2413V59.1612ZM4.79688 63.0501H8.68576V66.939H4.79688V63.0501ZM24.2413 63.0501H28.1302V66.939H24.2413V63.0501ZM32.0191 63.0501H35.908V66.939H32.0191V63.0501ZM39.7969 63.0501H43.6858V66.939H39.7969V63.0501ZM43.6858 63.0501H47.5747V66.939H43.6858V63.0501ZM47.5747 63.0501H51.4635V66.939H47.5747V63.0501ZM59.2413 63.0501H63.1302V66.939H59.2413V63.0501ZM67.0191 63.0501H70.908V66.939H67.0191V63.0501ZM70.908 63.0501H74.7969V66.939H70.908V63.0501ZM74.7969 63.0501H78.6858V66.939H74.7969V63.0501ZM78.6858 63.0501H82.5747V66.939H78.6858V63.0501ZM82.5747 63.0501H86.4635V66.939H82.5747V63.0501ZM98.1302 63.0501H102.019V66.939H98.1302V63.0501ZM12.5747 66.939H16.4635V70.8279H12.5747V66.939ZM16.4635 66.939H20.3524V70.8279H16.4635V66.939ZM28.1302 66.939H32.0191V70.8279H28.1302V66.939ZM32.0191 66.939H35.908V70.8279H32.0191V66.939ZM55.3524 66.939H59.2413V70.8279H55.3524V66.939ZM63.1302 66.939H67.0191V70.8279H63.1302V66.939ZM67.0191 66.939H70.908V70.8279H67.0191V66.939ZM70.908 66.939H74.7969V70.8279H70.908V66.939ZM74.7969 66.939H78.6858V70.8279H74.7969V66.939ZM78.6858 66.939H82.5747V70.8279H78.6858V66.939ZM82.5747 66.939H86.4635V70.8279H82.5747V66.939ZM86.4635 66.939H90.3524V70.8279H86.4635V66.939ZM90.3524 66.939H94.2413V70.8279H90.3524V66.939ZM94.2413 66.939H98.1302V70.8279H94.2413V66.939ZM98.1302 66.939H102.019V70.8279H98.1302V66.939ZM35.908 70.8279H39.7969V74.7168H35.908V70.8279ZM39.7969 70.8279H43.6858V74.7168H39.7969V70.8279ZM43.6858 70.8279H47.5747V74.7168H43.6858V70.8279ZM55.3524 70.8279H59.2413V74.7168H55.3524V70.8279ZM59.2413 70.8279H63.1302V74.7168H59.2413V70.8279ZM67.0191 70.8279H70.908V74.7168H67.0191V70.8279ZM82.5747 70.8279H86.4635V74.7168H82.5747V70.8279ZM90.3524 70.8279H94.2413V74.7168H90.3524V70.8279ZM98.1302 70.8279H102.019V74.7168H98.1302V70.8279ZM4.79688 74.7168H8.68576V78.6057H4.79688V74.7168ZM8.68576 74.7168H12.5747V78.6057H8.68576V74.7168ZM12.5747 74.7168H16.4635V78.6057H12.5747V74.7168ZM16.4635 74.7168H20.3524V78.6057H16.4635V74.7168ZM20.3524 74.7168H24.2413V78.6057H20.3524V74.7168ZM24.2413 74.7168H28.1302V78.6057H24.2413V74.7168ZM28.1302 74.7168H32.0191V78.6057H28.1302V74.7168ZM39.7969 74.7168H43.6858V78.6057H39.7969V74.7168ZM67.0191 74.7168H70.908V78.6057H67.0191V74.7168ZM74.7969 74.7168H78.6858V78.6057H74.7969V74.7168ZM82.5747 74.7168H86.4635V78.6057H82.5747V74.7168ZM90.3524 74.7168H94.2413V78.6057H90.3524V74.7168ZM94.2413 74.7168H98.1302V78.6057H94.2413V74.7168ZM98.1302 74.7168H102.019V78.6057H98.1302V74.7168ZM4.79688 78.6057H8.68576V82.4946H4.79688V78.6057ZM28.1302 78.6057H32.0191V82.4946H28.1302V78.6057ZM43.6858 78.6057H47.5747V82.4946H43.6858V78.6057ZM51.4635 78.6057H55.3524V82.4946H51.4635V78.6057ZM59.2413 78.6057H63.1302V82.4946H59.2413V78.6057ZM63.1302 78.6057H67.0191V82.4946H63.1302V78.6057ZM67.0191 78.6057H70.908V82.4946H67.0191V78.6057ZM82.5747 78.6057H86.4635V82.4946H82.5747V78.6057ZM4.79688 82.4946H8.68576V86.3835H4.79688V82.4946ZM12.5747 82.4946H16.4635V86.3835H12.5747V82.4946ZM16.4635 82.4946H20.3524V86.3835H16.4635V82.4946ZM20.3524 82.4946H24.2413V86.3835H20.3524V82.4946ZM28.1302 82.4946H32.0191V86.3835H28.1302V82.4946ZM39.7969 82.4946H43.6858V86.3835H39.7969V82.4946ZM51.4635 82.4946H55.3524V86.3835H51.4635V82.4946ZM59.2413 82.4946H63.1302V86.3835H59.2413V82.4946ZM67.0191 82.4946H70.908V86.3835H67.0191V82.4946ZM70.908 82.4946H74.7969V86.3835H70.908V82.4946ZM74.7969 82.4946H78.6858V86.3835H74.7969V82.4946ZM78.6858 82.4946H82.5747V86.3835H78.6858V82.4946ZM82.5747 82.4946H86.4635V86.3835H82.5747V82.4946ZM86.4635 82.4946H90.3524V86.3835H86.4635V82.4946ZM98.1302 82.4946H102.019V86.3835H98.1302V82.4946ZM4.79688 86.3835H8.68576V90.2724H4.79688V86.3835ZM12.5747 86.3835H16.4635V90.2724H12.5747V86.3835ZM16.4635 86.3835H20.3524V90.2724H16.4635V86.3835ZM20.3524 86.3835H24.2413V90.2724H20.3524V86.3835ZM28.1302 86.3835H32.0191V90.2724H28.1302V86.3835ZM35.908 86.3835H39.7969V90.2724H35.908V86.3835ZM39.7969 86.3835H43.6858V90.2724H39.7969V86.3835ZM43.6858 86.3835H47.5747V90.2724H43.6858V86.3835ZM47.5747 86.3835H51.4635V90.2724H47.5747V86.3835ZM51.4635 86.3835H55.3524V90.2724H51.4635V86.3835ZM59.2413 86.3835H63.1302V90.2724H59.2413V86.3835ZM70.908 86.3835H74.7969V90.2724H70.908V86.3835ZM74.7969 86.3835H78.6858V90.2724H74.7969V86.3835ZM82.5747 86.3835H86.4635V90.2724H82.5747V86.3835ZM86.4635 86.3835H90.3524V90.2724H86.4635V86.3835ZM90.3524 86.3835H94.2413V90.2724H90.3524V86.3835ZM94.2413 86.3835H98.1302V90.2724H94.2413V86.3835ZM98.1302 86.3835H102.019V90.2724H98.1302V86.3835ZM4.79688 90.2724H8.68576V94.1612H4.79688V90.2724ZM12.5747 90.2724H16.4635V94.1612H12.5747V90.2724ZM16.4635 90.2724H20.3524V94.1612H16.4635V90.2724ZM20.3524 90.2724H24.2413V94.1612H20.3524V90.2724ZM28.1302 90.2724H32.0191V94.1612H28.1302V90.2724ZM35.908 90.2724H39.7969V94.1612H35.908V90.2724ZM39.7969 90.2724H43.6858V94.1612H39.7969V90.2724ZM47.5747 90.2724H51.4635V94.1612H47.5747V90.2724ZM67.0191 90.2724H70.908V94.1612H67.0191V90.2724ZM70.908 90.2724H74.7969V94.1612H70.908V90.2724ZM74.7969 90.2724H78.6858V94.1612H74.7969V90.2724ZM82.5747 90.2724H86.4635V94.1612H82.5747V90.2724ZM90.3524 90.2724H94.2413V94.1612H90.3524V90.2724ZM94.2413 90.2724H98.1302V94.1612H94.2413V90.2724ZM4.79688 94.1612H8.68576V98.0501H4.79688V94.1612ZM28.1302 94.1612H32.0191V98.0501H28.1302V94.1612ZM35.908 94.1612H39.7969V98.0501H35.908V94.1612ZM39.7969 94.1612H43.6858V98.0501H39.7969V94.1612ZM47.5747 94.1612H51.4635V98.0501H47.5747V94.1612ZM51.4635 94.1612H55.3524V98.0501H51.4635V94.1612ZM55.3524 94.1612H59.2413V98.0501H55.3524V94.1612ZM70.908 94.1612H74.7969V98.0501H70.908V94.1612ZM74.7969 94.1612H78.6858V98.0501H74.7969V94.1612ZM82.5747 94.1612H86.4635V98.0501H82.5747V94.1612ZM90.3524 94.1612H94.2413V98.0501H90.3524V94.1612ZM4.79688 98.0501H8.68576V101.939H4.79688V98.0501ZM8.68576 98.0501H12.5747V101.939H8.68576V98.0501ZM12.5747 98.0501H16.4635V101.939H12.5747V98.0501ZM16.4635 98.0501H20.3524V101.939H16.4635V98.0501ZM20.3524 98.0501H24.2413V101.939H20.3524V98.0501ZM24.2413 98.0501H28.1302V101.939H24.2413V98.0501ZM28.1302 98.0501H32.0191V101.939H28.1302V98.0501ZM35.908 98.0501H39.7969V101.939H35.908V98.0501ZM39.7969 98.0501H43.6858V101.939H39.7969V98.0501ZM43.6858 98.0501H47.5747V101.939H43.6858V98.0501ZM51.4635 98.0501H55.3524V101.939H51.4635V98.0501ZM55.3524 98.0501H59.2413V101.939H55.3524V98.0501ZM59.2413 98.0501H63.1302V101.939H59.2413V98.0501ZM74.7969 98.0501H78.6858V101.939H74.7969V98.0501ZM78.6858 98.0501H82.5747V101.939H78.6858V98.0501ZM82.5747 98.0501H86.4635V101.939H82.5747V98.0501ZM86.4635 98.0501H90.3524V101.939H86.4635V98.0501ZM90.3524 98.0501H94.2413V101.939H90.3524V98.0501ZM94.2413 98.0501H98.1302V101.939H94.2413V98.0501ZM98.1302 98.0501H102.019V101.939H98.1302V98.0501Z" fill="#DCDCDC"/>
</g>
</svg>
