<svg width="24" height="24" viewBox="0 0 24 24" fill="none" xmlns="http://www.w3.org/2000/svg">
<path fill-rule="evenodd" clip-rule="evenodd" d="M11 1.99988C6.02944 1.99988 2 6.02931 2 10.9999C2 15.9704 6.02944 19.9999 11 19.9999C13.1246 19.9999 15.0784 19.2627 16.6176 18.0317L20.2929 21.707C20.6834 22.0975 21.3166 22.0975 21.7071 21.707C22.0976 21.3165 22.0976 20.6833 21.7071 20.2928L18.0319 16.6175C19.2628 15.0783 20 13.1245 20 10.9999C20 6.02931 15.9706 1.99988 11 1.99988ZM5 10.9999C5 7.68617 7.68629 4.99988 11 4.99988C14.3137 4.99988 17 7.68617 17 10.9999C17 12.657 16.3295 14.1556 15.2426 15.2425C14.1558 16.3294 12.6571 16.9999 11 16.9999C7.68629 16.9999 5 14.3136 5 10.9999Z" fill="#FAFAFA"/>
</svg>
