<svg width="40" height="41" viewBox="0 0 40 41" fill="none" xmlns="http://www.w3.org/2000/svg">
<path d="M35 20.1992C35 11.9149 28.2843 5.19922 20 5.19922C11.7157 5.19922 5 11.9149 5 20.1992C5 22.6786 5.60155 25.0175 6.66667 27.0779L5 35.1992L13.1213 33.5326C15.1817 34.5977 17.5206 35.1992 20 35.1992" stroke="#FAFAFA" stroke-width="2.5" stroke-linecap="round" stroke-linejoin="round"/>
<rect x="12.5" y="20.1992" width="0.0180984" height="0.0180984" stroke="#FAFAFA" stroke-width="4.41667" stroke-linejoin="round"/>
<rect x="20" y="20.1992" width="0.0180984" height="0.0180984" stroke="#FAFAFA" stroke-width="4.41667" stroke-linejoin="round"/>
<rect x="27.5" y="20.1992" width="0.0180984" height="0.0180984" stroke="#FAFAFA" stroke-width="4.41667" stroke-linejoin="round"/>
<g clip-path="url(#clip0_4455_5448)">
<path fill-rule="evenodd" clip-rule="evenodd" d="M23.957 32.0807C23.957 28.0537 27.2216 24.7891 31.2487 24.7891C35.2758 24.7891 38.5404 28.0537 38.5404 32.0807C38.5404 36.1078 35.2758 39.3724 31.2487 39.3724C27.2216 39.3724 23.957 36.1078 23.957 32.0807ZM32.5372 29.1317C32.2321 28.8266 31.7374 28.8266 31.4323 29.1317C31.1272 29.4368 31.1272 29.9314 31.4323 30.2365L32.4883 31.2926H28.1244C27.693 31.2926 27.3432 31.6423 27.3432 32.0738C27.3432 32.5053 27.693 32.8551 28.1244 32.8551H32.4883L31.4323 33.9111C31.1272 34.2162 31.1272 34.7108 31.4323 35.0159C31.7374 35.321 32.2321 35.321 32.5372 35.0159L34.9269 32.6262C35.232 32.3211 35.232 31.8265 34.9269 31.5214L32.5372 29.1317Z" fill="#FAFAFA"/>
</g>
<defs>
<clipPath id="clip0_4455_5448">
<rect width="17.5" height="17.5" fill="white" transform="translate(22.5 23.3242)"/>
</clipPath>
</defs>
</svg>
