<svg width="25" height="24" viewBox="0 0 25 24" fill="none" xmlns="http://www.w3.org/2000/svg">
<g id="simple-icons:appstore">
<path id="Vector" d="M9.78265 14.4032L14.812 5.31828C14.8811 5.19317 14.9503 5.0697 15.0128 4.94046C15.0696 4.82358 15.1174 4.70587 15.1487 4.57829C15.2145 4.30995 15.1964 4.03008 15.0943 3.77409C14.9946 3.52223 14.8154 3.3098 14.584 3.16909C14.3565 3.03114 14.0887 2.97508 13.8251 3.01022C13.5617 3.04562 13.3205 3.16991 13.1303 3.36417C13.0398 3.45471 12.9657 3.55761 12.8974 3.66708C12.8217 3.78726 12.7533 3.91237 12.6842 4.03749L12.3665 4.61121L12.0479 4.03667C11.9788 3.91237 11.9104 3.78726 11.8347 3.66708C11.7682 3.55778 11.6901 3.45595 11.6018 3.36335C11.4163 3.17117 11.1716 3.04682 10.907 3.01022C10.6436 2.97534 10.3762 3.03138 10.1489 3.16909C9.91753 3.30985 9.73835 3.52226 9.6386 3.77409C9.53612 4.02971 9.5171 4.3112 9.58427 4.57829C9.61555 4.70587 9.66329 4.82358 9.71927 4.94046C9.78183 5.0697 9.85097 5.19317 9.92011 5.31828L10.9474 7.17362L6.94531 14.4024H4.20181C4.06434 14.4024 3.92606 14.4024 3.78859 14.4106C3.66348 14.418 3.54165 14.4336 3.41983 14.469C3.16466 14.5431 2.94077 14.6995 2.77943 14.9201C2.61826 15.1422 2.5314 15.4095 2.53125 15.6838C2.5311 15.9582 2.61768 16.2256 2.77861 16.4478C2.94077 16.6684 3.16384 16.824 3.41983 16.8989C3.54165 16.9343 3.66348 16.9499 3.78859 16.9573C3.92606 16.9656 4.06434 16.9656 4.20263 16.9656H14.9832C15.0161 16.8937 15.0437 16.8194 15.0655 16.7433C15.4071 15.5778 14.5585 14.4024 13.3904 14.4024L9.78265 14.4032ZM5.09408 17.3846L4.44216 18.6193C4.37466 18.7477 4.30634 18.8744 4.24543 19.0069C4.18901 19.1262 4.14489 19.2508 4.11373 19.379C4.04768 19.6532 4.06604 19.941 4.16641 20.2046C4.26601 20.4664 4.44134 20.6845 4.66605 20.8261C4.88995 20.9676 5.15088 21.0253 5.4077 20.9882C5.66616 20.952 5.90158 20.8252 6.0876 20.626C6.1765 20.5314 6.24894 20.4268 6.31644 20.3149C6.39052 20.1914 6.45719 20.063 6.52469 19.9346L7.47047 18.1435C7.39639 18.02 6.69096 16.9335 5.09408 17.3846ZM22.0391 14.9102C21.8803 14.6953 21.6548 14.539 21.3979 14.4657C21.2775 14.4325 21.1538 14.4129 21.0291 14.4073C20.8908 14.3991 20.7534 14.3991 20.6151 14.3991H17.8815L14.2679 7.96629C13.7938 8.46405 13.4845 9.09578 13.3822 9.77553C13.2499 10.6258 13.4082 11.4958 13.8316 12.2449L18.1728 19.9766C18.242 20.1001 18.3103 20.2235 18.386 20.3421C18.4552 20.4491 18.5293 20.5503 18.619 20.6417C18.8091 20.8326 19.0503 20.9545 19.3145 20.9899C19.5779 21.0244 19.8438 20.9701 20.0735 20.8335C20.3044 20.6953 20.4839 20.4855 20.5846 20.2359C20.6875 19.9832 20.7048 19.7074 20.6389 19.4424C20.6066 19.3188 20.561 19.199 20.5031 19.0851C20.4414 18.9576 20.3714 18.8357 20.3023 18.7123L19.3014 16.9294H20.6151C20.7534 16.9294 20.8908 16.9294 21.0291 16.922C21.1542 16.9145 21.2761 16.8989 21.3979 16.8643C21.6553 16.791 21.881 16.6344 22.0399 16.419C22.2008 16.2006 22.2874 15.9363 22.2869 15.665C22.2874 15.3937 22.2008 15.1295 22.0399 14.911L22.0391 14.9102Z" fill="#D5663F"/>
</g>
</svg>
