<svg width="31" height="31" viewBox="0 0 31 31" fill="none" xmlns="http://www.w3.org/2000/svg">
<g id="Icon Frame">
<g id="Union">
<path fill-rule="evenodd" clip-rule="evenodd" d="M26.0007 8.63859C26.3912 9.02911 26.3912 9.66227 26.0007 10.0528L14.0974 21.9563C13.9099 22.1439 13.6555 22.2492 13.3903 22.2492C13.1251 22.2492 12.8707 22.1439 12.6832 21.9563L7.04483 16.3176C6.65431 15.9271 6.65433 15.2939 7.04487 14.9034C7.4354 14.5129 8.06857 14.5129 8.45908 14.9035L13.3903 19.835L24.5864 8.63861C24.977 8.24808 25.6101 8.24807 26.0007 8.63859Z" fill="url(#paint0_linear_2314_13068)"/>
<path fill-rule="evenodd" clip-rule="evenodd" d="M26.0007 8.63859C26.3912 9.02911 26.3912 9.66227 26.0007 10.0528L14.0974 21.9563C13.9099 22.1439 13.6555 22.2492 13.3903 22.2492C13.1251 22.2492 12.8707 22.1439 12.6832 21.9563L7.04483 16.3176C6.65431 15.9271 6.65433 15.2939 7.04487 14.9034C7.4354 14.5129 8.06857 14.5129 8.45908 14.9035L13.3903 19.835L24.5864 8.63861C24.977 8.24808 25.6101 8.24807 26.0007 8.63859Z" fill="url(#paint1_linear_2314_13068)"/>
</g>
</g>
<defs>
<linearGradient id="paint0_linear_2314_13068" x1="-6.12174" y1="-0.0181404" x2="31.4288" y2="5.58344" gradientUnits="userSpaceOnUse">
<stop stop-color="#F8955D"/>
<stop offset="1" stop-color="#A8351B"/>
</linearGradient>
<linearGradient id="paint1_linear_2314_13068" x1="9.51541" y1="10.2416" x2="24.3561" y2="13.0383" gradientUnits="userSpaceOnUse">
<stop stop-color="#D3683F"/>
<stop offset="1" stop-color="#B64527"/>
</linearGradient>
</defs>
</svg>
