<svg width="20" height="21" viewBox="0 0 20 21" fill="none" xmlns="http://www.w3.org/2000/svg">
<path fill-rule="evenodd" clip-rule="evenodd" d="M18.2582 5.94959C18.222 5.86577 18.1712 5.78674 18.1058 5.71634C18.0918 5.70118 18.0771 5.68655 18.062 5.67248C17.9148 5.53579 17.7175 5.45221 17.5008 5.45221H14.1675C13.8338 5.45221 13.533 5.65322 13.4053 5.9615C13.2776 6.26978 13.3481 6.62463 13.5841 6.86058L14.6674 7.94387L10.8341 11.7772L8.08414 9.02718C7.92943 8.87247 7.71958 8.78555 7.50078 8.78555C7.28198 8.78555 7.07214 8.87247 6.91742 9.02718L1.91742 14.0272C1.59524 14.3494 1.59524 14.8717 1.91742 15.1939C2.2396 15.5161 2.76196 15.5161 3.08414 15.1939L7.50078 10.7773L10.2508 13.5272C10.4055 13.682 10.6153 13.7689 10.8341 13.7689C11.0529 13.7689 11.2628 13.682 11.4175 13.5272L15.8341 9.1106L16.9174 10.1939C17.1534 10.4299 17.5082 10.5004 17.8165 10.3727C18.1248 10.2451 18.3258 9.94423 18.3258 9.61055V6.27721C18.3258 6.1608 18.3017 6.05002 18.2582 5.94959Z" fill="#FAFAFA"/>
</svg>
