<svg width="21" height="20" viewBox="0 0 21 20" fill="none" xmlns="http://www.w3.org/2000/svg">
<g id="Icon Frame">
<path id="Union" fill-rule="evenodd" clip-rule="evenodd" d="M7.93229 5.83464C7.93229 4.45392 9.05158 3.33464 10.4323 3.33464C11.813 3.33464 12.9323 4.45392 12.9323 5.83464V7.50098H7.93229V5.83464ZM6.26562 7.50098V5.83464C6.26562 3.53345 8.1311 1.66797 10.4323 1.66797C12.7335 1.66797 14.599 3.53345 14.599 5.83464V7.50098H16.2656C16.7259 7.50098 17.099 7.87407 17.099 8.33431V15.8343C17.099 17.215 15.9797 18.3343 14.599 18.3343H6.26563C4.88492 18.3343 3.76562 17.215 3.76562 15.8343V8.33431C3.76562 7.87407 4.13872 7.50098 4.59896 7.50098H6.26562ZM11.266 12.9183C11.266 12.2279 11.8256 11.6683 12.516 11.6683H12.5243C13.2146 11.6683 13.7743 12.2279 13.7743 12.9183V12.9266C13.7743 13.617 13.2146 14.1766 12.5243 14.1766H12.516C11.8256 14.1766 11.266 13.617 11.266 12.9266V12.9183Z" fill="#D5663F"/>
</g>
</svg>
