<svg width="20" height="21" viewBox="0 0 20 21" fill="none" xmlns="http://www.w3.org/2000/svg">
<g id="Icon Frame">
<g id="Group 1116599478">
<path id="Ellipse 51" d="M12.5013 10.4417C12.5013 8.87158 12.3656 7.33312 12.1053 5.83744C12.0032 5.25079 11.3248 4.98873 10.839 5.3331L8.76768 6.80142C8.48595 7.00113 8.14915 7.1084 7.80383 7.1084H5.83464C4.91416 7.1084 4.16797 7.85459 4.16797 8.77506V12.1084C4.16797 13.0289 4.91416 13.7751 5.83464 13.7751H7.80383C8.14915 13.7751 8.48595 13.8823 8.76768 14.082L10.839 15.5504C11.3248 15.8947 12.0032 15.6327 12.1053 15.046C12.3656 13.5503 12.5013 12.0119 12.5013 10.4417Z" stroke="#FAFAFA" stroke-width="1.25" stroke-linejoin="round"/>
<path id="Ellipse 52" d="M15.7305 7.94141C15.7985 8.76574 15.8332 9.59952 15.8332 10.4414C15.8332 11.2833 15.7985 12.1171 15.7305 12.9414" stroke="#FAFAFA" stroke-width="1.25" stroke-linecap="round"/>
</g>
</g>
</svg>
