<svg width="21" height="21" viewBox="0 0 21 21" fill="none" xmlns="http://www.w3.org/2000/svg">
<g id="Icon Frame">
<path id="Star 2" d="M9.38742 3.11079C10.1334 2.2775 11.438 2.2775 12.184 3.11079L12.7032 3.69072C13.0834 4.1154 13.636 4.34429 14.2051 4.31283L14.9823 4.26986C16.099 4.20813 17.0215 5.13065 16.9598 6.24737L16.9168 7.02455C16.8854 7.59368 17.1143 8.14627 17.5389 8.52645L18.1189 9.04562C18.9522 9.79161 18.9522 11.0963 18.1189 11.8422L17.5389 12.3614C17.1143 12.7416 16.8854 13.2942 16.9168 13.8633L16.9598 14.6405C17.0215 15.7572 16.099 16.6797 14.9823 16.618L14.2051 16.575C13.636 16.5436 13.0834 16.7725 12.7032 17.1971L12.184 17.7771C11.438 18.6104 10.1334 18.6104 9.38742 17.7771L8.86825 17.1971C8.48806 16.7725 7.93548 16.5436 7.36635 16.575L6.58917 16.618C5.47245 16.6797 4.54992 15.7572 4.61166 14.6405L4.65463 13.8633C4.68609 13.2942 4.4572 12.7416 4.03252 12.3614L3.45259 11.8422C2.61929 11.0963 2.61929 9.79161 3.45259 9.04562L4.03252 8.52645C4.4572 8.14627 4.68609 7.59368 4.65463 7.02455L4.61166 6.24737C4.54992 5.13065 5.47245 4.20813 6.58917 4.26986L7.36635 4.31283C7.93548 4.34429 8.48806 4.1154 8.86825 3.69072L9.38742 3.11079Z" stroke="#FAFAFA" stroke-width="1.25"/>
<path id="Union" fill-rule="evenodd" clip-rule="evenodd" d="M14.0007 8.79076C14.2217 8.52559 14.1858 8.13148 13.9207 7.9105C13.6555 7.68953 13.2614 7.72535 13.0404 7.99052L10.0575 11.57L8.48881 10.0013C8.24474 9.75723 7.84901 9.75723 7.60493 10.0013C7.36085 10.2454 7.36086 10.6411 7.60494 10.8852L9.65206 12.9323C9.65997 12.9404 9.66813 12.9483 9.67656 12.956C9.73039 13.0056 9.7908 13.044 9.85484 13.0712C10.0297 13.1456 10.2294 13.1357 10.3953 13.0466C10.456 13.0141 10.5122 12.9709 10.561 12.9173C10.5692 12.9084 10.5771 12.8993 10.5846 12.89L14.0007 8.79076Z" fill="#FAFAFA"/>
</g>
</svg>
