<svg width="111" height="111" viewBox="0 0 111 111" fill="none" xmlns="http://www.w3.org/2000/svg">
<g id="white-spinner">
<path id="Vector" d="M98.2133 52.8371C97.4638 37.596 88.2192 23.3544 74.4772 16.8581C59.4859 10.1121 41.2466 12.8605 28.7539 23.3544C16.7609 33.3485 11.2641 49.589 14.762 64.8301C18.0102 79.8214 29.7533 92.0642 44.4947 96.0619C62.2343 101.059 78.4748 92.5639 88.469 78.0724C79.4743 90.0654 65.7323 98.0607 50.4912 95.3123C35.2501 92.5639 22.7574 81.0707 19.2594 66.0794C15.5116 50.0887 23.0072 33.3485 37.2489 25.1033C51.9903 16.6083 72.7282 19.8564 82.4725 34.3479C84.9711 37.8459 86.72 42.0934 87.4696 46.3409C88.2192 49.8389 87.9693 53.5867 88.469 57.0847C88.9687 60.3328 91.7171 64.5803 95.4649 62.3316C98.713 60.3328 98.4632 56.0852 98.2133 52.8371C98.4632 54.5861 98.2133 51.8377 98.2133 52.8371Z" fill="#FFFFFF"/>
</g>
</svg>
