<svg width="538" height="103" viewBox="0 0 538 103" fill="none" xmlns="http://www.w3.org/2000/svg">
<path d="M0 82.9233L58.3848 23.0273H1.80122V1.95813H92.4612V19.8606L33.8461 79.7561H94.2016V100.825H0V82.9233Z" fill="white"/>
<path d="M102.639 51.3133C102.639 25.1305 120.686 0 152.441 0C184.197 0 202.256 25.131 202.256 51.3133C202.256 77.4956 184.196 102.784 152.441 102.784C120.687 102.784 102.639 77.4962 102.639 51.3133ZM178.636 51.3133C178.636 36.5662 169.449 21.9757 152.441 21.9757C135.434 21.9757 126.416 36.5657 126.416 51.3133C126.416 66.061 135.591 80.5057 152.441 80.5057C169.292 80.5057 178.636 66.2181 178.636 51.3133Z" fill="white"/>
<path d="M216.556 100.826V1.95831H284.72C304.593 1.95831 314.372 16.4036 314.372 32.3596C314.372 45.7531 306.854 58.083 291.949 61.0926C292.451 61.764 292.903 62.4709 293.302 63.208L315.883 100.826H290.111L266.926 61.8544H239.426V100.826H216.556ZM239.427 40.7847H284.72C289.096 40.7847 291.502 37.6175 291.502 33.2538V30.546C291.502 26.037 289.084 23.0275 284.72 23.0275H239.427V40.7847Z" fill="white"/>
<path d="M330.921 100.826V1.95831H399.097C418.958 1.95831 428.749 16.4036 428.749 32.3596C428.749 45.7531 421.218 58.083 406.326 61.0926C406.827 61.764 407.28 62.4709 407.679 63.208L430.247 100.826H404.512L381.339 61.8544H353.803V100.826H330.921ZM353.803 40.7847H399.097C403.461 40.7847 405.866 37.6175 405.866 33.2538V30.546C405.866 26.037 403.448 23.0275 399.097 23.0275H353.803V40.7847Z" fill="white"/>
<path d="M438.371 51.3133C438.371 25.1305 456.431 0 488.186 0C519.94 0 538 25.131 538 51.3133C538 77.4956 519.94 102.784 488.186 102.784C456.431 102.784 438.371 77.4962 438.371 51.3133ZM514.368 51.3133C514.368 36.5662 505.193 21.9757 488.185 21.9757C471.177 21.9757 462.147 36.5657 462.147 51.3133C462.147 66.061 471.334 80.5057 488.185 80.5057C505.036 80.5057 514.368 66.2181 514.368 51.3133Z" fill="white"/>
</svg>
