<svg width="104" height="134" viewBox="0 0 104 134" fill="none" xmlns="http://www.w3.org/2000/svg">
<path d="M15.5283 133.022H6.21216V88.3599H15.5283V133.022Z" fill="#F6E382"/>
<path d="M39.9156 133.025H30.4282L28.7842 124.018C28.7157 123.607 28.5102 122.339 28.2362 120.25C27.9279 118.127 27.5169 115.112 27.0032 111.208V133.06H19.0913V88.3629H28.1677L29.8459 97.816C30.0172 98.6723 30.668 103.159 31.764 111.311V88.3286H39.9156V133.025Z" fill="#F6E382"/>
<path d="M64.4044 121.754C64.4044 123.946 64.2332 125.796 63.9249 127.2C63.6167 128.638 63.1029 129.803 62.4179 130.659C61.7329 131.515 60.8081 132.132 59.7121 132.474C58.6161 132.817 57.2461 133.022 55.6706 133.022H43.5459V88.3599C47.4162 88.3599 50.4987 88.3599 52.8278 88.3599C55.1568 88.3599 56.6638 88.3941 57.4173 88.4284C58.6846 88.4626 59.7806 88.6681 60.7054 89.0449C61.5959 89.4216 62.3151 90.0381 62.8632 90.8944C63.4112 91.7506 63.7879 92.9152 64.0619 94.3879C64.3017 95.8607 64.4387 97.7102 64.4387 99.9708V121.754H64.4044ZM54.917 98.909C54.917 97.676 54.7458 96.8882 54.4376 96.58C54.1293 96.2717 53.5813 96.1005 52.8278 96.1005V125.282C53.6498 125.282 54.1978 125.145 54.4718 124.871C54.7458 124.597 54.917 123.775 54.917 122.439V98.909V98.909Z" fill="#F6E382"/>
<path d="M77.0432 133.022H67.7271V88.3599H77.0432V133.022Z" fill="#F6E382"/>
<path d="M101.017 133.023H91.7011V124.324H89.6118V133.023H80.2615V97.5057C80.2615 95.5534 80.3985 93.9779 80.6382 92.7448C80.878 91.5118 81.3575 90.5528 82.0425 89.9021C82.7275 89.217 83.6523 88.7718 84.851 88.532C86.0498 88.2923 87.5911 88.1553 89.4749 88.1553C94.0302 88.1553 96.9757 88.532 98.2772 89.2856C100.127 90.4158 101.017 93.1559 101.017 97.5057V133.023V133.023ZM91.7696 98.1222C91.7696 96.7521 91.4271 96.0329 90.7079 96.0329C89.9543 96.0329 89.5434 96.7179 89.5434 98.1222L89.6118 116.48H91.7011L91.7696 98.1222Z" fill="#F6E382"/>
<path d="M0.698133 10.3039V12.0507C0.698133 13.6262 0.800891 14.8935 0.972143 15.784C1.17765 16.7087 1.52014 17.4965 2.06815 18.1473C2.61616 18.798 3.36967 19.3803 4.32868 19.9625C5.28769 20.5106 6.52072 21.2298 8.06199 22.0861C8.57575 22.3601 8.98674 22.5998 9.295 22.8053C9.60325 23.0108 9.80875 23.1821 9.98 23.3191C10.117 23.4903 10.2198 23.6273 10.254 23.8328C10.2883 24.0041 10.3225 24.2096 10.3225 24.4151V29.6212C10.3225 31.2994 10.0143 32.1215 9.3635 32.1215C8.84974 32.1215 8.60999 31.3337 8.60999 29.7924V23.2848H0.732386V31.0597C0.732386 32.6695 0.835135 33.971 1.04064 34.9985C1.24614 36.026 1.65715 36.8138 2.27366 37.3618C2.89016 37.944 3.78068 38.3208 4.91094 38.492C6.04121 38.6975 7.51396 38.766 9.32924 38.766C11.2815 38.766 12.8228 38.6633 14.0216 38.4235C15.1861 38.218 16.1108 37.807 16.7273 37.2933C17.3781 36.7453 17.7891 36.026 17.9946 35.1355C18.2001 34.245 18.3029 33.0805 18.3029 31.7104V25.0316C18.3029 23.4218 18.2001 22.1546 18.0289 21.2298C17.8234 20.3051 17.4466 19.5515 16.8986 18.9008C16.3506 18.2843 15.5286 17.6678 14.5011 17.0513C13.4736 16.4348 12.1035 15.647 10.3568 14.688C9.74024 14.3455 9.295 13.9345 9.021 13.4892C8.74699 13.044 8.57575 12.5987 8.57575 12.1534V9.34491C8.57575 8.55715 8.64423 7.97489 8.81548 7.56388C8.98673 7.15288 9.15799 6.98163 9.39774 6.98163C10.0143 6.98163 10.2883 7.76939 10.2883 9.34491V13.5235H18.2686V8.21465C18.2686 6.67338 18.1659 5.40611 17.9946 4.41285C17.8234 3.41959 17.4124 2.63183 16.8301 2.04957C16.2136 1.46731 15.3231 1.09056 14.1586 0.850805C12.994 0.645303 11.3843 0.508301 9.39774 0.508301C7.41122 0.508301 5.86995 0.611052 4.70544 0.850805C3.54092 1.05631 2.65041 1.50156 2.06815 2.11807C1.45164 2.73457 1.07489 3.55659 0.903638 4.61835C0.732386 5.68012 0.629639 7.01588 0.629639 8.6599C0.629639 8.8654 0.62963 9.0709 0.663881 9.31066C0.698131 9.65316 0.698133 9.96141 0.698133 10.3039Z" fill="url(#paint0_radial_1097_3394)"/>
<path d="M29.5942 18.9691H31.3752V38.6631H39.3555V0.850586H31.3752V12.4272H29.5942V0.850586H21.7166V38.6631H29.5942V18.9691Z" fill="url(#paint1_radial_1097_3394)"/>
<path d="M50.6833 31.3031H52.4643V38.6669H60.3419V8.59502C60.3419 4.89597 59.5541 2.56695 58.0129 1.60793C56.9169 0.991426 54.4166 0.648926 50.5463 0.648926C48.9365 0.648926 47.635 0.751675 46.6417 0.957178C45.6485 1.16268 44.8264 1.53943 44.2784 2.12169C43.6962 2.70395 43.3194 3.49171 43.1139 4.55347C42.9084 5.58099 42.8057 6.951 42.8057 8.59502V38.6669H50.7518V31.3031H50.6833ZM50.649 9.10878C50.649 7.94426 50.9915 7.36201 51.6423 7.36201C52.2245 7.36201 52.5328 7.94426 52.5328 9.10878L52.4985 24.6585H50.7175L50.649 9.10878Z" fill="url(#paint2_radial_1097_3394)"/>
<path d="M71.7675 21.6406H72.5895C72.9662 21.6406 73.206 21.7776 73.343 22.0516C73.48 22.3256 73.5485 23.0106 73.5485 24.1066V38.6631H81.5289V24.6204C81.5289 21.0926 80.5356 18.8321 78.5833 17.873C79.1313 17.6675 79.5766 17.3593 79.9533 16.9825C80.3301 16.6058 80.6383 16.1263 80.8781 15.544C81.1179 14.9275 81.2891 14.2083 81.3919 13.3177C81.4946 12.4272 81.5289 11.3655 81.5289 10.0982C81.5289 7.97468 81.4261 6.2964 81.2206 5.09764C81.0151 3.86462 80.6041 2.93986 80.0218 2.32335C79.4396 1.70684 78.6176 1.29584 77.5901 1.12459C76.5626 0.953333 75.1925 0.850586 73.5485 0.850586H63.8899V38.6631H71.7675V21.6406ZM71.7675 7.35817C72.4868 7.35817 72.9663 7.42666 73.206 7.59792C73.4458 7.76917 73.5485 8.14592 73.5485 8.79668V11.845C73.5485 12.4615 73.5143 12.9752 73.48 13.2835C73.4458 13.626 73.343 13.8658 73.206 14.0028C73.069 14.174 72.8977 14.2425 72.658 14.2768C72.4182 14.311 72.1442 14.311 71.7675 14.311V7.35817Z" fill="url(#paint3_radial_1097_3394)"/>
<path d="M92.8566 20.0229C93.1991 23.4822 93.5416 26.1195 93.8499 28.0032C94.1581 29.8528 94.3294 30.983 94.3979 31.3255L95.5966 38.6894H103.371L98.1997 16.8376L102.686 0.911133H94.9116L94.2266 4.61019C93.8499 6.80222 93.5416 8.68599 93.3704 10.2615C93.1649 11.837 92.9936 13.1728 92.8566 14.2346V0.911133H84.979V38.7236H92.8566V20.0229Z" fill="url(#paint4_radial_1097_3394)"/>
<path d="M0.62915 48.4284H5.52697V84.4598H15.9391V48.4284H20.8369V41.0303H0.62915V48.4284Z" fill="url(#paint5_radial_1097_3394)"/>
<path d="M43.0647 41.8836C41.592 41.1644 38.3382 40.7876 33.2349 40.7876C31.1113 40.7876 29.3988 40.8903 28.063 41.1301C26.7273 41.3699 25.6998 41.8151 24.912 42.4659C24.1585 43.1166 23.6447 44.0414 23.3707 45.2402C23.0967 46.4389 22.9597 47.9802 22.9597 49.864V84.4227H33.4061V75.9628H35.7351V84.4227H46.113V49.8982C46.1473 45.6512 45.1198 42.9796 43.0647 41.8836ZM35.7694 68.3592H33.4403L33.3719 50.4805C33.3719 49.1447 33.8171 48.4597 34.6734 48.4597C35.4611 48.4597 35.8379 49.1447 35.8379 50.4805L35.7694 68.3592Z" fill="url(#paint6_radial_1097_3394)"/>
<path d="M64.166 63.3606C62.933 55.4487 62.248 51.0647 62.0425 50.2427L60.1245 41.0293H49.9863V84.4589H58.7887V63.2236C59.3709 67.0254 59.8504 69.9709 60.1587 72.026C60.5012 74.081 60.7067 75.314 60.7752 75.6908L62.5905 84.4589H73.1739V41.0293H64.0975V63.3606H64.166Z" fill="url(#paint7_radial_1097_3394)"/>
<path d="M98.9966 81.5143L100.058 79.2195H95.5373L97.4211 77.1645L93.8248 76.3767L96.9416 74.493L92.5232 72.9859L94.8865 71.2734L91.4273 69.9376L95.1263 67.3346L91.4273 66.9236L93.7905 64.8001L90.571 63.1561L95.3318 61.6148L93.1398 59.1488L95.229 57.813L94.3385 55.9977L95.9483 55.5182L100.641 41.0645H90.3655L89.475 45.3116C88.9612 47.8119 88.5845 49.9696 88.3447 51.7849C88.105 53.6002 87.8652 55.1415 87.6597 56.3745V41.0303H77.2476V84.4598H87.6254V63.0533C88.0707 67.0264 88.5159 70.0747 88.927 72.1982C89.338 74.3217 89.5777 75.6232 89.6462 76L91.2217 84.4598H101.497L100.709 81.5143H98.9966V81.5143Z" fill="url(#paint8_radial_1097_3394)"/>
<defs>
<radialGradient id="paint0_radial_1097_3394" cx="0" cy="0" r="1" gradientUnits="userSpaceOnUse" gradientTransform="translate(9.43894 45.1272) rotate(-90.1102) scale(54.2185 33.672)">
<stop stop-color="#3970A2"/>
<stop offset="0.576702" stop-color="#4997C2"/>
</radialGradient>
<radialGradient id="paint1_radial_1097_3394" cx="0" cy="0" r="1" gradientUnits="userSpaceOnUse" gradientTransform="translate(30.5088 44.9502) rotate(-90.1113) scale(53.5875 33.6068)">
<stop stop-color="#3970A2"/>
<stop offset="0.576702" stop-color="#4997C2"/>
</radialGradient>
<radialGradient id="paint2_radial_1097_3394" cx="0" cy="0" r="1" gradientUnits="userSpaceOnUse" gradientTransform="translate(51.5467 44.9882) rotate(-90.1101) scale(53.8788 33.411)">
<stop stop-color="#3970A2"/>
<stop offset="0.576702" stop-color="#4997C2"/>
</radialGradient>
<radialGradient id="paint3_radial_1097_3394" cx="0" cy="0" r="1" gradientUnits="userSpaceOnUse" gradientTransform="translate(72.6821 44.9502) rotate(-90.1113) scale(53.5875 33.6068)">
<stop stop-color="#3970A2"/>
<stop offset="0.576702" stop-color="#4997C2"/>
</radialGradient>
<radialGradient id="paint4_radial_1097_3394" cx="0" cy="0" r="1" gradientUnits="userSpaceOnUse" gradientTransform="translate(94.1468 45.0107) rotate(-90.1161) scale(53.5875 35.0424)">
<stop stop-color="#3970A2"/>
<stop offset="0.576702" stop-color="#4997C2"/>
</radialGradient>
<radialGradient id="paint5_radial_1097_3394" cx="0" cy="0" r="1" gradientUnits="userSpaceOnUse" gradientTransform="translate(10.7018 91.6809) rotate(-90.111) scale(61.548 38.501)">
<stop stop-color="#3970A2"/>
<stop offset="0.576702" stop-color="#4997C2"/>
</radialGradient>
<radialGradient id="paint6_radial_1097_3394" cx="0" cy="0" r="1" gradientUnits="userSpaceOnUse" gradientTransform="translate(34.501 91.6779) rotate(-90.1266) scale(61.8393 44.1146)">
<stop stop-color="#3970A2"/>
<stop offset="0.576702" stop-color="#4997C2"/>
</radialGradient>
<radialGradient id="paint7_radial_1097_3394" cx="0" cy="0" r="1" gradientUnits="userSpaceOnUse" gradientTransform="translate(61.5443 91.6799) rotate(-90.1274) scale(61.548 44.1782)">
<stop stop-color="#3970A2"/>
<stop offset="0.576702" stop-color="#4997C2"/>
</radialGradient>
<radialGradient id="paint8_radial_1097_3394" cx="0" cy="0" r="1" gradientUnits="userSpaceOnUse" gradientTransform="translate(89.3347 91.6809) rotate(-90.1332) scale(61.5481 46.2012)">
<stop stop-color="#3970A2"/>
<stop offset="0.576702" stop-color="#4997C2"/>
</radialGradient>
</defs>
</svg>
