<svg width="151" height="243" viewBox="0 0 151 243" fill="none" xmlns="http://www.w3.org/2000/svg">
<path d="M16.987 28H19.889L11.866 8.08473H8.73643L0.684974 28H3.58691L5.63534 22.7651H14.9386L16.987 28ZM6.60265 20.2899L10.3012 10.816L13.9713 20.2899H6.60265ZM28.0776 28.3983C31.7477 28.3983 33.853 26.5775 33.853 23.8178C33.853 21.8547 32.715 20.4891 29.7562 19.8347L27.2241 19.2657C25.3463 18.839 24.8058 18.2984 24.8058 17.4449C24.8058 16.3069 25.7731 15.5672 27.7362 15.5672C29.4432 15.5672 30.8942 16.1362 31.9184 17.2173L33.6254 15.5956C32.4305 14.0878 30.4105 13.1774 27.85 13.1774C24.2652 13.1774 22.1314 14.9982 22.1314 17.5303C22.1314 19.5502 23.4971 20.859 26.4844 21.5702L28.7888 22.0823C30.5528 22.4806 31.1787 23.0781 31.1787 24.0169C31.1787 25.2119 30.0407 26.0369 28.0776 26.0369C26.143 26.0369 24.4644 25.2972 23.3833 23.8462L21.6193 25.3541C22.7574 27.2034 25.1187 28.3983 28.0776 28.3983ZM49.1931 28.3983C52.8632 28.3983 54.9685 26.5775 54.9685 23.8178C54.9685 21.8547 53.8305 20.4891 50.8717 19.8347L48.3396 19.2657C46.4619 18.839 45.9213 18.2984 45.9213 17.4449C45.9213 16.3069 46.8886 15.5672 48.8517 15.5672C50.5587 15.5672 52.0097 16.1362 53.0339 17.2173L54.7409 15.5956C53.546 14.0878 51.526 13.1774 48.9655 13.1774C45.3807 13.1774 43.247 14.9982 43.247 17.5303C43.247 19.5502 44.6126 20.859 47.5999 21.5702L49.9044 22.0823C51.6683 22.4806 52.2942 23.0781 52.2942 24.0169C52.2942 25.2119 51.1562 26.0369 49.1931 26.0369C47.2585 26.0369 45.5799 25.2972 44.4988 23.8462L42.7349 25.3541C43.8729 27.2034 46.2343 28.3983 49.1931 28.3983ZM71.8018 20.3184C71.8018 16.0508 68.9568 13.1774 64.9168 13.1774C60.6208 13.1774 57.662 16.3922 57.662 20.8305C57.662 25.3257 60.7062 28.3983 65.1444 28.3983C67.8188 28.3983 70.0094 27.2887 71.4035 25.3826L69.668 23.8462C68.4731 25.2972 66.9937 25.98 65.2013 25.98C62.4985 25.98 60.7062 24.3584 60.3932 21.5987H71.7165C71.7734 21.1719 71.8018 20.7452 71.8018 20.3184ZM64.9168 15.6241C67.2498 15.6241 68.8714 17.0182 69.099 19.5502H60.4501C60.8484 17.132 62.4416 15.6241 64.9168 15.6241ZM88.8054 20.3184C88.8054 16.0508 85.9603 13.1774 81.9204 13.1774C77.6244 13.1774 74.6655 16.3922 74.6655 20.8305C74.6655 25.3257 77.7097 28.3983 82.148 28.3983C84.8223 28.3983 87.013 27.2887 88.4071 25.3826L86.6716 23.8462C85.4767 25.2972 83.9972 25.98 82.2049 25.98C79.5021 25.98 77.7097 24.3584 77.3968 21.5987H88.72C88.7769 21.1719 88.8054 20.7452 88.8054 20.3184ZM81.9204 15.6241C84.2533 15.6241 85.875 17.0182 86.1026 19.5502H77.4537C77.852 17.132 79.4452 15.6241 81.9204 15.6241ZM100.261 13.1774C98.0135 13.1774 96.1642 14.1731 95.3392 15.937V13.5757H92.6648V28H95.3392V19.4933C95.3392 17.1035 97.1315 15.6525 99.5498 15.6525C101.684 15.6525 102.708 16.7905 102.708 19.3795V28H105.382V18.7252C105.382 15.1689 103.476 13.1774 100.261 13.1774ZM123.157 28.3983C127.68 28.3983 130.611 24.9274 130.611 20.8021C130.611 16.6767 127.68 13.1774 123.157 13.1774C118.604 13.1774 115.674 16.6767 115.674 20.8021C115.674 24.9274 118.604 28.3983 123.157 28.3983ZM123.157 25.9231C120.311 25.9231 118.462 23.7893 118.462 20.8021C118.462 17.7863 120.311 15.6525 123.157 15.6525C125.973 15.6525 127.822 17.7863 127.822 20.8021C127.822 23.7893 125.973 25.9231 123.157 25.9231ZM142.103 13.1774C139.856 13.1774 138.006 14.1731 137.181 15.937V13.5757H134.507V28H137.181V19.4933C137.181 17.1035 138.974 15.6525 141.392 15.6525C143.526 15.6525 144.55 16.7905 144.55 19.3795V28H147.224V18.7252C147.224 15.1689 145.318 13.1774 142.103 13.1774Z" fill="#BFBFBF"/>
<path d="M21.7865 241.991H8.16431V176.685H21.7865V241.991Z" fill="#F6E382"/>
<path d="M57.4459 241.995H43.5733L41.1694 228.824C41.0693 228.223 40.7688 226.37 40.3681 223.315C39.9174 220.21 39.3164 215.802 38.5652 210.093V242.045H26.9963V176.689H40.268L42.7219 190.511C42.9723 191.763 43.9239 198.324 45.5265 210.243V176.639H57.4459V241.995Z" fill="#F6E382"/>
<path d="M93.2543 225.514C93.2543 228.719 93.0039 231.424 92.5532 233.477C92.1024 235.58 91.3512 237.283 90.3496 238.535C89.348 239.787 87.9958 240.689 86.3931 241.19C84.7905 241.69 82.7873 241.991 80.4835 241.991H62.7546V176.685C68.4139 176.685 72.9212 176.685 76.3268 176.685C79.7323 176.685 81.9359 176.735 83.0377 176.785C84.8907 176.835 86.4933 177.135 87.8455 177.686C89.1476 178.237 90.1994 179.139 91.0007 180.391C91.802 181.643 92.3529 183.345 92.7535 185.499C93.1041 187.652 93.3044 190.357 93.3044 193.662V225.514H93.2543ZM79.3817 192.11C79.3817 190.307 79.1313 189.155 78.6806 188.704C78.2299 188.253 77.4286 188.003 76.3268 188.003V230.673C77.5287 230.673 78.33 230.472 78.7307 230.072C79.1313 229.671 79.3817 228.469 79.3817 226.516V192.11Z" fill="#F6E382"/>
<path d="M111.734 241.991H98.1123V176.685H111.734V241.991Z" fill="#F6E382"/>
<path d="M146.79 241.992H133.168V229.271H130.113V241.992H116.441V190.057C116.441 187.202 116.641 184.899 116.992 183.096C117.342 181.293 118.043 179.89 119.045 178.939C120.047 177.937 121.399 177.286 123.152 176.936C124.904 176.585 127.158 176.385 129.913 176.385C136.573 176.385 140.881 176.936 142.784 178.037C145.488 179.69 146.79 183.697 146.79 190.057V241.992ZM133.268 190.959C133.268 188.955 132.767 187.904 131.716 187.904C130.614 187.904 130.013 188.905 130.013 190.959L130.113 217.802H133.168L133.268 190.959Z" fill="#F6E382"/>
<path d="M0.101131 62.5489V65.1031C0.101131 67.4068 0.251384 69.2598 0.501792 70.562C0.802282 71.9142 1.30309 73.066 2.10439 74.0176C2.9057 74.9691 4.0075 75.8205 5.40978 76.6719C6.81206 77.4732 8.61501 78.5249 10.8687 79.777C11.6199 80.1776 12.2209 80.5282 12.6716 80.8287C13.1223 81.1292 13.4228 81.3796 13.6732 81.5799C13.8736 81.8303 14.0238 82.0306 14.0739 82.3311C14.124 82.5815 14.1741 82.882 14.1741 83.1825V90.7949C14.1741 93.2489 13.7233 94.4509 12.7718 94.4509C12.0206 94.4509 11.67 93.299 11.67 91.0453V81.5298H0.151215V92.8983C0.151215 95.2522 0.301457 97.1553 0.601946 98.6577C0.902436 100.16 1.50342 101.312 2.40489 102.113C3.30635 102.965 4.60848 103.516 6.26117 103.766C7.91387 104.067 10.0674 104.167 12.7217 104.167C15.5763 104.167 17.83 104.016 19.5829 103.666C21.2856 103.365 22.6378 102.764 23.5393 102.013C24.4909 101.212 25.0919 100.16 25.3923 98.858C25.6928 97.5559 25.8431 95.8531 25.8431 93.8499V84.084C25.8431 81.7301 25.6928 79.8771 25.4424 78.5249C25.1419 77.1727 24.591 76.0709 23.7897 75.1194C22.9884 74.2179 21.7865 73.3164 20.284 72.415C18.7816 71.5135 16.7783 70.3616 14.2241 68.9594C13.3227 68.4585 12.6716 67.8576 12.271 67.2065C11.8703 66.5554 11.6199 65.9044 11.6199 65.2533V61.1466C11.6199 59.9947 11.72 59.1434 11.9705 58.5424C12.2209 57.9414 12.4713 57.691 12.8218 57.691C13.7233 57.691 14.124 58.8429 14.124 61.1466V67.2566H25.793V59.4939C25.793 57.2403 25.6427 55.3872 25.3923 53.9349C25.1419 52.4825 24.5409 51.3306 23.6896 50.4793C22.7881 49.6279 21.486 49.077 19.7832 48.7264C18.0804 48.4259 15.7266 48.2256 12.8218 48.2256C9.91712 48.2256 7.66345 48.3758 5.96068 48.7264C4.25791 49.0269 2.95578 49.6779 2.10439 50.5794C1.20293 51.4809 0.652031 52.6828 0.401623 54.2354C0.151215 55.7879 0.000976563 57.7411 0.000976563 60.145C0.000976563 60.4455 0.000964335 60.746 0.0510459 61.0965C0.101127 61.5974 0.101131 62.0481 0.101131 62.5489Z" fill="url(#paint0_radial_1390_7652)"/>
<path d="M42.354 75.2187H44.9582V104.016H56.6272V48.7256H44.9582V65.6532H42.354V48.7256H30.8352V104.016H42.354V75.2187Z" fill="url(#paint1_radial_1390_7652)"/>
<path d="M73.1901 93.2547H75.7944V104.022H87.3132V60.0506C87.3132 54.6417 86.1613 51.2362 83.9076 49.8339C82.305 48.9325 78.649 48.4316 72.9898 48.4316C70.636 48.4316 68.7329 48.5819 67.2805 48.8824C65.8282 49.1829 64.6262 49.7338 63.8249 50.5851C62.9735 51.4365 62.4226 52.5884 62.1221 54.1409C61.8216 55.6434 61.6714 57.6466 61.6714 60.0506V104.022H73.2903V93.2547H73.1901ZM73.1401 60.8018C73.1401 59.099 73.6409 58.2476 74.5924 58.2476C75.4438 58.2476 75.8946 59.099 75.8946 60.8018L75.8445 83.5388H73.2402L73.1401 60.8018Z" fill="url(#paint2_radial_1390_7652)"/>
<path d="M104.019 79.1251H105.221C105.772 79.1251 106.123 79.3254 106.323 79.7261C106.524 80.1267 106.624 81.1284 106.624 82.731V104.016H118.293V83.4822C118.293 78.3238 116.84 75.0184 113.986 73.6161C114.787 73.3156 115.438 72.8649 115.989 72.314C116.54 71.7631 116.991 71.062 117.341 70.2106C117.692 69.3091 117.942 68.2574 118.092 66.9553C118.243 65.6532 118.293 64.1006 118.293 62.2476C118.293 59.1426 118.142 56.6886 117.842 54.9357C117.542 53.1328 116.941 51.7806 116.089 50.8791C115.238 49.9776 114.036 49.3766 112.533 49.1262C111.031 48.8758 109.028 48.7256 106.624 48.7256H92.5007V104.016H104.019V79.1251ZM104.019 58.2411C105.071 58.2411 105.772 58.3412 106.123 58.5916C106.473 58.8421 106.624 59.393 106.624 60.3445V64.8018C106.624 65.7032 106.574 66.4545 106.524 66.9052C106.473 67.406 106.323 67.7566 106.123 67.9569C105.923 68.2073 105.672 68.3075 105.322 68.3576C104.971 68.4076 104.57 68.4076 104.019 68.4076V58.2411Z" fill="url(#paint3_radial_1390_7652)"/>
<path d="M134.857 76.759C135.358 81.8172 135.859 85.6735 136.309 88.428C136.76 91.1324 137.01 92.7851 137.111 93.2859L138.863 104.053H150.232L142.67 72.1014L149.23 48.8135H137.862L136.86 54.2223C136.309 57.4275 135.859 60.182 135.608 62.4858C135.308 64.7895 135.057 66.7427 134.857 68.2952V48.8135H123.338V104.104H134.857V76.759Z" fill="url(#paint4_radial_1390_7652)"/>
<path d="M0.000244141 118.294H7.16192V170.98H22.3867V118.294H29.5484V107.477H0.000244141V118.294Z" fill="url(#paint5_radial_1390_7652)"/>
<path d="M62.0505 108.724C59.897 107.672 55.1392 107.121 47.6771 107.121C44.572 107.121 42.0679 107.271 40.1148 107.622C38.1616 107.972 36.6591 108.624 35.5072 109.575C34.4054 110.527 33.6542 111.879 33.2536 113.632C32.8529 115.385 32.6526 117.638 32.6526 120.393V170.925H47.9275V158.555H51.333V170.925H66.5077V120.443C66.5578 114.233 65.0554 110.326 62.0505 108.724ZM51.3831 147.437H47.9775L47.8774 121.294C47.8774 119.341 48.5285 118.339 49.7805 118.339C50.9324 118.339 51.4833 119.341 51.4833 121.294L51.3831 147.437Z" fill="url(#paint6_radial_1390_7652)"/>
<path d="M92.9056 140.129C91.1027 128.56 90.1011 122.149 89.8006 120.948L86.996 107.476H72.1719V170.979H85.0428V139.928C85.8942 145.487 86.5953 149.795 87.0461 152.799C87.5469 155.804 87.8474 157.607 87.9476 158.158L90.6019 170.979H106.077V107.476H92.8055V140.129H92.9056Z" fill="url(#paint7_radial_1390_7652)"/>
<path d="M143.835 166.673L145.387 163.318H138.777L141.531 160.313L136.272 159.161L140.83 156.406L134.369 154.203L137.825 151.699L132.767 149.745L138.176 145.939L132.767 145.338L136.222 142.233L131.515 139.829L138.476 137.576L135.271 133.97L138.326 132.017L137.024 129.362L139.377 128.661L146.239 107.527H131.214L129.912 113.737C129.161 117.393 128.61 120.548 128.259 123.202C127.909 125.856 127.558 128.11 127.258 129.913V107.477H112.033V170.98H127.208V139.679C127.859 145.488 128.51 149.946 129.111 153.051C129.712 156.156 130.062 158.059 130.162 158.61L132.466 170.98H147.491L146.339 166.673H143.835Z" fill="url(#paint8_radial_1390_7652)"/>
<defs>
<radialGradient id="paint0_radial_1390_7652" cx="0" cy="0" r="1" gradientUnits="userSpaceOnUse" gradientTransform="translate(12.8821 113.468) rotate(-90.1102) scale(79.2792 49.2358)">
<stop stop-color="#3970A2"/>
<stop offset="0.576702" stop-color="#4997C2"/>
</radialGradient>
<radialGradient id="paint1_radial_1390_7652" cx="0" cy="0" r="1" gradientUnits="userSpaceOnUse" gradientTransform="translate(43.6914 113.209) rotate(-90.1113) scale(78.3566 49.1404)">
<stop stop-color="#3970A2"/>
<stop offset="0.576702" stop-color="#4997C2"/>
</radialGradient>
<radialGradient id="paint2_radial_1390_7652" cx="0" cy="0" r="1" gradientUnits="userSpaceOnUse" gradientTransform="translate(74.4527 113.265) rotate(-90.1101) scale(78.7825 48.8542)">
<stop stop-color="#3970A2"/>
<stop offset="0.576702" stop-color="#4997C2"/>
</radialGradient>
<radialGradient id="paint3_radial_1390_7652" cx="0" cy="0" r="1" gradientUnits="userSpaceOnUse" gradientTransform="translate(105.357 113.209) rotate(-90.1113) scale(78.3566 49.1404)">
<stop stop-color="#3970A2"/>
<stop offset="0.576702" stop-color="#4997C2"/>
</radialGradient>
<radialGradient id="paint4_radial_1390_7652" cx="0" cy="0" r="1" gradientUnits="userSpaceOnUse" gradientTransform="translate(136.743 113.297) rotate(-90.1161) scale(78.3566 51.2396)">
<stop stop-color="#3970A2"/>
<stop offset="0.576702" stop-color="#4997C2"/>
</radialGradient>
<radialGradient id="paint5_radial_1390_7652" cx="0" cy="0" r="1" gradientUnits="userSpaceOnUse" gradientTransform="translate(14.7287 181.539) rotate(-90.111) scale(89.9965 56.2968)">
<stop stop-color="#3970A2"/>
<stop offset="0.576702" stop-color="#4997C2"/>
</radialGradient>
<radialGradient id="paint6_radial_1390_7652" cx="0" cy="0" r="1" gradientUnits="userSpaceOnUse" gradientTransform="translate(49.5284 181.534) rotate(-90.1266) scale(90.4225 64.505)">
<stop stop-color="#3970A2"/>
<stop offset="0.576702" stop-color="#4997C2"/>
</radialGradient>
<radialGradient id="paint7_radial_1390_7652" cx="0" cy="0" r="1" gradientUnits="userSpaceOnUse" gradientTransform="translate(89.0721 181.538) rotate(-90.1274) scale(89.9966 64.5981)">
<stop stop-color="#3970A2"/>
<stop offset="0.576702" stop-color="#4997C2"/>
</radialGradient>
<radialGradient id="paint8_radial_1390_7652" cx="0" cy="0" r="1" gradientUnits="userSpaceOnUse" gradientTransform="translate(129.707 181.539) rotate(-90.1332) scale(89.9966 67.5561)">
<stop stop-color="#3970A2"/>
<stop offset="0.576702" stop-color="#4997C2"/>
</radialGradient>
</defs>
</svg>
