<svg width="24" height="25" viewBox="0 0 24 25" fill="none" xmlns="http://www.w3.org/2000/svg">
<path d="M12 2.44336C11.172 2.44336 10.5 3.11536 10.5 3.94336V4.63867C7.91318 5.30545 6 7.64816 6 10.4434V16.4434L4.46484 17.5996H4.46289C4.32099 17.69 4.20418 17.8147 4.12327 17.9621C4.04236 18.1096 3.99996 18.2751 4 18.4434C4 18.7086 4.10536 18.9629 4.29289 19.1505C4.48043 19.338 4.73478 19.4434 5 19.4434H12H19C19.2652 19.4434 19.5196 19.338 19.7071 19.1505C19.8946 18.9629 20 18.7086 20 18.4434C20 18.2751 19.9576 18.1096 19.8767 17.9621C19.7958 17.8147 19.679 17.69 19.5371 17.5996L18 16.4434V10.4434C18 7.64816 16.0868 5.30545 13.5 4.63867V3.94336C13.5 3.11536 12.828 2.44336 12 2.44336ZM10 20.4434C10 21.5434 10.9 22.4434 12 22.4434C13.1 22.4434 14 21.5434 14 20.4434H10Z" fill="#FAFAFA"/>
<path d="M12 22.4434C10.9 22.4434 10 21.5434 10 20.4434H14C14 21.5434 13.1 22.4434 12 22.4434Z" fill="#FAFAFA"/>
</svg>
