<svg width="24" height="25" viewBox="0 0 24 25" fill="none" xmlns="http://www.w3.org/2000/svg">
<g clip-path="url(#clip0_2774_11430)">
<path fill-rule="evenodd" clip-rule="evenodd" d="M11 2.44336C6.02944 2.44336 2 6.4728 2 11.4434C2 16.4139 6.02944 20.4434 11 20.4434C13.1246 20.4434 15.0784 19.7062 16.6176 18.4752L20.2929 22.1505C20.6834 22.541 21.3166 22.541 21.7071 22.1505C22.0976 21.7599 22.0976 21.1268 21.7071 20.7363L18.0319 17.061C19.2628 15.5218 20 13.568 20 11.4434C20 6.4728 15.9706 2.44336 11 2.44336ZM5 11.4434C5 8.12965 7.68629 5.44336 11 5.44336C14.3137 5.44336 17 8.12965 17 11.4434C17 13.1005 16.3295 14.5991 15.2426 15.686C14.1558 16.7729 12.6571 17.4434 11 17.4434C7.68629 17.4434 5 14.7571 5 11.4434Z" fill="#FAFAFA"/>
</g>
<defs>
<clipPath id="clip0_2774_11430">
<rect width="24" height="24" fill="white" transform="translate(0 0.443359)"/>
</clipPath>
</defs>
</svg>
