<svg width="24" height="25" viewBox="0 0 24 25" fill="none" xmlns="http://www.w3.org/2000/svg">
<g clip-path="url(#clip0_2774_11479)">
<path fill-rule="evenodd" clip-rule="evenodd" d="M8.99959 3.6655C8.99959 3.19893 9.32223 2.79437 9.7771 2.69057C11.2593 2.35232 12.7789 2.36366 14.2221 2.69297C14.677 2.79676 14.9997 3.20133 14.9997 3.66791L14.9997 5.51465C14.9997 6.28445 15.833 6.76557 16.4997 6.38067L18.1007 5.45632C18.5052 5.2228 19.0174 5.30034 19.3346 5.64309C19.8329 6.18144 20.2787 6.78268 20.6599 7.44291C21.0411 8.10311 21.3388 8.78983 21.5559 9.49048C21.6942 9.93658 21.5052 10.419 21.1007 10.6525L19.4997 11.5768C18.833 11.9617 18.833 12.924 19.4997 13.3089L21.099 14.2323C21.5031 14.4656 21.6921 14.9473 21.5546 15.3931C21.1181 16.8077 20.3682 18.1293 19.3342 19.2439C19.0168 19.5859 18.5051 19.663 18.1011 19.4297L16.4997 18.5052C15.833 18.1203 14.9997 18.6014 14.9997 19.3712L14.9997 21.2203C14.9997 21.6869 14.677 22.0915 14.2222 22.1953C12.74 22.5335 11.2204 22.5222 9.77714 22.1928C9.32225 22.0891 8.99959 21.6845 8.99959 21.2179L8.99959 19.3711C8.99959 18.6013 8.16626 18.1202 7.49959 18.5051L5.89854 19.4295C5.49408 19.663 4.98185 19.5854 4.66462 19.2427C4.16639 18.7043 3.72056 18.1031 3.33939 17.4429C2.95821 16.7827 2.66044 16.0959 2.44335 15.3953C2.30512 14.9492 2.49409 14.4668 2.89855 14.2333L4.49956 13.3089C5.16623 12.924 5.16623 11.9618 4.49956 11.5769L2.90026 10.6535C2.49619 10.4202 2.30715 9.93852 2.4447 9.49268C2.88114 8.07813 3.63109 6.75648 4.66513 5.64197C4.98246 5.29994 5.49415 5.22281 5.89821 5.45609L7.49959 6.38065C8.16626 6.76555 8.99959 6.28442 8.99959 5.51462L8.99959 3.6655ZM11.9998 15.4429C13.6566 15.4429 14.9998 14.0997 14.9998 12.4429C14.9998 10.786 13.6566 9.44287 11.9998 9.44287C10.3429 9.44287 8.99976 10.786 8.99976 12.4429C8.99976 14.0997 10.3429 15.4429 11.9998 15.4429Z" fill="#FAFAFA"/>
</g>
<defs>
<clipPath id="clip0_2774_11479">
<rect width="24" height="24" fill="white" transform="translate(0 0.443359)"/>
</clipPath>
</defs>
</svg>
